<svg xmlns="http://www.w3.org/2000/svg" id="svg4694" viewBox="0 0 16 16" width="32" height="32"><style id="style4696">.icon-canvas-transparent{opacity:0;fill:#f6f6f6}.icon-vs-out{fill:#f6f6f6}.icon-vs-action-orange{fill:#c27d1a}</style><g id="g4707" transform="translate(-246 -5.333) scale(1.33333)"><path d="M185 4h11v12h-11z" id="path4534" fill="#f6f6f6"/><path d="M194 13V6h-7v7h-1V5h9v8h-1zm-7 2h-1v-1h1v1zm2-1h-1v1h1v-1zm2 0h-1v1h1v-1zm2 1h-1v-1h1v1zm2-1h-1v1h1v-1z" id="path4536" fill="#424242"/><path d="M187 13V6h7v7h-7z" id="path4538" fill="#f0eff1"/></g><path id="canvas" d="M16 16H0V0h16v16z" class="icon-canvas-transparent"/></svg>