<?xml version="1.0" encoding="utf-8"?>
<!-- Generator: Adobe Illustrator 19.2.0, SVG Export Plug-In . SVG Version: 6.00 Build 0)  -->
<svg version="1.1" id="Layer_1" xmlns="http://www.w3.org/2000/svg" xmlns:xlink="http://www.w3.org/1999/xlink" x="0px" y="0px"
	 viewBox="0 0 750 278.7" style="enable-background:new 0 0 750 278.7;" xml:space="preserve">
<style type="text/css">
	.st0{fill:#F5F5F5;}
	.st1{fill:#0076BF;}
	.st2{fill:#009D3B;}
	.st3{fill:none;stroke:#E6E7E8;stroke-width:3;stroke-miterlimit:10;}
</style>
<rect class="st0" width="750" height="278.7"/>
<g>
	<g>
		<path class="st1" d="M377.5,55.4c5.6,0,11,0.8,16.3,2.3s10.2,3.6,14.5,6.1c4.3,2.5,8.7,5.9,12.5,9.4s6.9,7.9,9.7,12.5
			c2.8,4.6,4.6,9.4,6.1,14.5s2,10.7,2,16.3s-0.8,11-2.3,16.3s-3.6,10.2-6.1,14.5s-5.9,8.7-9.4,12.5c-3.6,3.8-7.9,6.9-12.5,9.7
			s-9.4,4.6-14.5,6.1s-10.7,2-16.3,2c-6.9,0-13.5-1-19.6-3.3s-12-5.3-17.3-9.2s-9.7-8.7-13.5-14.3s-6.6-11.5-8.4-18.1l7.4-2
			c1.5,5.9,4.1,11,7.4,15.8s7.1,8.9,11.7,12.5s9.7,6.1,15,8.1s11.5,2.8,17.3,2.8c4.8,0,9.7-0.5,14.3-2c4.6-1.5,8.9-3.1,12.7-5.3
			s7.6-5.1,11-8.4s6.1-6.9,8.4-11s4.1-8.1,5.3-12.7c1.3-4.6,1.8-9.2,1.8-14s-0.5-9.7-2-14.3s-3.1-8.9-5.3-12.7
			c-2.3-3.8-5.1-7.6-8.4-11c-3.3-3.3-6.9-6.1-11-8.4s-8.1-4.1-12.7-5.3c-4.6-1.3-9.2-1.8-14-1.8c-5.1,0-10.2,0.8-15,2
			c-4.8,1.3-9.4,3.6-13.5,6.1s-8.1,6.1-11.5,9.7c-3.3,3.6-6.1,8.1-8.4,12.7H347v7.6h-30.6V70.7h7.6V87c2.5-4.8,5.9-9.2,9.7-13.2
			s8.1-7.1,12.7-9.9c4.6-2.8,9.7-4.8,14.8-6.4C366.3,55.9,371.9,55.4,377.5,55.4z"/>
		<g>
			<rect x="373.7" y="79.4" class="st2" width="7.6" height="51.7"/>
			<polygon class="st2" points="399.7,116.8 394.4,111.4 377.5,128.3 360.7,111.4 355.4,116.8 377.5,139 			"/>
			<polygon class="st2" points="397.2,142.8 357.9,142.8 357.9,150.4 396.9,150.4 396.9,142.8 			"/>
		</g>
	</g>
	<g>
		<path class="st1" d="M645.4,70.7L620,60.5l-9.4-3.8l-37.2,37.4v10.7l39.2-39.2l34.9,14v83.5l7.6-3.1V74.5L645.4,70.7z"/>
		<path class="st2" d="M614.4,74.5L573.9,115l-25.7-20.1L538,100v50.9l10.2,5.1l25.7-20.1l40.5,40.5l25.5-10.2V84.7L614.4,74.5z
			 M548.2,140.7v-30.6l15.3,15.3L548.2,140.7z M614.4,146.3l-27-20.9l27-20.9V146.3z"/>
	</g>
	<g>
		<g>
			<path class="st1" d="M155.9,55.3c5.7,0,11.1,0.8,16.3,2.2s10,3.5,14.6,6.2s8.7,5.7,12.5,9.5s6.8,7.9,9.5,12.5s4.6,9.5,6.2,14.6
				c1.6,5.1,2.2,10.6,2.2,16.3s-0.8,11.1-2.2,16.3c-1.4,5.1-3.5,10-6.2,14.6s-5.7,8.7-9.5,12.5s-7.9,6.8-12.5,9.5s-9.5,4.6-14.6,6.2
				c-5.1,1.6-10.6,2.2-16.3,2.2s-11.1-0.8-16.3-2.2c-5.1-1.4-10-3.5-14.6-6.2s-8.7-5.7-12.5-9.5s-6.5-8.4-9.2-13s-4.9-9.2-6.2-14.4
				s-2.2-10.6-2.2-16.3c0-5.7,0.8-11.1,2.2-16.3c1.4-5.1,3.5-10,6.2-14.6s5.7-8.7,9.5-12.5s7.9-6.8,12.5-9.5
				c4.6-2.7,9.5-4.6,14.6-6.2S150.2,55.3,155.9,55.3z M155.9,169.1c4.9,0,9.5-0.5,14.1-1.9s8.7-3,12.7-5.4c4.1-2.4,7.6-5.1,10.6-8.1
				s6-6.8,8.1-10.6c2.2-3.8,4.1-8.1,5.4-12.7c1.4-4.6,1.9-9.2,1.9-14.1s-0.5-9.5-1.9-14.1s-3-8.7-5.4-12.7
				c-2.4-4.1-5.1-7.6-8.1-10.6s-6.8-6-10.6-8.1c-3.8-2.2-8.1-4.1-12.7-5.4c-4.6-1.4-9.2-1.9-14.1-1.9c-4.9,0-9.5,0.5-14.1,1.9
				s-8.7,3-12.7,5.4s-7.6,5.1-10.6,8.1s-6,6.8-8.1,10.6c-2.2,3.8-4.1,8.1-5.4,12.7s-1.9,9.2-1.9,14.1s0.5,9.5,1.9,14.1
				c1.4,4.6,3,8.7,5.4,12.7s5.1,7.6,8.1,10.6s6.8,6,10.6,8.1c3.8,2.2,8.1,4.1,12.7,5.4S151,169.1,155.9,169.1z M170.8,82.9
				c-4.9-2.2-10-3.3-15.2-3.3c-3.3,0-6.5,0.5-9.8,1.4c-3.3,0.8-6,2.2-8.7,3.8s-5.1,3.5-7.3,5.7s-4.1,4.6-5.7,7.3s-2.7,5.7-3.8,8.7
				c-1.1,3-1.4,6.2-1.4,9.8c0,4.9,0.8,9.5,2.7,14.1c1.9,4.6,4.6,8.4,7.9,11.9l-5.7,5.7c-4.3-4.3-7.6-8.9-9.8-14.6
				c-2.2-5.7-3-11.1-3-17.1c0-4.1,0.5-8.1,1.6-11.9s2.4-7.3,4.6-10.6c2.2-3.3,4.3-6.2,7-8.9c2.7-2.7,5.7-5.1,8.9-7
				c3.3-1.9,6.8-3.5,10.6-4.6s7.9-1.6,11.9-1.6c3.3,0,6.2,0.3,9.5,1.1s6,1.6,8.9,3L170.8,82.9z"/>
		</g>
		<path class="st2" d="M166.7,110.8c0.8,1.6,1.4,3.5,1.4,5.4c0,1.6-0.3,3.3-1.1,4.9s-1.6,2.7-2.7,3.8c-1.1,1.1-2.4,1.9-3.8,2.7
			c-1.4,0.8-3,1.1-4.9,1.1s-3.3-0.3-4.9-1.1c-1.6-0.8-2.7-1.6-3.8-2.7s-1.9-2.4-2.7-3.8s-1.1-3-1.1-4.9s0.3-3.3,1.1-4.9
			s1.6-2.7,2.7-3.8c1.1-1.1,2.4-1.9,3.8-2.7c1.4-0.8,3-1.1,4.9-1.1s3.5,0.5,5.4,1.4l0,0l23.3-23.3l5.7,5.7L166.7,110.8L166.7,110.8z
			 M155.9,120.3c1.1,0,2.2-0.3,3-1.1c0.8-0.8,1.1-1.6,1.1-3s-0.3-2.2-1.1-3s-1.6-1.1-3-1.1s-2.2,0.3-3,1.1s-1.1,1.6-1.1,3
			s0.3,2.2,1.1,3C153.7,120.1,154.8,120.3,155.9,120.3z"/>
		<path class="st2" d="M196.5,97.8c1.4,3,2.2,6,3,8.9c0.8,3,1.1,6.2,1.1,9.5c0,6-1.1,11.7-3.3,17.1c-2.2,5.4-5.4,10.3-9.8,14.6
			l-5.7-5.7c3.5-3.5,6-7.3,7.9-11.7c1.9-4.3,2.7-8.9,2.7-13.8c0-5.1-1.1-10.3-3.3-15.2L196.5,97.8z"/>
	</g>
	<g>
		<path d="M62.7,199.5v6.6H69v1.5h-6.4v7.9H61V198h8.5v1.5H62.7z"/>
		<path d="M77.8,215.8c-0.9,0-1.8-0.2-2.5-0.5s-1.4-0.7-1.9-1.3s-0.9-1.2-1.2-2c-0.3-0.8-0.4-1.7-0.4-2.6c0-1,0.1-2,0.4-2.8
			s0.7-1.5,1.3-2.1c0.5-0.6,1.2-1,2-1.3s1.6-0.5,2.6-0.5c0.9,0,1.7,0.1,2.4,0.4c0.7,0.3,1.3,0.7,1.8,1.3s0.9,1.2,1.2,2.1
			s0.4,1.7,0.4,2.7s-0.1,1.9-0.4,2.7s-0.7,1.5-1.2,2.1s-1.2,1-1.9,1.3C79.6,215.7,78.7,215.8,77.8,215.8z M77.9,204.1
			c-0.7,0-1.3,0.1-1.9,0.4c-0.6,0.2-1,0.6-1.4,1c-0.4,0.5-0.7,1-0.9,1.7c-0.2,0.7-0.3,1.4-0.3,2.2s0.1,1.5,0.3,2.1
			c0.2,0.6,0.5,1.2,0.9,1.6c0.4,0.4,0.9,0.8,1.4,1c0.6,0.2,1.2,0.4,1.9,0.4c0.7,0,1.3-0.1,1.9-0.3c0.5-0.2,1-0.6,1.4-1
			s0.7-1,0.8-1.6c0.2-0.6,0.3-1.4,0.3-2.2c0-1.7-0.4-3-1.1-3.9C80.4,204.5,79.3,204.1,77.9,204.1z"/>
		<path d="M93.2,204.6c-0.4-0.3-0.8-0.4-1.4-0.4c-0.4,0-0.8,0.1-1.1,0.2c-0.3,0.2-0.6,0.4-0.8,0.6c-0.2,0.3-0.4,0.6-0.6,0.9
			c-0.2,0.4-0.3,0.7-0.4,1.1c-0.1,0.4-0.2,0.8-0.2,1.2s-0.1,0.8-0.1,1.1v6.1H87V203h1.6v2.7l0,0c0.1-0.5,0.3-0.9,0.6-1.2
			c0.2-0.4,0.5-0.7,0.8-0.9s0.6-0.4,1-0.6c0.3-0.1,0.7-0.2,1.1-0.2c0.3,0,0.5,0,0.7,0s0.4,0.1,0.5,0.1L93.2,204.6L93.2,204.6z"/>
		<path d="M103.1,209.6c0,0.8,0.1,1.5,0.3,2.1s0.5,1.1,0.8,1.6c0.4,0.4,0.8,0.7,1.3,1c0.5,0.2,1.1,0.3,1.8,0.3c1.4,0,2.7-0.5,4-1.5
			v1.5c-1.2,0.9-2.6,1.3-4.3,1.3c-0.8,0-1.6-0.1-2.3-0.4s-1.3-0.7-1.7-1.3c-0.5-0.6-0.9-1.2-1.1-2.1c-0.3-0.8-0.4-1.7-0.4-2.8
			c0-0.9,0.1-1.8,0.4-2.6s0.7-1.5,1.2-2.1s1.1-1,1.8-1.4c0.7-0.3,1.4-0.5,2.3-0.5c0.8,0,1.5,0.1,2.1,0.4c0.6,0.3,1.1,0.7,1.6,1.2
			c0.4,0.5,0.7,1.2,1,1.9c0.2,0.7,0.3,1.6,0.3,2.5v0.8h-9.1V209.6z M110.5,208.2c0-1.3-0.3-2.3-0.9-3s-1.4-1.1-2.5-1.1
			c-0.5,0-1,0.1-1.5,0.3s-0.8,0.5-1.2,0.8c-0.3,0.4-0.6,0.8-0.8,1.3c-0.2,0.5-0.4,1.1-0.5,1.7H110.5z"/>
		<path d="M122.4,215.5v-2.2l0,0c-0.4,0.8-1,1.4-1.7,1.9c-0.7,0.4-1.5,0.7-2.4,0.7c-0.6,0-1.1-0.1-1.6-0.3s-0.9-0.4-1.2-0.7
			c-0.3-0.3-0.6-0.7-0.8-1.1c-0.2-0.4-0.3-0.9-0.3-1.5c0-1.1,0.3-2,1-2.7s1.8-1.1,3.2-1.3l3.8-0.5c0-2.4-0.9-3.6-2.8-3.6
			c-1.5,0-2.8,0.5-4.1,1.6V204c0.3-0.2,0.6-0.4,0.9-0.5c0.3-0.2,0.7-0.3,1-0.4c0.4-0.1,0.7-0.2,1.1-0.3s0.8-0.1,1.1-0.1
			c1.4,0,2.4,0.4,3.2,1.2c0.7,0.8,1.1,1.9,1.1,3.5v8.1H122.4z M119.2,209.5c-0.6,0.1-1,0.2-1.4,0.3s-0.7,0.3-1,0.5s-0.5,0.5-0.6,0.8
			s-0.2,0.7-0.2,1.1c0,0.3,0.1,0.6,0.2,0.9c0.1,0.3,0.3,0.5,0.5,0.7s0.5,0.4,0.8,0.5s0.7,0.2,1.1,0.2c0.6,0,1.1-0.1,1.5-0.3
			s0.9-0.5,1.2-0.9c0.3-0.4,0.6-0.8,0.8-1.3c0.2-0.5,0.3-1.1,0.3-1.7V209L119.2,209.5z"/>
		<path d="M133.9,204.6c-0.4-0.3-0.8-0.4-1.4-0.4c-0.4,0-0.8,0.1-1.1,0.2c-0.3,0.2-0.6,0.4-0.8,0.6c-0.2,0.3-0.4,0.6-0.6,0.9
			c-0.2,0.4-0.3,0.7-0.4,1.1c-0.1,0.4-0.2,0.8-0.2,1.2s-0.1,0.8-0.1,1.1v6.1h-1.6V203h1.6v2.7l0,0c0.1-0.5,0.3-0.9,0.6-1.2
			c0.2-0.4,0.5-0.7,0.8-0.9s0.6-0.4,1-0.6c0.3-0.1,0.7-0.2,1.1-0.2c0.3,0,0.5,0,0.7,0s0.4,0.1,0.5,0.1v1.7H133.9z"/>
		<path d="M136.2,215.5V197h1.6v18.5H136.2z"/>
		<path d="M145.4,217.8c-0.5,1.2-1,2.1-1.7,2.7s-1.4,0.9-2.3,0.9c-0.4,0-0.8-0.1-1.1-0.2v-1.5c0.2,0.1,0.4,0.1,0.5,0.1
			c0.2,0,0.4,0,0.6,0c0.5,0,1-0.2,1.3-0.5c0.4-0.3,0.7-0.8,1-1.5l1.1-2.6L140,203h1.7l3.6,9.9c0,0.1,0.1,0.3,0.1,0.4
			c0,0.2,0.1,0.3,0.1,0.5h0.1c0-0.1,0.1-0.3,0.1-0.4c0-0.1,0.1-0.3,0.2-0.5l3.8-9.9h1.6L145.4,217.8z"/>
		<path d="M167.5,215.5v-2.2l0,0c-0.4,0.8-1,1.4-1.7,1.9c-0.7,0.4-1.5,0.7-2.4,0.7c-0.6,0-1.1-0.1-1.6-0.3s-0.9-0.4-1.2-0.7
			s-0.6-0.7-0.8-1.1c-0.2-0.4-0.3-0.9-0.3-1.5c0-1.1,0.3-2,1-2.7s1.8-1.1,3.2-1.3l3.8-0.5c0-2.4-0.9-3.6-2.8-3.6
			c-1.5,0-2.8,0.5-4.1,1.6V204c0.3-0.2,0.6-0.4,0.9-0.5c0.3-0.2,0.7-0.3,1-0.4c0.4-0.1,0.7-0.2,1.1-0.3c0.4-0.1,0.8-0.1,1.1-0.1
			c1.4,0,2.4,0.4,3.2,1.2c0.7,0.8,1.1,1.9,1.1,3.5v8.1H167.5z M164.3,209.5c-0.6,0.1-1,0.2-1.4,0.3s-0.7,0.3-1,0.5s-0.5,0.5-0.6,0.8
			s-0.2,0.7-0.2,1.1c0,0.3,0.1,0.6,0.2,0.9c0.1,0.3,0.3,0.5,0.5,0.7s0.5,0.4,0.8,0.5s0.7,0.2,1.1,0.2c0.6,0,1.1-0.1,1.5-0.3
			s0.9-0.5,1.2-0.9s0.6-0.8,0.8-1.3s0.3-1.1,0.3-1.7V209L164.3,209.5z"/>
		<path d="M181.6,215.5v-2.2l0,0c-0.4,0.8-1,1.4-1.8,1.8c-0.8,0.4-1.6,0.7-2.6,0.7c-0.8,0-1.5-0.1-2.1-0.4c-0.6-0.3-1.2-0.7-1.6-1.3
			c-0.5-0.5-0.8-1.2-1.1-2c-0.2-0.8-0.4-1.6-0.4-2.6s0.1-1.9,0.4-2.8c0.3-0.8,0.7-1.5,1.2-2.1s1.1-1.1,1.8-1.4
			c0.7-0.3,1.5-0.5,2.3-0.5c1.8,0,3.1,0.7,3.9,2.2l0,0V197h1.6v18.5H181.6z M181.6,208c0-0.5-0.1-1.1-0.3-1.5
			c-0.2-0.5-0.4-0.9-0.8-1.2c-0.3-0.3-0.7-0.6-1.2-0.8s-1-0.3-1.5-0.3c-0.6,0-1.2,0.1-1.7,0.4c-0.5,0.2-1,0.6-1.3,1.1
			c-0.4,0.5-0.7,1-0.9,1.7s-0.3,1.4-0.3,2.2s0.1,1.5,0.3,2.1s0.5,1.2,0.8,1.6c0.3,0.4,0.8,0.8,1.2,1c0.5,0.2,1,0.3,1.6,0.3
			s1.2-0.1,1.7-0.3s0.9-0.5,1.3-0.9c0.4-0.4,0.6-0.9,0.8-1.4s0.3-1.1,0.3-1.7L181.6,208L181.6,208z"/>
		<path d="M192.3,215.8c-0.9,0-1.8-0.2-2.5-0.5s-1.4-0.7-1.9-1.3s-0.9-1.2-1.2-2s-0.4-1.7-0.4-2.6c0-1,0.1-2,0.4-2.8
			s0.7-1.5,1.3-2.1c0.5-0.6,1.2-1,2-1.3s1.6-0.5,2.6-0.5c0.9,0,1.7,0.1,2.4,0.4c0.7,0.3,1.3,0.7,1.8,1.3s0.9,1.2,1.2,2.1
			s0.4,1.7,0.4,2.7s-0.1,1.9-0.4,2.7c-0.3,0.8-0.7,1.5-1.2,2.1s-1.2,1-1.9,1.3C194.1,215.7,193.3,215.8,192.3,215.8z M192.4,204.1
			c-0.7,0-1.3,0.1-1.9,0.4c-0.6,0.2-1,0.6-1.4,1c-0.4,0.5-0.7,1-0.9,1.7s-0.3,1.4-0.3,2.2s0.1,1.5,0.3,2.1s0.5,1.2,0.9,1.6
			c0.4,0.4,0.9,0.8,1.4,1c0.6,0.2,1.2,0.4,1.9,0.4s1.3-0.1,1.9-0.3c0.5-0.2,1-0.6,1.4-1s0.7-1,0.8-1.6c0.2-0.6,0.3-1.4,0.3-2.2
			c0-1.7-0.4-3-1.1-3.9C194.9,204.5,193.8,204.1,192.4,204.1z"/>
		<path d="M203.1,213.5v7.8h-1.6V203h1.6v2.4l0,0c0.5-0.9,1.1-1.5,1.9-2c0.8-0.5,1.7-0.7,2.6-0.7c0.8,0,1.5,0.1,2.1,0.4
			c0.6,0.3,1.2,0.7,1.6,1.2c0.4,0.5,0.8,1.2,1,1.9c0.2,0.8,0.3,1.6,0.3,2.6s-0.1,2-0.4,2.8c-0.3,0.9-0.6,1.6-1.1,2.2
			s-1.1,1.1-1.8,1.4c-0.7,0.3-1.5,0.5-2.3,0.5C205.3,215.8,204,215.1,203.1,213.5L203.1,213.5z M203.1,210.3c0,0.6,0.1,1.1,0.3,1.6
			s0.5,0.9,0.8,1.3c0.3,0.4,0.8,0.7,1.2,0.9c0.5,0.2,1,0.3,1.6,0.3s1.2-0.1,1.7-0.4c0.5-0.3,0.9-0.6,1.3-1.1
			c0.4-0.5,0.6-1.1,0.8-1.8s0.3-1.5,0.3-2.3c0-0.7-0.1-1.4-0.3-2s-0.4-1.1-0.8-1.5c-0.3-0.4-0.7-0.7-1.2-1c-0.5-0.2-1-0.3-1.6-0.3
			c-0.7,0-1.2,0.1-1.8,0.4c-0.5,0.2-1,0.6-1.3,1c-0.4,0.4-0.6,0.9-0.8,1.5s-0.3,1.1-0.3,1.8v1.6H203.1z"/>
		<path d="M221.2,215.4c-0.5,0.3-1.1,0.4-1.8,0.4c-2,0-3-1.2-3-3.5v-7.9h-2.2V203h2.2v-3.1l1.6-0.5v3.7h3.2v1.4H218v7.7
			c0,0.8,0.1,1.5,0.4,1.8c0.3,0.4,0.7,0.6,1.4,0.6c0.5,0,1-0.1,1.4-0.4L221.2,215.4L221.2,215.4z"/>
		<path d="M224.4,209.6c0,0.8,0.1,1.5,0.3,2.1s0.5,1.1,0.8,1.6c0.4,0.4,0.8,0.7,1.3,1c0.5,0.2,1.1,0.3,1.8,0.3c1.4,0,2.7-0.5,4-1.5
			v1.5c-1.2,0.9-2.6,1.3-4.3,1.3c-0.8,0-1.6-0.1-2.3-0.4s-1.3-0.7-1.7-1.3c-0.5-0.6-0.9-1.2-1.1-2.1c-0.3-0.8-0.4-1.7-0.4-2.8
			c0-0.9,0.1-1.8,0.4-2.6c0.3-0.8,0.7-1.5,1.2-2.1s1.1-1,1.8-1.4c0.7-0.3,1.4-0.5,2.3-0.5c0.8,0,1.5,0.1,2.1,0.4
			c0.6,0.3,1.1,0.7,1.6,1.2c0.4,0.5,0.7,1.2,1,1.9c0.2,0.7,0.3,1.6,0.3,2.5v0.8h-9.1V209.6z M231.8,208.2c0-1.3-0.3-2.3-0.9-3
			c-0.6-0.7-1.4-1.1-2.5-1.1c-0.5,0-1,0.1-1.5,0.3s-0.8,0.5-1.2,0.8c-0.3,0.4-0.6,0.8-0.8,1.3s-0.4,1.1-0.5,1.7H231.8z"/>
		<path d="M242.7,204.6c-0.4-0.3-0.8-0.4-1.4-0.4c-0.4,0-0.8,0.1-1.1,0.2c-0.3,0.2-0.6,0.4-0.8,0.6c-0.2,0.3-0.4,0.6-0.6,0.9
			c-0.2,0.4-0.3,0.7-0.4,1.1c-0.1,0.4-0.2,0.8-0.2,1.2s-0.1,0.8-0.1,1.1v6.1h-1.6V203h1.6v2.7l0,0c0.1-0.5,0.3-0.9,0.6-1.2
			c0.2-0.4,0.5-0.7,0.8-0.9s0.6-0.4,1-0.6c0.3-0.1,0.7-0.2,1.1-0.2c0.3,0,0.5,0,0.7,0s0.4,0.1,0.5,0.1v1.7H242.7z"/>
		<path d="M244.4,213.3c0.2,0.2,0.5,0.4,0.8,0.5s0.6,0.3,0.9,0.4s0.6,0.2,0.9,0.2c0.3,0.1,0.6,0.1,0.8,0.1c1.9,0,2.8-0.7,2.8-2.1
			c0-0.3-0.1-0.6-0.2-0.8c-0.1-0.2-0.3-0.4-0.6-0.6s-0.5-0.4-0.9-0.5s-0.7-0.3-1.2-0.5c-0.6-0.2-1.1-0.5-1.5-0.7s-0.8-0.5-1-0.8
			s-0.5-0.6-0.6-1c-0.1-0.3-0.2-0.7-0.2-1.2c0-0.6,0.1-1,0.4-1.5c0.2-0.4,0.6-0.8,1-1.1s0.9-0.5,1.4-0.7s1.1-0.2,1.7-0.2
			c1.1,0,2,0.2,2.8,0.6v1.6c-0.9-0.6-1.9-0.9-3-0.9c-0.4,0-0.7,0-1.1,0.1c-0.3,0.1-0.6,0.2-0.8,0.4s-0.4,0.4-0.5,0.6
			c-0.1,0.2-0.2,0.5-0.2,0.8s0,0.6,0.1,0.8s0.2,0.4,0.5,0.6c0.2,0.2,0.5,0.4,0.8,0.5c0.3,0.2,0.7,0.4,1.2,0.5
			c0.6,0.2,1.1,0.5,1.6,0.7s0.8,0.5,1.1,0.8s0.5,0.6,0.6,0.9c0.1,0.3,0.2,0.7,0.2,1.2c0,0.6-0.1,1.1-0.3,1.5s-0.6,0.8-1,1.1
			s-0.9,0.5-1.4,0.7c-0.6,0.2-1.2,0.2-1.8,0.2c-1.3,0-2.3-0.3-3.2-0.8v-1.4H244.4z"/>
	</g>
	<g>
		<path d="M317.9,215.5l-9.7-14.1c-0.1-0.2-0.2-0.4-0.4-0.5c-0.1-0.2-0.2-0.4-0.3-0.5h-0.1c0,0.1,0,0.3,0,0.6s0,0.6,0,1v13.6h-1.6
			V198h1.8l9.6,13.9c0.1,0.2,0.3,0.4,0.4,0.6c0.1,0.2,0.2,0.4,0.3,0.5h0.1c0-0.3-0.1-0.6-0.1-0.9c0-0.3,0-0.7,0-1.1v-13h1.6v17.5
			H317.9z"/>
		<path d="M324.6,199.9c-0.3,0-0.6-0.1-0.8-0.3c-0.2-0.2-0.3-0.5-0.3-0.8s0.1-0.6,0.3-0.8c0.2-0.2,0.5-0.3,0.8-0.3
			c0.2,0,0.3,0,0.4,0.1s0.3,0.1,0.4,0.2c0.1,0.1,0.2,0.2,0.2,0.3c0.1,0.1,0.1,0.3,0.1,0.4c0,0.2,0,0.3-0.1,0.4
			c-0.1,0.1-0.1,0.3-0.2,0.4c-0.1,0.1-0.2,0.2-0.4,0.2C324.9,199.9,324.8,199.9,324.6,199.9z M323.9,215.5V203h1.6v12.5H323.9z"/>
		<path d="M339.8,214.6c0,2.3-0.5,4-1.6,5.2c-1.1,1.1-2.7,1.7-4.9,1.7c-1.4,0-2.7-0.3-3.9-0.9V219c1.4,0.8,2.7,1.1,3.9,1.1
			c3.3,0,4.9-1.7,4.9-5.2v-1.5l0,0c-1,1.6-2.4,2.5-4.4,2.5c-0.8,0-1.5-0.1-2.1-0.4c-0.6-0.3-1.2-0.7-1.6-1.2c-0.5-0.5-0.8-1.2-1.1-2
			c-0.3-0.8-0.4-1.6-0.4-2.6s0.1-2,0.4-2.8s0.7-1.6,1.1-2.2c0.5-0.6,1.1-1.1,1.8-1.4c0.7-0.3,1.5-0.5,2.4-0.5c1.8,0,3.1,0.7,3.9,2.1
			l0,0V203h1.6L339.8,214.6L339.8,214.6z M338.2,207.9c0-0.5-0.1-1-0.3-1.5c-0.2-0.5-0.4-0.9-0.8-1.2c-0.3-0.3-0.7-0.6-1.2-0.8
			s-1-0.3-1.5-0.3c-0.7,0-1.2,0.1-1.8,0.4c-0.5,0.3-1,0.6-1.3,1.1c-0.4,0.5-0.7,1-0.9,1.7c-0.2,0.7-0.3,1.4-0.3,2.2s0.1,1.5,0.3,2.1
			c0.2,0.6,0.5,1.1,0.8,1.6c0.3,0.4,0.8,0.8,1.2,1c0.5,0.2,1,0.4,1.6,0.4s1.2-0.1,1.7-0.3s0.9-0.5,1.3-0.9s0.6-0.9,0.8-1.4
			c0.2-0.5,0.3-1.1,0.3-1.7L338.2,207.9L338.2,207.9z"/>
		<path d="M352.2,215.5v-7.3c0-1.4-0.3-2.4-0.8-3.1c-0.5-0.7-1.3-1-2.4-1c-0.5,0-1,0.1-1.4,0.3c-0.5,0.2-0.9,0.5-1.2,0.9
			s-0.6,0.8-0.8,1.4c-0.2,0.5-0.3,1.2-0.3,1.9v7h-1.6V197h1.6v8.2l0,0c1-1.6,2.4-2.5,4.2-2.5c1.4,0,2.4,0.4,3.1,1.3
			c0.7,0.9,1,2.1,1,3.8v7.7H352.2z"/>
		<path d="M362.9,215.4c-0.5,0.3-1.1,0.4-1.8,0.4c-2,0-3-1.2-3-3.5v-7.9H356V203h2.2v-3.1l1.6-0.5v3.7h3.2v1.4h-3.2v7.7
			c0,0.8,0.1,1.5,0.4,1.8c0.3,0.4,0.7,0.6,1.4,0.6c0.5,0,1-0.1,1.4-0.4v1.2H362.9z"/>
		<path d="M365.5,215.5V197h1.6v18.5H365.5z"/>
		<path d="M374.7,217.8c-0.5,1.2-1,2.1-1.7,2.7s-1.4,0.9-2.3,0.9c-0.4,0-0.8-0.1-1.1-0.2v-1.5c0.2,0.1,0.4,0.1,0.5,0.1
			c0.2,0,0.4,0,0.6,0c0.5,0,1-0.2,1.3-0.5c0.4-0.3,0.7-0.8,1-1.5l1.1-2.6l-4.8-12.4h1.7l3.6,9.9c0,0.1,0.1,0.3,0.1,0.4
			c0,0.2,0.1,0.3,0.1,0.5h0.1c0-0.1,0.1-0.3,0.1-0.4c0-0.1,0.1-0.3,0.2-0.5l3.8-9.9h1.6L374.7,217.8z"/>
		<path d="M391.2,213.5v2h-1.6V197h1.6v8.4l0,0c0.5-0.9,1.1-1.5,1.9-2s1.7-0.7,2.6-0.7c0.8,0,1.5,0.1,2.1,0.4s1.2,0.7,1.6,1.2
			s0.8,1.2,1,1.9c0.2,0.8,0.3,1.6,0.3,2.5c0,1-0.1,2-0.4,2.8c-0.3,0.9-0.6,1.6-1.1,2.2s-1.1,1.1-1.8,1.4c-0.7,0.3-1.5,0.5-2.3,0.5
			C393.5,215.8,392.1,215.1,391.2,213.5L391.2,213.5z M391.2,210.3c0,0.6,0.1,1.1,0.3,1.6c0.2,0.5,0.5,0.9,0.8,1.3
			c0.3,0.4,0.8,0.7,1.2,0.9c0.5,0.2,1,0.3,1.6,0.3s1.2-0.1,1.7-0.4c0.5-0.3,0.9-0.6,1.3-1.1s0.6-1.1,0.8-1.8s0.3-1.5,0.3-2.3
			c0-0.7-0.1-1.4-0.3-2c-0.2-0.6-0.4-1.1-0.8-1.5c-0.3-0.4-0.7-0.7-1.2-1c-0.5-0.2-1-0.3-1.6-0.3c-0.7,0-1.2,0.1-1.8,0.4
			c-0.5,0.2-1,0.6-1.3,1c-0.4,0.4-0.6,0.9-0.8,1.5c-0.2,0.6-0.3,1.1-0.3,1.8L391.2,210.3L391.2,210.3z"/>
		<path d="M412.2,215.5v-2.1l0,0c-0.8,1.6-2.2,2.4-3.9,2.4c-3,0-4.5-1.8-4.5-5.4V203h1.6v7.1c0,1.5,0.3,2.6,0.8,3.3s1.3,1.1,2.4,1.1
			c0.5,0,1-0.1,1.5-0.3c0.4-0.2,0.8-0.5,1.1-0.9c0.3-0.4,0.6-0.8,0.8-1.4c0.2-0.5,0.3-1.1,0.3-1.8V203h1.6v12.5H412.2z"/>
		<path d="M418.5,199.9c-0.3,0-0.6-0.1-0.8-0.3c-0.2-0.2-0.3-0.5-0.3-0.8s0.1-0.6,0.3-0.8c0.2-0.2,0.5-0.3,0.8-0.3
			c0.2,0,0.3,0,0.4,0.1s0.3,0.1,0.4,0.2s0.2,0.2,0.2,0.3c0.1,0.1,0.1,0.3,0.1,0.4c0,0.2,0,0.3-0.1,0.4c-0.1,0.1-0.1,0.3-0.2,0.4
			c-0.1,0.1-0.2,0.2-0.4,0.2C418.9,199.9,418.7,199.9,418.5,199.9z M417.8,215.5V203h1.6v12.5H417.8z"/>
		<path d="M423.4,215.5V197h1.6v18.5H423.4z"/>
		<path d="M437.7,215.5v-2.2l0,0c-0.4,0.8-1,1.4-1.8,1.8c-0.8,0.4-1.6,0.7-2.6,0.7c-0.8,0-1.5-0.1-2.1-0.4c-0.6-0.3-1.2-0.7-1.6-1.3
			s-0.8-1.2-1.1-2s-0.4-1.6-0.4-2.6s0.1-1.9,0.4-2.8c0.3-0.8,0.7-1.5,1.2-2.1s1.1-1.1,1.8-1.4c0.7-0.3,1.5-0.5,2.3-0.5
			c1.8,0,3.1,0.7,3.9,2.2l0,0V197h1.6v18.5H437.7z M437.7,208c0-0.5-0.1-1.1-0.3-1.5c-0.2-0.5-0.4-0.9-0.8-1.2s-0.7-0.6-1.2-0.8
			s-1-0.3-1.5-0.3c-0.6,0-1.2,0.1-1.7,0.4c-0.5,0.2-1,0.6-1.3,1.1s-0.7,1-0.9,1.7c-0.2,0.7-0.3,1.4-0.3,2.2s0.1,1.5,0.3,2.1
			c0.2,0.6,0.5,1.2,0.8,1.6c0.3,0.4,0.8,0.8,1.2,1c0.5,0.2,1,0.3,1.6,0.3s1.2-0.1,1.7-0.3s0.9-0.5,1.3-0.9s0.6-0.9,0.8-1.4
			s0.3-1.1,0.3-1.7V208z"/>
		<path d="M442.6,213.3c0.2,0.2,0.5,0.4,0.8,0.5s0.6,0.3,0.9,0.4s0.6,0.2,0.9,0.2c0.3,0.1,0.6,0.1,0.8,0.1c1.9,0,2.8-0.7,2.8-2.1
			c0-0.3-0.1-0.6-0.2-0.8s-0.3-0.4-0.6-0.6s-0.5-0.4-0.9-0.5s-0.7-0.3-1.2-0.5c-0.6-0.2-1.1-0.5-1.5-0.7s-0.8-0.5-1-0.8
			s-0.5-0.6-0.6-1s-0.2-0.7-0.2-1.2c0-0.6,0.1-1,0.4-1.5s0.6-0.8,1-1.1s0.9-0.5,1.4-0.7s1.1-0.2,1.7-0.2c1.1,0,2,0.2,2.8,0.6v1.6
			c-0.9-0.6-1.9-0.9-3-0.9c-0.4,0-0.7,0-1.1,0.1c-0.3,0.1-0.6,0.2-0.8,0.4c-0.2,0.2-0.4,0.4-0.5,0.6s-0.2,0.5-0.2,0.8s0,0.6,0.1,0.8
			s0.2,0.4,0.5,0.6c0.2,0.2,0.5,0.4,0.8,0.5c0.3,0.2,0.7,0.4,1.2,0.5c0.6,0.2,1.1,0.5,1.6,0.7s0.8,0.5,1.1,0.8
			c0.3,0.3,0.5,0.6,0.6,0.9c0.1,0.3,0.2,0.7,0.2,1.2c0,0.6-0.1,1.1-0.3,1.5c-0.2,0.4-0.6,0.8-1,1.1s-0.9,0.5-1.4,0.7
			c-0.6,0.2-1.2,0.2-1.8,0.2c-1.3,0-2.3-0.3-3.2-0.8L442.6,213.3L442.6,213.3z"/>
	</g>
	<g>
		<path d="M496.8,213c0.3,0.2,0.6,0.4,1,0.6c0.4,0.2,0.7,0.3,1.1,0.4c0.4,0.1,0.7,0.2,1.1,0.3s0.7,0.1,1.1,0.1c1.3,0,2.3-0.3,3-0.8
			s1-1.2,1-2.2c0-0.5-0.1-0.9-0.2-1.2c-0.2-0.3-0.4-0.7-0.7-1c-0.3-0.3-0.7-0.6-1.2-0.9s-1.1-0.6-1.8-1c-0.7-0.4-1.4-0.8-1.9-1.2
			s-1-0.7-1.3-1.1c-0.3-0.4-0.6-0.8-0.7-1.2c-0.2-0.4-0.2-0.9-0.2-1.5c0-0.7,0.2-1.3,0.5-1.9s0.7-1,1.2-1.4s1.1-0.7,1.8-0.9
			s1.4-0.3,2.2-0.3c1.4,0,2.5,0.2,3.5,0.6v1.8c-1-0.6-2.2-0.9-3.6-0.9c-0.5,0-1,0.1-1.5,0.2c-0.5,0.1-0.9,0.3-1.2,0.6
			s-0.6,0.5-0.8,0.9c-0.2,0.4-0.3,0.8-0.3,1.3s0.1,0.8,0.2,1.2c0.1,0.3,0.4,0.6,0.6,0.9s0.7,0.6,1.2,0.9c0.5,0.3,1.1,0.6,1.8,1
			c0.7,0.4,1.4,0.8,1.9,1.1s1,0.8,1.4,1.2s0.6,0.8,0.8,1.3c0.2,0.5,0.3,1,0.3,1.5c0,0.8-0.1,1.4-0.4,2s-0.7,1.1-1.2,1.4
			c-0.5,0.4-1.1,0.7-1.8,0.9s-1.5,0.3-2.3,0.3c-0.3,0-0.6,0-1-0.1c-0.4,0-0.8-0.1-1.2-0.2c-0.4-0.1-0.8-0.2-1.1-0.3
			c-0.4-0.1-0.6-0.2-0.9-0.4v-2H496.8z"/>
		<path d="M510.9,199.9c-0.3,0-0.6-0.1-0.8-0.3c-0.2-0.2-0.3-0.5-0.3-0.8s0.1-0.6,0.3-0.8c0.2-0.2,0.5-0.3,0.8-0.3
			c0.2,0,0.3,0,0.4,0.1s0.3,0.1,0.4,0.2c0.1,0.1,0.2,0.2,0.2,0.3c0.1,0.1,0.1,0.3,0.1,0.4c0,0.2,0,0.3-0.1,0.4
			c-0.1,0.1-0.1,0.3-0.2,0.4c-0.1,0.1-0.2,0.2-0.4,0.2C511.2,199.9,511,199.9,510.9,199.9z M510.1,215.5V203h1.6v12.5H510.1z"/>
		<path d="M524.5,215.5v-2.2l0,0c-0.4,0.8-1,1.4-1.8,1.8c-0.8,0.4-1.6,0.7-2.6,0.7c-0.8,0-1.5-0.1-2.1-0.4c-0.6-0.3-1.2-0.7-1.6-1.3
			c-0.5-0.5-0.8-1.2-1.1-2c-0.2-0.8-0.4-1.6-0.4-2.6s0.1-1.9,0.4-2.8c0.3-0.8,0.7-1.5,1.2-2.1s1.1-1.1,1.8-1.4
			c0.7-0.3,1.5-0.5,2.3-0.5c1.8,0,3.1,0.7,3.9,2.2l0,0V197h1.6v18.5H524.5z M524.5,208c0-0.5-0.1-1.1-0.3-1.5
			c-0.2-0.5-0.4-0.9-0.8-1.2c-0.3-0.3-0.7-0.6-1.2-0.8s-1-0.3-1.5-0.3c-0.6,0-1.2,0.1-1.7,0.4s-1,0.6-1.3,1.1
			c-0.4,0.5-0.7,1-0.9,1.7s-0.3,1.4-0.3,2.2s0.1,1.5,0.3,2.1s0.5,1.2,0.8,1.6c0.3,0.4,0.8,0.8,1.2,1s1,0.3,1.6,0.3s1.2-0.1,1.7-0.3
			s0.9-0.5,1.3-0.9c0.4-0.4,0.6-0.9,0.8-1.4s0.3-1.1,0.3-1.7L524.5,208L524.5,208z"/>
		<path d="M530.8,209.6c0,0.8,0.1,1.5,0.3,2.1s0.5,1.1,0.8,1.6c0.4,0.4,0.8,0.7,1.3,1c0.5,0.2,1.1,0.3,1.8,0.3c1.4,0,2.7-0.5,4-1.5
			v1.5c-1.2,0.9-2.6,1.3-4.3,1.3c-0.8,0-1.6-0.1-2.3-0.4s-1.3-0.7-1.7-1.3c-0.5-0.6-0.9-1.2-1.1-2.1c-0.3-0.8-0.4-1.7-0.4-2.8
			c0-0.9,0.1-1.8,0.4-2.6c0.3-0.8,0.7-1.5,1.2-2.1s1.1-1,1.8-1.4c0.7-0.3,1.4-0.5,2.3-0.5c0.8,0,1.5,0.1,2.1,0.4
			c0.6,0.3,1.1,0.7,1.6,1.2c0.4,0.5,0.7,1.2,1,1.9c0.2,0.7,0.3,1.6,0.3,2.5v0.8h-9.1V209.6z M538.2,208.2c0-1.3-0.3-2.3-0.9-3
			c-0.6-0.7-1.4-1.1-2.5-1.1c-0.5,0-1,0.1-1.5,0.3s-0.8,0.5-1.2,0.8c-0.3,0.4-0.6,0.8-0.8,1.3s-0.4,1.1-0.5,1.7H538.2z"/>
		<path d="M542.6,209.1v-1.3h6.7v1.3H542.6z"/>
		<path d="M554.4,213.5v2h-1.6V197h1.6v8.4l0,0c0.5-0.9,1.1-1.5,1.9-2c0.8-0.5,1.7-0.7,2.6-0.7c0.8,0,1.5,0.1,2.1,0.4
			c0.6,0.3,1.2,0.7,1.6,1.2s0.8,1.2,1,1.9c0.2,0.8,0.3,1.6,0.3,2.5c0,1-0.1,2-0.4,2.8c-0.3,0.9-0.6,1.6-1.1,2.2s-1.1,1.1-1.8,1.4
			c-0.7,0.3-1.5,0.5-2.3,0.5C556.7,215.8,555.4,215.1,554.4,213.5L554.4,213.5z M554.4,210.3c0,0.6,0.1,1.1,0.3,1.6s0.5,0.9,0.8,1.3
			c0.3,0.4,0.8,0.7,1.2,0.9c0.5,0.2,1,0.3,1.6,0.3s1.2-0.1,1.7-0.4s0.9-0.6,1.3-1.1c0.4-0.5,0.6-1.1,0.8-1.8s0.3-1.5,0.3-2.3
			c0-0.7-0.1-1.4-0.3-2s-0.4-1.1-0.8-1.5c-0.3-0.4-0.7-0.7-1.2-1s-1-0.3-1.6-0.3c-0.7,0-1.2,0.1-1.8,0.4c-0.5,0.2-1,0.6-1.3,1
			c-0.4,0.4-0.6,0.9-0.8,1.5s-0.3,1.1-0.3,1.8L554.4,210.3L554.4,210.3z"/>
		<path d="M570.8,217.8c-0.5,1.2-1,2.1-1.7,2.7s-1.4,0.9-2.3,0.9c-0.4,0-0.8-0.1-1.1-0.2v-1.5c0.2,0.1,0.4,0.1,0.5,0.1
			c0.2,0,0.4,0,0.6,0c0.5,0,1-0.2,1.3-0.5c0.4-0.3,0.7-0.8,1-1.5l1.1-2.6l-4.8-12.4h1.7l3.6,9.9c0,0.1,0.1,0.3,0.1,0.4
			c0,0.2,0.1,0.3,0.1,0.5h0.1c0-0.1,0.1-0.3,0.1-0.4c0-0.1,0.1-0.3,0.2-0.5l3.8-9.9h1.6L570.8,217.8z"/>
		<path d="M578.7,209.1v-1.3h6.7v1.3H578.7z"/>
		<path d="M588.2,213.3c0.2,0.2,0.5,0.4,0.8,0.5s0.6,0.3,0.9,0.4s0.6,0.2,0.9,0.2s0.6,0.1,0.8,0.1c1.9,0,2.8-0.7,2.8-2.1
			c0-0.3-0.1-0.6-0.2-0.8c-0.1-0.2-0.3-0.4-0.6-0.6s-0.5-0.4-0.9-0.5s-0.7-0.3-1.2-0.5c-0.6-0.2-1.1-0.5-1.5-0.7s-0.8-0.5-1-0.8
			s-0.5-0.6-0.6-1c-0.1-0.3-0.2-0.7-0.2-1.2c0-0.6,0.1-1,0.4-1.5c0.2-0.4,0.6-0.8,1-1.1s0.9-0.5,1.4-0.7s1.1-0.2,1.7-0.2
			c1.1,0,2,0.2,2.8,0.6v1.6c-0.9-0.6-1.9-0.9-3-0.9c-0.4,0-0.7,0-1.1,0.1s-0.6,0.2-0.8,0.4s-0.4,0.4-0.5,0.6
			c-0.1,0.2-0.2,0.5-0.2,0.8s0,0.6,0.1,0.8s0.2,0.4,0.5,0.6c0.2,0.2,0.5,0.4,0.8,0.5c0.3,0.2,0.7,0.4,1.2,0.5
			c0.6,0.2,1.1,0.5,1.6,0.7s0.8,0.5,1.1,0.8s0.5,0.6,0.6,0.9c0.1,0.3,0.2,0.7,0.2,1.2c0,0.6-0.1,1.1-0.3,1.5s-0.6,0.8-1,1.1
			s-0.9,0.5-1.4,0.7c-0.6,0.2-1.2,0.2-1.8,0.2c-1.3,0-2.3-0.3-3.2-0.8L588.2,213.3L588.2,213.3z"/>
		<path d="M599.8,199.9c-0.3,0-0.6-0.1-0.8-0.3s-0.3-0.5-0.3-0.8s0.1-0.6,0.3-0.8s0.5-0.3,0.8-0.3c0.2,0,0.3,0,0.4,0.1
			c0.1,0.1,0.3,0.1,0.4,0.2c0.1,0.1,0.2,0.2,0.2,0.3c0.1,0.1,0.1,0.3,0.1,0.4c0,0.2,0,0.3-0.1,0.4c-0.1,0.1-0.1,0.3-0.2,0.4
			c-0.1,0.1-0.2,0.2-0.4,0.2C600.1,199.9,600,199.9,599.8,199.9z M599.1,215.5V203h1.6v12.5H599.1z"/>
		<path d="M613.4,215.5v-2.2l0,0c-0.4,0.8-1,1.4-1.8,1.8c-0.8,0.4-1.6,0.7-2.6,0.7c-0.8,0-1.5-0.1-2.1-0.4c-0.6-0.3-1.2-0.7-1.6-1.3
			c-0.5-0.5-0.8-1.2-1.1-2c-0.2-0.8-0.4-1.6-0.4-2.6s0.1-1.9,0.4-2.8c0.3-0.8,0.7-1.5,1.2-2.1s1.1-1.1,1.8-1.4
			c0.7-0.3,1.5-0.5,2.3-0.5c1.8,0,3.1,0.7,3.9,2.2l0,0V197h1.6v18.5H613.4z M613.4,208c0-0.5-0.1-1.1-0.3-1.5
			c-0.2-0.5-0.4-0.9-0.8-1.2c-0.3-0.3-0.7-0.6-1.2-0.8s-1-0.3-1.5-0.3c-0.6,0-1.2,0.1-1.7,0.4s-1,0.6-1.3,1.1
			c-0.4,0.5-0.7,1-0.9,1.7s-0.3,1.4-0.3,2.2s0.1,1.5,0.3,2.1s0.5,1.2,0.8,1.6c0.3,0.4,0.8,0.8,1.2,1s1,0.3,1.6,0.3s1.2-0.1,1.7-0.3
			s0.9-0.5,1.3-0.9c0.4-0.4,0.6-0.9,0.8-1.4s0.3-1.1,0.3-1.7L613.4,208L613.4,208z"/>
		<path d="M619.7,209.6c0,0.8,0.1,1.5,0.3,2.1s0.5,1.1,0.8,1.6c0.4,0.4,0.8,0.7,1.3,1c0.5,0.2,1.1,0.3,1.8,0.3c1.4,0,2.7-0.5,4-1.5
			v1.5c-1.2,0.9-2.6,1.3-4.3,1.3c-0.8,0-1.6-0.1-2.3-0.4s-1.3-0.7-1.7-1.3c-0.5-0.6-0.9-1.2-1.1-2.1c-0.3-0.8-0.4-1.7-0.4-2.8
			c0-0.9,0.1-1.8,0.4-2.6c0.3-0.8,0.7-1.5,1.2-2.1s1.1-1,1.8-1.4c0.7-0.3,1.4-0.5,2.3-0.5c0.8,0,1.5,0.1,2.1,0.4
			c0.6,0.3,1.1,0.7,1.6,1.2c0.4,0.5,0.7,1.2,1,1.9c0.2,0.7,0.3,1.6,0.3,2.5v0.8h-9.1V209.6z M627.2,208.2c0-1.3-0.3-2.3-0.9-3
			c-0.6-0.7-1.4-1.1-2.5-1.1c-0.5,0-1,0.1-1.5,0.3s-0.8,0.5-1.2,0.8c-0.3,0.4-0.6,0.8-0.8,1.3s-0.4,1.1-0.5,1.7H627.2z"/>
		<path d="M639.5,199.9c-0.3,0-0.6-0.1-0.8-0.3s-0.3-0.5-0.3-0.8s0.1-0.6,0.3-0.8s0.5-0.3,0.8-0.3c0.2,0,0.3,0,0.4,0.1
			s0.3,0.1,0.4,0.2s0.2,0.2,0.2,0.3c0.1,0.1,0.1,0.3,0.1,0.4c0,0.2,0,0.3-0.1,0.4c-0.1,0.1-0.1,0.3-0.2,0.4
			c-0.1,0.1-0.2,0.2-0.4,0.2C639.8,199.9,639.6,199.9,639.5,199.9z M638.7,215.5V203h1.6v12.5H638.7z"/>
		<path d="M652.7,215.5v-7.2c0-2.8-1-4.2-3.1-4.2c-0.5,0-1,0.1-1.5,0.3s-0.9,0.5-1.2,0.9s-0.6,0.8-0.8,1.4c-0.2,0.5-0.3,1.1-0.3,1.7
			v7.2h-1.6V203h1.6v2.2l0,0c0.9-1.6,2.3-2.5,4.2-2.5c1.4,0,2.4,0.4,3.1,1.3c0.7,0.9,1.1,2.2,1.1,3.8v7.6L652.7,215.5L652.7,215.5z"
			/>
		<path d="M657.3,213.3c0.2,0.2,0.5,0.4,0.8,0.5s0.6,0.3,0.9,0.4s0.6,0.2,0.9,0.2s0.6,0.1,0.8,0.1c1.9,0,2.8-0.7,2.8-2.1
			c0-0.3-0.1-0.6-0.2-0.8c-0.1-0.2-0.3-0.4-0.6-0.6s-0.5-0.4-0.9-0.5s-0.7-0.3-1.2-0.5c-0.6-0.2-1.1-0.5-1.5-0.7s-0.8-0.5-1-0.8
			s-0.5-0.6-0.6-1c-0.1-0.3-0.2-0.7-0.2-1.2c0-0.6,0.1-1,0.4-1.5c0.2-0.4,0.6-0.8,1-1.1s0.9-0.5,1.4-0.7s1.1-0.2,1.7-0.2
			c1.1,0,2,0.2,2.8,0.6v1.6c-0.9-0.6-1.9-0.9-3-0.9c-0.4,0-0.7,0-1.1,0.1s-0.6,0.2-0.8,0.4s-0.4,0.4-0.5,0.6
			c-0.1,0.2-0.2,0.5-0.2,0.8s0,0.6,0.1,0.8s0.2,0.4,0.5,0.6c0.2,0.2,0.5,0.4,0.8,0.5c0.3,0.2,0.7,0.4,1.2,0.5
			c0.6,0.2,1.1,0.5,1.6,0.7s0.8,0.5,1.1,0.8s0.5,0.6,0.6,0.9c0.1,0.3,0.2,0.7,0.2,1.2c0,0.6-0.1,1.1-0.3,1.5s-0.6,0.8-1,1.1
			s-0.9,0.5-1.4,0.7c-0.6,0.2-1.2,0.2-1.8,0.2c-1.3,0-2.3-0.3-3.2-0.8L657.3,213.3L657.3,213.3z"/>
		<path d="M673.6,215.4c-0.5,0.3-1.1,0.4-1.8,0.4c-2,0-3-1.2-3-3.5v-7.9h-2.2V203h2.2v-3.1l1.6-0.5v3.7h3.2v1.4h-3.2v7.7
			c0,0.8,0.1,1.5,0.4,1.8c0.3,0.4,0.7,0.6,1.4,0.6c0.5,0,1-0.1,1.4-0.4L673.6,215.4L673.6,215.4z"/>
		<path d="M683.3,215.5v-2.2l0,0c-0.4,0.8-1,1.4-1.7,1.9c-0.7,0.4-1.5,0.7-2.4,0.7c-0.6,0-1.1-0.1-1.6-0.3s-0.9-0.4-1.2-0.7
			s-0.6-0.7-0.8-1.1c-0.2-0.4-0.3-0.9-0.3-1.5c0-1.1,0.3-2,1-2.7s1.8-1.1,3.2-1.3l3.8-0.5c0-2.4-0.9-3.6-2.8-3.6
			c-1.5,0-2.8,0.5-4.1,1.6V204c0.3-0.2,0.6-0.4,0.9-0.5c0.3-0.2,0.7-0.3,1-0.4c0.4-0.1,0.7-0.2,1.1-0.3c0.4-0.1,0.8-0.1,1.1-0.1
			c1.4,0,2.4,0.4,3.2,1.2s1.1,1.9,1.1,3.5v8.1H683.3z M680.1,209.5c-0.6,0.1-1,0.2-1.4,0.3s-0.7,0.3-1,0.5s-0.5,0.5-0.6,0.8
			s-0.2,0.7-0.2,1.1c0,0.3,0.1,0.6,0.2,0.9c0.1,0.3,0.3,0.5,0.5,0.7s0.5,0.4,0.8,0.5s0.7,0.2,1.1,0.2c0.6,0,1.1-0.1,1.5-0.3
			s0.9-0.5,1.2-0.9s0.6-0.8,0.8-1.3s0.3-1.1,0.3-1.7V209L680.1,209.5z"/>
		<path d="M688.7,215.5V197h1.6v18.5H688.7z"/>
		<path d="M694.3,215.5V197h1.6v18.5H694.3z"/>
	</g>
</g>
<line class="st3" x1="0" y1="5.1" x2="750" y2="5.1"/>
<line class="st3" x1="0" y1="273.7" x2="750" y2="273.7"/>
</svg>
