<svg width="155" height="144" viewBox="0 0 155 144" fill="none" xmlns="http://www.w3.org/2000/svg">
<path d="M110.73 34.0139C110.73 52.5445 95.7048 67.581 77.1742 67.581C58.6319 67.581 43.607 52.5562 43.607 34.0139C43.607 15.4716 58.6319 0.446716 77.1742 0.446716C95.7048 0.446716 110.73 15.4716 110.73 34.0139ZM33.5671 75.967C15.0365 75.967 0 90.9919 0 109.523C0 128.053 15.0248 143.09 33.5671 143.09C52.1094 143.09 67.1343 128.065 67.1343 109.523C67.1343 90.9919 52.1094 75.967 33.5671 75.967ZM120.77 75.967C102.227 75.967 87.2024 90.9919 87.2024 109.534C87.2024 128.076 102.227 143.101 120.77 143.101C139.3 143.101 154.337 128.076 154.337 109.534C154.337 90.9919 139.312 75.967 120.77 75.967Z" fill="#FF584A"/>
</svg>
