<svg width="450" height="450" viewBox="0 0 450 450" fill="none" xmlns="http://www.w3.org/2000/svg">
<rect width="450" height="450" rx="38" fill="#009865"/>
<path d="M170.502 243.858C170.502 279.979 155.882 310.137 132.082 337.909H187.502V364.83H102.502V339.272C128.512 309.796 138.542 285.772 138.542 243.858H170.502Z" fill="white"/>
<path d="M280.499 243.858C280.499 279.979 295.119 310.137 318.919 337.909H263.499V364.83H348.499V339.272C322.489 309.796 312.459 285.772 312.459 243.858H280.499Z" fill="white"/>
<path d="M170.502 203.444C170.502 167.323 155.882 137.165 132.082 109.393H187.502V82.4724L102.502 82.4724V108.03C128.512 137.506 138.542 161.53 138.542 203.444H170.502Z" fill="white"/>
<path d="M280.499 203.444C280.499 167.323 295.119 137.165 318.919 109.393H263.499L263.499 82.4724L348.499 82.4724V108.03C322.489 137.506 312.459 161.53 312.459 203.444H280.499Z" fill="white"/>
</svg>
