<svg viewBox="0 0 256 256" xmlns="http://www.w3.org/2000/svg" width="256" height="256" preserveAspectRatio="xMidYMid"><defs><linearGradient id="a" x1="100%" x2="12.069%" y1="100%" y2="0%"><stop offset="0%" stop-color="#62F755"/><stop offset="100%" stop-color="#8FF986" stop-opacity="0"/></linearGradient><linearGradient id="b" x1="100%" x2="40.603%" y1="100%" y2="76.897%"><stop offset="0%" stop-opacity=".9"/><stop offset="100%" stop-color="#1A1A1A" stop-opacity="0"/></linearGradient></defs><path fill="#00E0D9" d="M0 44.139C0 19.762 19.762 0 44.139 0H211.86C236.238 0 256 19.762 256 44.139v142.649c0 25.216-31.915 36.16-47.388 16.256l-48.392-62.251v75.484c0 21.939-17.784 39.723-39.722 39.723h-76.36C19.763 256 0 236.238 0 211.861V44.14Zm44.139-8.825c-4.879 0-8.825 3.946-8.825 8.818v167.73c0 4.878 3.946 8.831 8.818 8.831h77.688c2.44 0 3.087-1.977 3.087-4.416v-101.22c0-25.222 31.914-36.166 47.395-16.255l48.391 62.243V44.14c0-4.879.455-8.825-4.416-8.825H44.14Z"/><path fill="url(#a)" d="M0 44.139C0 19.762 19.762 0 44.139 0H211.86C236.238 0 256 19.762 256 44.139v142.649c0 25.216-31.915 36.16-47.388 16.256l-48.392-62.251v75.484c0 21.939-17.784 39.723-39.722 39.723h-76.36C19.763 256 0 236.238 0 211.861V44.14Zm44.139-8.825c-4.879 0-8.825 3.946-8.825 8.818v167.73c0 4.878 3.946 8.831 8.818 8.831h77.688c2.44 0 3.087-1.977 3.087-4.416v-101.22c0-25.222 31.914-36.166 47.395-16.255l48.391 62.243V44.14c0-4.879.455-8.825-4.416-8.825H44.14Z"/><path fill="url(#b)" fill-opacity=".4" d="M0 44.139C0 19.762 19.762 0 44.139 0H211.86C236.238 0 256 19.762 256 44.139v142.649c0 25.216-31.915 36.16-47.388 16.256l-48.392-62.251v75.484c0 21.939-17.784 39.723-39.722 39.723h-76.36C19.763 256 0 236.238 0 211.861V44.14Zm44.139-8.825c-4.879 0-8.825 3.946-8.825 8.818v167.73c0 4.878 3.946 8.831 8.818 8.831h77.688c2.44 0 3.087-1.977 3.087-4.416v-101.22c0-25.222 31.914-36.166 47.395-16.255l48.391 62.243V44.14c0-4.879.455-8.825-4.416-8.825H44.14Z"/><path fill="#63F655" d="M211.861 0C236.238 0 256 19.762 256 44.139v142.649c0 25.216-31.915 36.16-47.388 16.256l-48.392-62.251v75.484c0 21.939-17.784 39.723-39.722 39.723a4.409 4.409 0 0 0 4.409-4.409V115.058c0-25.223 31.914-36.167 47.395-16.256l48.391 62.243V8.825c0-4.871-3.953-8.825-8.832-8.825Z"/></svg>