<svg xmlns="http://www.w3.org/2000/svg" width="256" height="227" preserveAspectRatio="xMidYMid" viewBox="0 0 256 227"><path fill="#362D59" d="M148.368 12.403a23.935 23.935 0 0 0-41.003 0L73.64 70.165c52.426 26.174 87.05 78.177 90.975 136.642h-23.679c-3.918-50.113-34.061-94.41-79.238-116.448l-31.213 53.97a81.595 81.595 0 0 1 47.307 62.375h-54.38a3.895 3.895 0 0 1-3.178-5.69l15.069-25.626a55.046 55.046 0 0 0-17.221-9.738L3.167 191.277a23.269 23.269 0 0 0 8.662 31.982 23.884 23.884 0 0 0 11.583 3.075h74.471a99.432 99.432 0 0 0-41.003-88.72l11.84-20.5c35.679 24.504 55.754 66.038 52.79 109.22h63.094c2.99-65.43-29.047-127.512-84.107-162.986l23.935-41.002a3.947 3.947 0 0 1 5.382-1.384c2.716 1.486 103.993 178.208 105.89 180.258a3.895 3.895 0 0 1-3.486 5.792h-24.396c.307 6.526.307 13.035 0 19.528h24.499A23.528 23.528 0 0 0 256 202.91a23.015 23.015 0 0 0-3.178-11.685L148.368 12.403Z"/></svg>