<svg width="166" height="64" viewBox="0 0 166 64" fill="none" xmlns="http://www.w3.org/2000/svg">
<g clip-path="url(#clip0_14654_9889)">
<path d="M165.304 0H156.173C153.64 0 151.273 1.25433 149.85 3.35199L137.639 21.3662C137.313 21.844 136.608 21.844 136.283 21.3662L124.071 3.35199C122.651 1.25433 120.281 0 117.748 0H108.617L130.371 32.0894L108.737 64H117.868C120.401 64 122.769 62.7457 124.192 60.648L136.283 42.8126C136.608 42.3349 137.313 42.3349 137.639 42.8126L149.73 60.648C151.15 62.7457 153.52 64 156.053 64H165.184L143.551 32.0894L165.304 0Z" fill="white"/>
<path d="M89.8281 6.54652V64H94.1922C97.8088 64 100.74 61.0697 100.74 57.4535V0H96.3755C92.7588 0 89.8281 2.93032 89.8281 6.54652Z" fill="white"/>
<path d="M81.8276 0H77.944C73.6681 0 69.9633 2.95701 69.0158 7.12564L60.3278 45.3185L52.7234 9.66632C51.3168 3.0771 44.5559 -1.36641 37.6375 0.544431C33.2307 1.76139 29.9637 5.48434 29.0108 9.95455L21.4839 45.2705L12.8118 7.12831C11.8616 2.95968 8.15687 0 3.88092 0H0L14.5548 63.9973H20.0692C25.0738 63.9973 29.3978 60.4986 30.4415 55.604L39.7461 11.9401C39.8608 11.3984 40.3466 11.006 40.8991 11.006C41.4516 11.006 41.9374 11.3984 42.0522 11.9401L51.3648 55.6067C52.4084 60.5012 56.7324 63.9973 61.7371 63.9973H67.2702L81.8276 0Z" fill="white"/>
</g>
<defs>
<clipPath id="clip0_14654_9889">
<rect width="165.305" height="64" fill="white"/>
</clipPath>
</defs>
</svg>
