<svg xmlns="http://www.w3.org/2000/svg" xmlns:xlink="http://www.w3.org/1999/xlink" viewBox="0 0 600 400"><defs><style>.a,.h,.i{fill:none;}.b,.x{fill:#b2d7f0;}.c{fill:#8bc3e8;}.d{fill:#709dbf;}.e{fill:#004b50;}.f{fill:#008272;}.ac,.g{fill:#fff;}.h,.i{stroke:#c5e1f3;stroke-miterlimit:10;stroke-width:2px;}.i{stroke-dasharray:9.016 16.028;}.j{fill:#628aaa;}.k{clip-path:url(#a);}.l,.z{fill:#ff8c00;}.m{fill:#c2c2c2;}.n{fill:#d2d2d2;}.o{fill:#262729;}.p{fill:#b2b2b2;}.q{fill:#505050;}.r{fill:#969696;}.s{fill:#dc3c00;}.t{clip-path:url(#c);}.u{fill:#dfdfdf;}.v{clip-path:url(#e);}.ag,.w{fill:#724aad;}.aa,.ac,.w,.x,.y,.z{fill-rule:evenodd;}.y{fill:#e81123;}.aa{fill:#fff100;}.ab{fill:#e6e6e6;}.ad{fill:#107c10;}.ae{fill:#65aa0d;}.af{fill:#3d1a68;}.ah{fill:#9c2801;}.ai{fill:#d83b01;}.aj{fill:#3c3c3c;}.ak{clip-path:url(#g);}.al{clip-path:url(#h);}.am{clip-path:url(#i);}.an{fill:#737373;}.ao{fill:#f57800;}.ap{fill:#020202;}.aq{fill:#212121;}.ar{fill:#666;}.as{fill:#0078d7;}.at{fill:#00188f;}.au{fill:#d91021;}.av{fill:#32145a;}.aw{fill:#f3f3f3;}.ax{fill:#939393;}.ay{fill:#ec6401;}.az{fill:#e24f01;}.ba{fill:#409ae1;}</style><clipPath id="a"><rect class="a" x="109.426" y="302.553" width="44.648" height="19.843"/></clipPath><clipPath id="c"><path class="a" d="M127.9,310.348a.745.745,0,0,1-.754-.742v-3.477a.75.75,0,0,1,.754-.742h6.177a1.735,1.735,0,0,1,1.169.579l3.175,3.8c.249.333.083.578-.249.578Z"/></clipPath><clipPath id="e"><path class="a" d="M126.435,309.607a.745.745,0,0,1-.754.742h-9.269a.428.428,0,0,1-.416-.66l2.42-3.722a1.58,1.58,0,0,1,1.088-.579h6.176a.75.75,0,0,1,.754.742Z"/></clipPath><clipPath id="g"><path class="a" d="M283.924,122.414h9.422a2.44,2.44,0,0,1,2.46,2.456v7.783H281.463v-7.783A2.349,2.349,0,0,1,283.924,122.414Z"/></clipPath><clipPath id="h"><rect class="a" x="232.624" y="97.487" width="70.864" height="35.025"/></clipPath><clipPath id="i"><path class="a" d="M246.823,122.414h9.424a2.432,2.432,0,0,1,2.46,2.456v7.783H244.364v-7.783A2.35,2.35,0,0,1,246.823,122.414Z"/></clipPath></defs><title>blog-vscode-roadmap</title><rect class="b" width="600" height="400"/><path class="c" d="M570.736,65.382,540.966,42.7v9.252H216.68a44.672,44.672,0,0,0,0,89.345H368.944a19.159,19.159,0,1,1,0,38.318H172.68a44.672,44.672,0,0,0,0,89.344H401.944a19.159,19.159,0,1,1,0,38.319H0V332.79H401.944a44.672,44.672,0,1,0,0-89.344H172.68a19.159,19.159,0,0,1,0-38.318H368.944a44.672,44.672,0,1,0,0-89.344H216.68a19.159,19.159,0,0,1,0-38.319H540.966v10.6Z"/><path class="d" d="M576.017,60.162,546.286,37.509v9.207H222.833c-24.515,0-44.984,19.466-45.345,43.978a44.7,44.7,0,0,0,44.642,45.317H373.841c10.425,0,19.261,8.158,19.558,18.58a19.156,19.156,0,0,1-19.127,19.69H178.685c-24.514,0-44.983,19.466-45.344,43.978a44.7,44.7,0,0,0,44.642,45.317H406.248c10.425,0,19.261,8.158,19.558,18.579a19.156,19.156,0,0,1-19.127,19.69H0v25.513H406.175c24.514,0,44.983-19.466,45.344-43.978a44.7,44.7,0,0,0-44.643-45.317H178.414c-10.425,0-19.261-8.158-19.558-18.58a19.155,19.155,0,0,1,19.126-19.69H373.57c24.514,0,44.983-19.466,45.344-43.978A44.7,44.7,0,0,0,374.272,110.5H222.736c-10.425,0-19.261-8.158-19.558-18.579A19.156,19.156,0,0,1,222.3,72.228H546.286V82.815Z"/><polygon class="e" points="218.446 342.919 217.419 343.946 190.718 346 188.123 342.433 203.042 323.971 218.446 342.919"/><circle class="f" cx="203.042" cy="358.324" r="21.785"/><path class="g" d="M210.483,349.035H196.309v7.087h14.174Zm-1.417,5.67H197.726v-4.252h11.339Zm1.417,2.835H196.309v7.087h14.174Zm-1.417,5.67H197.726v-4.252h11.339ZM193.474,346.2v22.678h19.843V346.2ZM211.9,367.461H194.892V347.618H211.9Z"/><line class="h" y1="315.408" x2="4.5" y2="315.408"/><path class="i" d="M20.528,315.408H408.12a31.916,31.916,0,0,0,0-63.831H178.855a31.916,31.916,0,1,1,0-63.831H375.12a31.916,31.916,0,0,0,0-63.831H222.855a31.916,31.916,0,1,1,0-63.831H551.489"/><line class="h" x1="559.503" y1="60.082" x2="564.003" y2="60.082"/><path class="j" d="M154.408,323.767H108.273a2.229,2.229,0,0,1-2.257-1.96,2.154,2.154,0,0,1,2.145-2.346H154.3a2.229,2.229,0,0,1,2.257,1.96A2.154,2.154,0,0,1,154.408,323.767Z"/><g class="k"><path class="l" d="M152.577,315.57a.672.672,0,0,1,.708.524.7.7,0,0,1-.708.431.694.694,0,0,1-.7-.431A.664.664,0,0,1,152.577,315.57Z"/><path class="m" d="M115.343,304.413s-3.265,4.189-3.791,5.238v.7h2.111l3.265-5.238Z"/><polygon points="122.183 313.892 122.183 318.144 141.318 318.144 141.318 313.892 151.239 313.892 151.239 320.27 111.553 320.27 111.553 313.892 122.183 313.892"/><path class="n" d="M142.026,309.189a21.988,21.988,0,0,0-4.141-4.714,1.632,1.632,0,0,0-1.322.7l3.966,5.238,1.5-1.135Z"/><path class="o" d="M112.989,318.624a3.571,3.571,0,1,0,7.142,0,3.571,3.571,0,1,0-7.142,0Z"/><path class="p" d="M114.31,318.624a2.269,2.269,0,0,0,2.295,2.271,2.271,2.271,0,1,0,0-4.541A2.269,2.269,0,0,0,114.31,318.624Z"/><path class="q" d="M115.984,318.624a.59.59,0,0,0,.62.524.56.56,0,0,0,.525-.524.581.581,0,0,0-.525-.611A.6.6,0,0,0,115.984,318.624Z"/><path class="o" d="M143.052,318.624a3.572,3.572,0,1,0,7.143,0,3.572,3.572,0,1,0-7.143,0Z"/><path class="p" d="M144.374,318.624a2.267,2.267,0,0,0,2.293,2.271,2.271,2.271,0,1,0,0-4.541A2.267,2.267,0,0,0,144.374,318.624Z"/><path class="q" d="M146.054,318.624a.583.583,0,0,0,.614.524.568.568,0,0,0,.533-.524.588.588,0,0,0-.533-.611A.6.6,0,0,0,146.054,318.624Z"/><path class="f" d="M137.677,304.679H115.72s.885-1.746,10.672-1.746C134.77,302.933,136.354,303.278,137.677,304.679Z"/><path class="f" d="M151.875,318.853a1.787,1.787,0,0,0,.781-.926v-6.35c-2.995-1.832-10.671-2.184-10.671-2.184s-1.059.79-1.41.438c-.351-.438-2.381-3.32-3.082-4.017s.351-1.135.351-1.135H115.37a.532.532,0,0,1,.525.846c-.261.345-2.292,3.054-2.642,3.664s-.974.524-.974.45h-.7a5.544,5.544,0,0,0-2.153,3.566v2.271c.122.963.387,3.671,2.067,3.671,0,.7.768.611.768.611V318.71s1.874-4.455,4.343-4.455a4.442,4.442,0,0,1,4.23,3.147l.175.438c.181.524.356.7.971.3h19.136c1.059.393,1.235-.3,1.235-.3l.175-.438a4.362,4.362,0,0,1,4.229-3.147,4.612,4.612,0,0,1,4.061,2.623,5.007,5.007,0,0,1,.263,1.975Z"/><path class="g" d="M152.657,311.459a.7.7,0,0,1,.709.7v2.278a.762.762,0,0,1-.709.7Z"/><path class="b" d="M126.435,309.607a.745.745,0,0,1-.754.742h-9.269a.428.428,0,0,1-.416-.66l2.42-3.722a1.58,1.58,0,0,1,1.088-.579h6.176a.75.75,0,0,1,.754.742Z"/><path class="r" d="M127.9,310.348a.745.745,0,0,1-.754-.742v-3.477a.75.75,0,0,1,.754-.742h6.177a1.735,1.735,0,0,1,1.169.579l3.175,3.8c.249.333.083.578-.249.578Z"/><path class="o" d="M154.074,317.316c0,.259-.175.438-.438.119h-1.76c-.27.319-.445.139-.445-.119h0c0-.266.175-.438.445-.589h1.76C153.9,316.878,154.074,317.05,154.074,317.316Z"/><path class="g" d="M153.365,312.157a1.379,1.379,0,0,1,.614,1.142,1.205,1.205,0,0,1-.614,1.042Z"/><path class="s" d="M109.063,313.183h1.073v2.835h-1.067a.351.351,0,0,1-.35-.35v-2.14A.346.346,0,0,1,109.063,313.183Z"/></g><g class="k"><rect class="g" x="151.948" y="315.309" width="0.709" height="1.417"/><path class="b" d="M127.9,310.348a.745.745,0,0,1-.754-.742v-3.477a.75.75,0,0,1,.754-.742h6.177a1.735,1.735,0,0,1,1.169.579l3.175,3.8c.249.333.083.578-.249.578Z"/></g><g class="t"><g class="k"><polygon class="u" points="134.412 304.672 128.773 310.348 139.882 310.348 135.646 304.758 134.412 304.672"/></g></g><g class="v"><g class="k"><polygon class="u" points="124.923 305.388 119.119 311.057 126.435 311.057 126.435 305.388 124.923 305.388"/><polygon class="m" points="128.466 305.388 122.661 311.057 129.978 311.057 129.978 305.388 128.466 305.388"/></g></g><path class="j" d="M209.086,260.1h50.387a2.229,2.229,0,0,0,2.257-1.96,2.154,2.154,0,0,0-2.145-2.346H209.2a2.229,2.229,0,0,0-2.257,1.96A2.154,2.154,0,0,0,209.086,260.1Z"/><rect class="q" x="210.275" y="246.075" width="43.939" height="7.796"/><path class="w" d="M250.854,233.319H230.717c-1.173,0-5.279,4.21-7.625,8.685-3.324.389-12.121,1.362-15.445,3.891a13.34,13.34,0,0,0,0,7.976h3.715a5.769,5.769,0,0,1,11.535,0h18.182a5.67,5.67,0,0,1,11.339,0h4.888a11.04,11.04,0,0,0-.2-2.529C256.914,242.782,253.786,233.319,250.854,233.319Z"/><circle cx="217.093" cy="253.76" r="4.9"/><circle class="m" cx="217.093" cy="253.76" r="3.171"/><circle cx="247.069" cy="253.76" r="4.9"/><circle class="m" cx="247.069" cy="253.76" r="3.171"/><path class="x" d="M227.094,241.823H254.6s-1.9-7.087-3.472-7.087H231.783S228.116,239.264,227.094,241.823Z"/><path class="x" d="M222.89,241.823h2.41c2.7-4.188,5.062-7.087,5.062-7.087h-1.785A21.46,21.46,0,0,0,222.89,241.823Z"/><path class="y" d="M258.466,251.7a1.2,1.2,0,0,1-1.16,1.063,1.022,1.022,0,0,1-.966-1.063v-1.063a1.022,1.022,0,0,1,.966-1.063,1.2,1.2,0,0,1,1.16,1.063Z"/><path class="z" d="M210.319,251.036c-.288-.447-.432-.678-.432-.908,0-.461.144-.692.432-.509h.288c.288-.183.432.048.432.509,0,.231-.144.461-.432.908Z"/><path class="aa" d="M207.2,247.707a18.344,18.344,0,0,0,0,4.612,2.34,2.34,0,0,0,1.537-2.206A2.419,2.419,0,0,0,207.2,247.707Z"/><path class="z" d="M254.875,241.823a43.189,43.189,0,0,1,.945,5.67h1.89a35.258,35.258,0,0,0-1.181-5.67Z"/><circle class="ab" cx="217.093" cy="253.76" r="0.865"/><circle class="ab" cx="247.069" cy="253.76" r="0.865"/><path class="ac" d="M235.045,241.823h13.52l-3.673-7.087H231.8l-.1.12Z"/><polygon class="w" points="241.259 234.736 240.429 242.532 242.577 242.532 243.272 234.736 241.259 234.736"/><path class="j" d="M293.682,322.74h44.1A2.209,2.209,0,0,0,340,320.995a2.128,2.128,0,0,0-2.093-2.507H293.8a2.209,2.209,0,0,0-2.213,1.745A2.128,2.128,0,0,0,293.682,322.74Z"/><rect class="q" x="295.17" y="311.401" width="40.395" height="6.378" transform="translate(630.736 629.18) rotate(180)"/><path class="ad" d="M319,310.193a9.011,9.011,0,0,0,.228-1.766,9.955,9.955,0,0,0-19.907-.212,9.424,9.424,0,0,0,.086,1.769Z"/><path class="b" d="M314.529,301.663l-6.459-.069a2.78,2.78,0,0,0-2.814,2.727l-.056,5.224,12.559.134a8.2,8.2,0,0,0,.208-1.607A7.627,7.627,0,0,0,314.529,301.663Z"/><path class="ae" d="M333.462,307.195l-34.441-.367a6.109,6.109,0,0,0-6.178,6.1c-.043,4.068-.043,4.412-.043,4.412,1.574.078,3.7.04,3.7.04a4.747,4.747,0,1,1,9.479.048c19.174.2,19,0,19,0a4.816,4.816,0,0,1,4.84-4.733,4.677,4.677,0,0,1,4.589,4.744l5.163.055.043-4.068A6.133,6.133,0,0,0,333.462,307.195Z"/><path d="M305.12,317.124a3.941,3.941,0,0,1-3.939,3.829,3.878,3.878,0,0,1-3.856-3.912,3.812,3.812,0,0,1,3.939-3.821A3.872,3.872,0,0,1,305.12,317.124Z"/><path class="g" d="M303.228,317.1a2.07,2.07,0,0,1-2.027,1.97,2,2,0,0,1-1.976-2.012,1.932,1.932,0,0,1,2.018-1.961A2,2,0,0,1,303.228,317.1Z"/><path d="M333.562,317.427a3.845,3.845,0,1,1-3.751-3.9A3.782,3.782,0,0,1,333.562,317.427Z"/><path class="g" d="M331.776,317.408a2.069,2.069,0,0,1-2.027,1.97,2,2,0,0,1-1.975-2.012,1.931,1.931,0,0,1,2.018-1.961A2,2,0,0,1,331.776,317.408Z"/><path class="ad" d="M325.528,310.692h-.1l0-.451a22.651,22.651,0,0,0,2.344-2.384h.1s.1.326,0,.325c-2.239,2.268-2.239,1.8-2.239,1.8Z"/><path class="ad" d="M327.533,310.47h-.1c-.1-.1-.1-.207,0-.206l2.23-2.276.209,0c.112.1.111.216,0,.215l-2.23,2.268Z"/><path class="ad" d="M329.425,310.491h-.106l0-.206,2.346-2.275.209,0,0,.215-2.346,2.267Z"/><path class="ad" d="M331.431,310.512h-.106c-.1-.1-.1-.207,0-.206l2.232-2.276.209,0c.112.1.111.216,0,.215l-2.232,2.268Z"/><path class="g" d="M337.668,313.3a.8.8,0,0,1-.748.722h0a.8.8,0,0,1-.733-.738l.023-2.2a.719.719,0,0,1,.748-.722h0a.719.719,0,0,1,.733.738Z"/><rect class="a" x="305.194" y="286.122" width="22.475" height="47.015" transform="matrix(0.011, -1, 1, 0.011, 3.429, 622.724)"/><path class="g" d="M317.893,307.183a7.535,7.535,0,0,0-3.364-5.366l-2.268-.024,2.414,5.356Z"/><rect class="q" x="337.692" y="314.945" width="4.252" height="2.835" rx="1.248" ry="1.248" transform="translate(679.636 632.724) rotate(180)"/><polygon class="af" points="435.923 236.619 434.896 235.592 408.195 233.538 405.6 237.105 420.518 255.567 435.923 236.619"/><circle class="ag" cx="420.518" cy="221.214" r="21.785"/><path class="g" d="M431,216.25a3.641,3.641,0,0,1-.229,1.289,3.781,3.781,0,0,1-.639,1.1,3.84,3.84,0,0,1-.973.832,3.54,3.54,0,0,1-1.23.457,3.8,3.8,0,0,1-.463,1.23,3.742,3.742,0,0,1-.826.973,3.781,3.781,0,0,1-1.1.639,3.641,3.641,0,0,1-1.289.229h-4.5a2.177,2.177,0,0,0-.715.117,2.266,2.266,0,0,0-1.43,1.488,3.732,3.732,0,0,1,1.166.5,3.755,3.755,0,0,1,1.512,1.9,3.691,3.691,0,0,1-.082,2.7,3.845,3.845,0,0,1-.809,1.2,3.781,3.781,0,0,1-1.189.8,3.632,3.632,0,0,1-1.453.293,3.674,3.674,0,0,1-1.459-.293,3.734,3.734,0,0,1-2-2,3.777,3.777,0,0,1-.07-2.736,3.74,3.74,0,0,1,.621-1.1,3.787,3.787,0,0,1,.949-.826,3.6,3.6,0,0,1,1.207-.469v-9.164a3.6,3.6,0,0,1-1.207-.469,3.787,3.787,0,0,1-.949-.826,3.74,3.74,0,0,1-.621-1.1A3.693,3.693,0,0,1,413,211.75a3.632,3.632,0,0,1,.293-1.453,3.781,3.781,0,0,1,.8-1.189,3.845,3.845,0,0,1,1.2-.809,3.611,3.611,0,0,1,1.459-.3,3.57,3.57,0,0,1,1.453.3,3.841,3.841,0,0,1,2,2,3.57,3.57,0,0,1,.3,1.453,3.693,3.693,0,0,1-.223,1.277,3.74,3.74,0,0,1-.621,1.1,3.787,3.787,0,0,1-.949.826,3.6,3.6,0,0,1-1.207.469v6.855a3.812,3.812,0,0,1,1.066-.574,3.586,3.586,0,0,1,1.184-.2h4.5a2.177,2.177,0,0,0,.715-.117,2.266,2.266,0,0,0,1.43-1.488,3.813,3.813,0,0,1-1.166-.492,3.627,3.627,0,0,1-.914-.826,3.928,3.928,0,0,1-.6-1.078,3.727,3.727,0,0,1,.076-2.7,3.781,3.781,0,0,1,.8-1.189,3.845,3.845,0,0,1,1.2-.809,3.611,3.611,0,0,1,1.459-.3,3.57,3.57,0,0,1,1.453.3,3.841,3.841,0,0,1,2,2A3.57,3.57,0,0,1,431,216.25Zm-16.5-4.5a2.207,2.207,0,0,0,.176.879,2.238,2.238,0,0,0,1.2,1.2,2.285,2.285,0,0,0,1.758,0,2.238,2.238,0,0,0,1.2-1.2,2.285,2.285,0,0,0,0-1.758,2.238,2.238,0,0,0-1.2-1.2,2.285,2.285,0,0,0-1.758,0,2.238,2.238,0,0,0-1.2,1.2A2.207,2.207,0,0,0,414.5,211.75Zm4.5,16.5a2.207,2.207,0,0,0-.176-.879,2.238,2.238,0,0,0-1.2-1.2,2.285,2.285,0,0,0-1.758,0,2.238,2.238,0,0,0-1.2,1.2,2.285,2.285,0,0,0,0,1.758,2.238,2.238,0,0,0,1.2,1.2,2.285,2.285,0,0,0,1.758,0,2.238,2.238,0,0,0,1.2-1.2A2.207,2.207,0,0,0,419,228.25Zm8.25-9.75a2.207,2.207,0,0,0,.879-.176,2.238,2.238,0,0,0,1.2-1.2,2.285,2.285,0,0,0,0-1.758,2.238,2.238,0,0,0-1.2-1.2,2.285,2.285,0,0,0-1.758,0,2.238,2.238,0,0,0-1.2,1.2,2.285,2.285,0,0,0,0,1.758,2.238,2.238,0,0,0,1.2,1.2A2.207,2.207,0,0,0,427.25,218.5Z"/><polygon class="ah" points="423.923 138.322 422.896 137.295 396.195 135.241 393.6 138.808 408.518 157.27 423.923 138.322"/><circle class="ai" cx="408.518" cy="122.917" r="21.785"/><path class="g" d="M410.5,120.5H421V134H401.5v-4.5H397V110h13.5Zm-12,7.5h3v-7.5H409v-9H398.5Zm21,4.5V122H403v10.5Z"/><path class="j" d="M301.247,133.36H235.413a2.229,2.229,0,0,1-2.257-1.96,2.154,2.154,0,0,1,2.145-2.346h65.834a2.229,2.229,0,0,1,2.257,1.96A2.154,2.154,0,0,1,301.247,133.36Z"/><path class="ai" d="M247.257,97.487h43.184A11.229,11.229,0,0,1,301.6,108.58V113.2H247.257Z"/><path class="ai" d="M289.642,97.25H246.283a11.12,11.12,0,0,0-11.211,11.01v4.581h54.569Z"/><path class="b" d="M247.847,100.951h40.277a3.18,3.18,0,0,1,3.049,3.168v7.641H239.287v-2.314A8.455,8.455,0,0,1,247.847,100.951Z"/><polygon class="ah" points="301.69 114.31 301.69 127.015 290.487 127.015 246.279 127.015 235.073 127.015 235.073 114.31 235.073 112.842 301.69 112.842 301.69 114.31"/><path class="ai" d="M235.228,113.053H301.6v1.435H245.53c-10.877,0-10.3,9.373-10.3,9.373Z"/><path class="aj" d="M283.924,122.414h9.422a2.44,2.44,0,0,1,2.46,2.456v2.3H281.463v-2.3A2.349,2.349,0,0,1,283.924,122.414Z"/><g class="ak"><g class="al"><path d="M283.191,126.6a5.439,5.439,0,0,0,5.365,5.327,5.337,5.337,0,0,0,5.365-5.327,5.245,5.245,0,0,0-5.365-5.339A5.34,5.34,0,0,0,283.191,126.6Z"/><path class="g" d="M285.808,126.6a2.831,2.831,0,0,0,2.749,2.729,2.744,2.744,0,0,0,2.76-2.729,2.661,2.661,0,0,0-2.76-2.741A2.737,2.737,0,0,0,285.808,126.6Z"/></g></g><path class="aj" d="M246.823,122.414h9.424a2.432,2.432,0,0,1,2.46,2.456v2.3H244.364v-2.3A2.35,2.35,0,0,1,246.823,122.414Z"/><g class="am"><g class="al"><path d="M246.106,126.6a5.427,5.427,0,0,0,5.351,5.327,5.337,5.337,0,0,0,5.366-5.327,5.245,5.245,0,0,0-5.366-5.339A5.328,5.328,0,0,0,246.106,126.6Z"/><path class="g" d="M248.71,126.6a2.839,2.839,0,0,0,2.746,2.729,2.745,2.745,0,0,0,2.761-2.729,2.662,2.662,0,0,0-2.761-2.741A2.744,2.744,0,0,0,248.71,126.6Z"/></g></g><path class="an" d="M232.77,125.44a1.6,1.6,0,0,1,1.6-1.578h5.224a1.589,1.589,0,0,1,1.58,1.578h0a1.635,1.635,0,0,1-1.58,1.732h-5.224A1.641,1.641,0,0,1,232.77,125.44Z"/><path class="an" d="M295.6,123.862c2.026,0,6,0,6,0a1.639,1.639,0,0,1,1.74,1.578,1.677,1.677,0,0,1-1.74,1.732h-5.8A16.668,16.668,0,0,0,295.6,123.862Z"/><path class="g" d="M240.506,105.046a8.5,8.5,0,0,1,7.341-4.095h40.277a3.18,3.18,0,0,1,3.049,3.168v.927Z"/><rect class="ai" x="279.011" y="100.794" width="2.126" height="12.048"/><rect class="ai" x="257.751" y="100.794" width="2.126" height="12.048"/><rect class="ao" x="236.667" y="116.857" width="3.898" height="2.244" rx="1.122" ry="1.122" transform="translate(477.232 235.959) rotate(-180)"/><path class="ai" d="M301.6,116.857h.945a1.122,1.122,0,1,1,0,2.244H301.6Z"/><path class="j" d="M353.1,196.935H287.268a2.229,2.229,0,0,1-2.257-1.96,2.154,2.154,0,0,1,2.145-2.346H352.99a2.229,2.229,0,0,1,2.257,1.96A2.154,2.154,0,0,1,353.1,196.935Z"/><path class="ap" d="M291.962,190.917l12.261.937s6.156-8.379-5.6-8.379S291.962,190.917,291.962,190.917Z"/><path class="ap" d="M335.924,191.973H348s7.673-8.6-5.546-8.758S335.924,191.973,335.924,191.973Z"/><circle class="aq" cx="341.978" cy="190.201" r="5.315"/><circle class="n" cx="342.019" cy="190.065" r="3.816"/><circle class="ar" cx="342.155" cy="190.201" r="1.227"/><circle class="aq" cx="298.091" cy="190.201" r="5.315"/><circle class="n" cx="298.051" cy="190.242" r="3.816"/><circle class="ar" cx="298.051" cy="190.242" r="1.09"/><path class="as" d="M355.092,188.867c-.072-1.445-1.084-1.372-1.084-1.372s-.506-2.889-.939-4.334a3.9,3.9,0,0,0-3.4-2.528c-1.661-.289-12.424-1.3-12.424-1.3s-7.115-6.573-9.354-6.646c-5.852-.189-15.061-.361-21.273,0-5.481.319-11.124,5.779-11.124,5.779l-6.14.686c-.9.2-1.251.439-1.5.921a58.747,58.747,0,0,0-2.257,5.833s-.74.289-.524,1.445c.362,1.931.885,2.962,1.246,3.034.154.031,2.734.325,5.638.652a6.272,6.272,0,1,1,12.261.937h31.7a6.272,6.272,0,1,1,12.073,0H353.5C355.309,191.973,355.164,190.312,355.092,188.867Z"/><path class="at" d="M286.324,190.264c.154.031,2.734.325,5.638.652a6.325,6.325,0,0,1-.048-.766,6.248,6.248,0,0,1,1.6-4.186l-7.913-.183v0s-.74.289-.524,1.445C285.44,189.162,285.963,190.192,286.324,190.264Z"/><path class="b" d="M321.561,179.979h12.577a.368.368,0,0,0,.247-.642c-1.673-1.507-5.927-5.153-8.042-5.282-1.039-.063-2.806-.108-3.87-.139a.368.368,0,0,0-.373.308l-.9,5.325A.368.368,0,0,0,321.561,179.979Z"/><path class="b" d="M308.759,174.705a.37.37,0,0,0-.433-.425,8.138,8.138,0,0,0-3.148,1.22,39.832,39.832,0,0,0-4.632,3.846.368.368,0,0,0,.257.632h6.752a.368.368,0,0,0,.363-.307Z"/><path class="b" d="M310.978,174.31l-.887,5.24a.368.368,0,0,0,.363.43h8.207a.368.368,0,0,0,.363-.307l.91-5.376a.369.369,0,0,0-.363-.43c-2.334,0-5.525.051-8.244.137A.366.366,0,0,0,310.978,174.31Z"/><path class="au" d="M288.026,184.383l1.181-3.543a.336.336,0,0,0-.324-.443c-.359.007-.857.014-1.271.014-.561,1.224-1.22,3.039-1.627,4.2h1.722A.336.336,0,0,0,288.026,184.383Z"/><path class="g" d="M353.047,183.17a3.044,3.044,0,0,0-.523-1.011H350.4a.367.367,0,0,0-.313.557l2.212,3.628a.367.367,0,0,0,.313.176H353.8C353.621,185.567,353.32,184.079,353.047,183.17Z"/><path class="at" d="M336.271,187.612H303.827a6.29,6.29,0,0,1,.35,4.361H335.97a6.29,6.29,0,0,1-.236-1.707A6.221,6.221,0,0,1,336.271,187.612Z"/><path class="at" d="M354.091,187.339H347.5a6.138,6.138,0,0,1,.733,2.692,8.354,8.354,0,0,1-.273,1.942h5.622c1.762,0,1.55-1.567,1.55-3.3A1.206,1.206,0,0,0,354.091,187.339Z"/><path class="ao" d="M350.428,188.684v.854a.255.255,0,0,0,.255.255h4.478c0-.373-.019-.761-.038-1.136,0-.081-.012-.155-.022-.227h-4.418A.255.255,0,0,0,350.428,188.684Z"/><path class="g" d="M308.44,176.653l.319-1.884a.368.368,0,0,0-.424-.426,8.145,8.145,0,0,0-3.157,1.221c-.506.35-1,.719-1.47,1.089Z"/><path class="g" d="M319.546,176.653l.388-2.293a.365.365,0,0,0-.358-.43c-2.335,0-5.53.051-8.251.137a.365.365,0,0,0-.348.307l-.386,2.28Z"/><path class="g" d="M331.081,176.653c-1.7-1.285-3.554-2.462-4.738-2.533-1.04-.063-2.807-.108-3.872-.139a.367.367,0,0,0-.372.308l-.4,2.365Z"/><polygon class="ad" points="391.885 341.051 390.859 342.077 364.157 344.131 361.563 340.564 376.481 322.103 391.885 341.051"/><circle class="ae" cx="376.481" cy="356.455" r="21.785"/><path class="g" d="M369.8,348.1a.7.7,0,1,1,1-1l1.417,1.417a.7.7,0,1,1-1,1Zm5.459.919a.719.719,0,0,0,.709-.709v-2.126a.709.709,0,0,0-1.417,0v2.126a.719.719,0,0,0,.709.709Zm6.29,12.756,1.4,2.79q-1.04.511-2.054,1.024t-2.054,1.024l-1.528-3.056-2.757,2.757V351.559q2.581,2.558,5.11,5.1t5.1,5.116Zm-2.3-1.417h2.1l-5.382-5.382V362.9l1.727-1.727,1.783,3.555,1.561-.786Zm-1.152-9.922a.679.679,0,0,0,.5-.21l1.417-1.417a.7.7,0,1,0-1-1l-1.417,1.417a.709.709,0,0,0,.5,1.207Zm-5.67,4.252a.681.681,0,0,0-.5.21L370.5,356.32a.7.7,0,1,0,1,1l1.417-1.417a.709.709,0,0,0-.5-1.207Zm-.919-1.628a.709.709,0,0,0-.5-1.207h-2.126a.709.709,0,0,0,0,1.417H371A.679.679,0,0,0,371.5,353.065Z"/><path d="M447.453,128.085a5.532,5.532,0,0,1-4.293-1.767,6.552,6.552,0,0,1-1.613-4.6,6.943,6.943,0,0,1,1.644-4.852,5.74,5.74,0,0,1,4.474-1.811,5.408,5.408,0,0,1,4.206,1.758,6.576,6.576,0,0,1,1.6,4.6,6.965,6.965,0,0,1-1.635,4.878A5.634,5.634,0,0,1,447.453,128.085Zm.105-11.689a4.063,4.063,0,0,0-3.226,1.433,6.373,6.373,0,0,0-.031,7.51,3.941,3.941,0,0,0,3.151,1.419,4.138,4.138,0,0,0,3.27-1.354,5.532,5.532,0,0,0,1.2-3.788,5.78,5.78,0,0,0-1.16-3.858A3.978,3.978,0,0,0,447.559,116.4Z"/><path d="M461.633,127.461a4.684,4.684,0,0,1-2.461.624,4.074,4.074,0,0,1-3.107-1.252,4.539,4.539,0,0,1-1.182-3.248,4.99,4.99,0,0,1,1.274-3.573,4.458,4.458,0,0,1,3.4-1.349,4.735,4.735,0,0,1,2.092.439v1.477a3.665,3.665,0,0,0-2.145-.7,2.9,2.9,0,0,0-2.263.989,3.752,3.752,0,0,0-.883,2.6,3.573,3.573,0,0,0,.831,2.5,2.863,2.863,0,0,0,2.228.914,3.613,3.613,0,0,0,2.215-.782Z"/><path d="M467.735,127.787a2.779,2.779,0,0,1-1.345.281q-2.364,0-2.364-2.637V120.1h-1.547v-1.23h1.547v-2.2l1.441-.466v2.663h2.268v1.23h-2.268v5.071a2.1,2.1,0,0,0,.308,1.292,1.228,1.228,0,0,0,1.02.387,1.515,1.515,0,0,0,.94-.3Z"/><path d="M479.413,118.576a2.606,2.606,0,0,0-.18-1.011,1.957,1.957,0,0,0-1.226-1.143,2.874,2.874,0,0,0-.914-.141,3.023,3.023,0,0,0-.826.114,4.016,4.016,0,0,0-.787.316,4.839,4.839,0,0,0-.738.483,5.333,5.333,0,0,0-.664.624v-1.547a4.309,4.309,0,0,1,1.358-.9,4.781,4.781,0,0,1,1.833-.312,4.424,4.424,0,0,1,1.433.224,3.285,3.285,0,0,1,1.143.655A3.027,3.027,0,0,1,480.6,117a3.587,3.587,0,0,1,.277,1.45,4.973,4.973,0,0,1-.171,1.354,4.186,4.186,0,0,1-.519,1.143,5.513,5.513,0,0,1-.875,1.028,12.388,12.388,0,0,1-1.239,1q-.888.633-1.463,1.081a6.469,6.469,0,0,0-.914.839,2.436,2.436,0,0,0-.475.782,2.734,2.734,0,0,0-.136.9h6.275v1.292h-7.778v-.624a5.2,5.2,0,0,1,.176-1.424,3.7,3.7,0,0,1,.58-1.169,6.487,6.487,0,0,1,1.059-1.107q.655-.554,1.6-1.248a10.141,10.141,0,0,0,1.147-.94,4.889,4.889,0,0,0,.743-.9,3.22,3.22,0,0,0,.4-.91A3.922,3.922,0,0,0,479.413,118.576Z"/><path d="M491.044,121.52a12.381,12.381,0,0,1-.286,2.8,6.533,6.533,0,0,1-.826,2.061,3.718,3.718,0,0,1-1.327,1.274,3.633,3.633,0,0,1-1.789.435,3.393,3.393,0,0,1-1.692-.417,3.546,3.546,0,0,1-1.252-1.217,6.17,6.17,0,0,1-.773-1.964,12.146,12.146,0,0,1-.264-2.667,13.749,13.749,0,0,1,.277-2.918,6.674,6.674,0,0,1,.813-2.123,3.619,3.619,0,0,1,1.332-1.292,3.739,3.739,0,0,1,1.824-.435Q491.044,115.06,491.044,121.52Zm-1.477.141q0-5.379-2.558-5.379-2.7,0-2.7,5.476,0,5.106,2.646,5.106Q489.567,126.864,489.567,121.661Z"/><path d="M497.893,127.875h-1.441v-10.89a3.336,3.336,0,0,1-.488.382,7.951,7.951,0,0,1-.721.426q-.4.211-.844.4a6.132,6.132,0,0,1-.866.29V117.02a8.379,8.379,0,0,0,1.006-.356q.532-.224,1.046-.5t.971-.58a7.71,7.71,0,0,0,.791-.593h.545Z"/><path d="M509.858,116.106q-.29.5-.7,1.248t-.866,1.679q-.457.932-.932,2t-.888,2.215q-.413,1.143-.725,2.316a17.229,17.229,0,0,0-.453,2.307H503.75a17.526,17.526,0,0,1,.488-2.3q.33-1.173.747-2.3t.883-2.175q.466-1.046.905-1.925t.8-1.551q.365-.672.584-1.05h-6.319v-1.3h8.016Z"/><path d="M448.068,138.938l-3.111,8.4h-1.084l-3.047-8.4h1.1l2.326,6.662a3.956,3.956,0,0,1,.17.744h.023a3.65,3.65,0,0,1,.193-.756l2.373-6.65Z"/><path d="M453.039,144.58H448.8a2.244,2.244,0,0,0,.539,1.547,1.858,1.858,0,0,0,1.418.545,2.948,2.948,0,0,0,1.863-.668v.9a3.482,3.482,0,0,1-2.092.574,2.536,2.536,0,0,1-2-.817,3.346,3.346,0,0,1-.727-2.3,3.281,3.281,0,0,1,.794-2.282,2.546,2.546,0,0,1,1.972-.882,2.256,2.256,0,0,1,1.822.762,3.176,3.176,0,0,1,.645,2.115Zm-.984-.814a1.955,1.955,0,0,0-.4-1.295,1.368,1.368,0,0,0-1.1-.463,1.552,1.552,0,0,0-1.154.486,2.207,2.207,0,0,0-.586,1.271Z"/><path d="M457.453,142.313a1.175,1.175,0,0,0-.727-.193,1.226,1.226,0,0,0-1.028.58,2.682,2.682,0,0,0-.413,1.582v3.059h-.961v-6h.961v1.236h.023a2.1,2.1,0,0,1,.627-.987,1.43,1.43,0,0,1,.943-.354,1.569,1.569,0,0,1,.574.082Z"/><path d="M461.111,147.281a1.853,1.853,0,0,1-.9.188q-1.576,0-1.576-1.758V142.16h-1.031v-.82h1.031v-1.465l.961-.311v1.775h1.512v.82H459.6v3.381a1.4,1.4,0,0,0,.205.861.818.818,0,0,0,.68.258,1.01,1.01,0,0,0,.627-.2Z"/><path d="M462.719,139.816a.609.609,0,0,1-.439-.176.593.593,0,0,1-.182-.445.615.615,0,0,1,.621-.627.621.621,0,0,1,.448.179.626.626,0,0,1,0,.888A.615.615,0,0,1,462.719,139.816Zm.469,7.523h-.961v-6h.961Z"/><path d="M469.055,147.064a3.122,3.122,0,0,1-1.641.416,2.716,2.716,0,0,1-2.071-.835,3.026,3.026,0,0,1-.788-2.165,3.326,3.326,0,0,1,.85-2.382,2.972,2.972,0,0,1,2.268-.9,3.156,3.156,0,0,1,1.395.293v.984a2.443,2.443,0,0,0-1.43-.469,1.932,1.932,0,0,0-1.509.659,2.5,2.5,0,0,0-.589,1.731,2.382,2.382,0,0,0,.554,1.664,1.909,1.909,0,0,0,1.485.609,2.408,2.408,0,0,0,1.477-.521Z"/><path d="M474.635,147.34h-.961V146.4h-.023a2.012,2.012,0,0,1-1.846,1.078,1.973,1.973,0,0,1-1.4-.475,1.644,1.644,0,0,1-.507-1.26q0-1.682,1.98-1.957l1.8-.252q0-1.529-1.236-1.529a2.954,2.954,0,0,0-1.957.738v-.984a3.718,3.718,0,0,1,2.039-.562q2.115,0,2.115,2.238Zm-.961-3.035-1.447.2a2.35,2.35,0,0,0-1.008.331.955.955,0,0,0-.34.841.916.916,0,0,0,.313.718,1.211,1.211,0,0,0,.835.278,1.542,1.542,0,0,0,1.181-.5,1.79,1.79,0,0,0,.466-1.269Z"/><path d="M477.238,147.34h-.961v-8.883h.961Z"/><path d="M483.248,144.164v3.176h-.984v-8.4h2.309a3.047,3.047,0,0,1,2.089.656,2.343,2.343,0,0,1,.741,1.852,2.547,2.547,0,0,1-.823,1.957,3.145,3.145,0,0,1-2.224.762Zm0-4.336v3.445h1.031a2.306,2.306,0,0,0,1.556-.466,1.649,1.649,0,0,0,.536-1.315q0-1.664-1.969-1.664Z"/><path d="M492.572,147.34h-.961V146.4h-.023a2.012,2.012,0,0,1-1.846,1.078,1.973,1.973,0,0,1-1.4-.475,1.644,1.644,0,0,1-.507-1.26q0-1.682,1.98-1.957l1.8-.252q0-1.529-1.236-1.529a2.954,2.954,0,0,0-1.957.738v-.984a3.718,3.718,0,0,1,2.039-.562q2.115,0,2.115,2.238Zm-.961-3.035-1.447.2a2.35,2.35,0,0,0-1.008.331.955.955,0,0,0-.34.841.916.916,0,0,0,.313.718,1.211,1.211,0,0,0,.835.278,1.542,1.542,0,0,0,1.181-.5,1.79,1.79,0,0,0,.466-1.269Z"/><path d="M499.195,147.34h-.961v-3.422q0-1.91-1.395-1.91a1.513,1.513,0,0,0-1.192.542,2.009,2.009,0,0,0-.472,1.368v3.422h-.961v-6h.961v1h.023a2.166,2.166,0,0,1,1.969-1.137,1.836,1.836,0,0,1,1.506.636,2.832,2.832,0,0,1,.521,1.837Z"/><path d="M505.66,144.58h-4.236a2.244,2.244,0,0,0,.539,1.547,1.858,1.858,0,0,0,1.418.545,2.948,2.948,0,0,0,1.863-.668v.9a3.482,3.482,0,0,1-2.092.574,2.536,2.536,0,0,1-2-.817,3.346,3.346,0,0,1-.727-2.3,3.281,3.281,0,0,1,.794-2.282,2.546,2.546,0,0,1,1.972-.882,2.256,2.256,0,0,1,1.822.762,3.176,3.176,0,0,1,.645,2.115Zm-.984-.814a1.955,1.955,0,0,0-.4-1.295,1.368,1.368,0,0,0-1.1-.463,1.552,1.552,0,0,0-1.154.486,2.207,2.207,0,0,0-.586,1.271Z"/><path d="M507.906,147.34h-.961v-8.883h.961Z"/><path d="M517.291,147.34h-4.359v-8.4h.984v7.512h3.375Z"/><path d="M522.578,147.34h-.961V146.4h-.023a2.012,2.012,0,0,1-1.846,1.078,1.973,1.973,0,0,1-1.4-.475,1.644,1.644,0,0,1-.507-1.26q0-1.682,1.98-1.957l1.8-.252q0-1.529-1.236-1.529a2.954,2.954,0,0,0-1.957.738v-.984a3.718,3.718,0,0,1,2.039-.562q2.115,0,2.115,2.238Zm-.961-3.035-1.447.2a2.35,2.35,0,0,0-1.008.331.955.955,0,0,0-.34.841.916.916,0,0,0,.313.718,1.211,1.211,0,0,0,.835.278,1.542,1.542,0,0,0,1.181-.5,1.79,1.79,0,0,0,.466-1.269Z"/><path d="M529,141.34l-2.76,6.961q-.738,1.863-2.074,1.863a2.2,2.2,0,0,1-.627-.076v-.861a1.781,1.781,0,0,0,.568.105,1.178,1.178,0,0,0,1.09-.867l.48-1.137-2.344-5.988H524.4l1.623,4.617q.029.088.123.457h.035q.029-.141.117-.445L528,141.34Z"/><path d="M532.367,147.48a2.783,2.783,0,0,1-2.124-.841,3.114,3.114,0,0,1-.794-2.229,3.244,3.244,0,0,1,.826-2.361,2.97,2.97,0,0,1,2.232-.85,2.691,2.691,0,0,1,2.095.826,3.276,3.276,0,0,1,.753,2.291,3.223,3.223,0,0,1-.812,2.3A2.844,2.844,0,0,1,532.367,147.48Zm.07-5.473a1.828,1.828,0,0,0-1.465.63,2.587,2.587,0,0,0-.539,1.737,2.447,2.447,0,0,0,.545,1.682,1.852,1.852,0,0,0,1.459.615,1.757,1.757,0,0,0,1.433-.6,2.619,2.619,0,0,0,.5-1.717,2.664,2.664,0,0,0-.5-1.734A1.749,1.749,0,0,0,532.437,142.008Z"/><path d="M541.574,147.34h-.961v-.949h-.023a1.973,1.973,0,0,1-1.852,1.09q-2.145,0-2.145-2.555V141.34h.955v3.434q0,1.9,1.453,1.9a1.47,1.47,0,0,0,1.157-.519,1.984,1.984,0,0,0,.454-1.356V141.34h.961Z"/><path d="M546.128,147.281a1.853,1.853,0,0,1-.9.188q-1.576,0-1.576-1.758V142.16h-1.031v-.82h1.031v-1.465l.961-.311v1.775h1.512v.82h-1.512v3.381a1.4,1.4,0,0,0,.205.861.818.818,0,0,0,.68.258,1.01,1.01,0,0,0,.627-.2Z"/><polygon class="at" points="134.077 192.175 135.103 191.148 161.805 189.094 164.399 192.661 149.481 211.123 134.077 192.175"/><circle class="as" cx="149.481" cy="176.77" r="21.785"/><path class="g" d="M147.1,176.842h-7.486v-1.417h8.061Zm7.308,1.417h4.64l-9.922,9.922h-2.868l2.835-5.67h-2.735l3.411-8.5h7.474Zm-2.658,1.417,2.835-4.252h-3.865l-2.259,5.67h2.934l-2.813,5.625,7.032-7.043Zm-12.136,0h6.356l.565-1.417h-6.921Zm-2.835-12.756v15.591h8.061l.565-1.417h-7.209V168.337h19.843v8.5h1.417V166.92Z"/><path d="M50.932,185.379H49.3l-1.336-3.533H42.618l-1.257,3.533H39.717l4.834-12.6h1.529Zm-3.454-4.86-1.978-5.37a5.142,5.142,0,0,1-.193-.844h-.035a4.708,4.708,0,0,1-.2.844l-1.96,5.37Z"/><path d="M59.619,185.379H58.177v-1.424h-.035a2.96,2.96,0,0,1-2.777,1.635q-3.217,0-3.217-3.832v-5.379h1.433v5.15q0,2.848,2.18,2.848A2.205,2.205,0,0,0,57.5,183.6a2.976,2.976,0,0,0,.681-2.035v-5.186h1.441Z"/><path d="M69.958,184.659q0,4.957-4.746,4.957a6.372,6.372,0,0,1-2.918-.633v-1.441a5.993,5.993,0,0,0,2.9.844q3.322,0,3.322-3.533v-.984h-.035a3.641,3.641,0,0,1-5.8.523,4.8,4.8,0,0,1-1.024-3.221,5.6,5.6,0,0,1,1.1-3.647,3.685,3.685,0,0,1,3.019-1.354,2.934,2.934,0,0,1,2.7,1.459h.035v-1.248h1.441Zm-1.441-3.349v-1.327a2.575,2.575,0,0,0-.725-1.837,2.387,2.387,0,0,0-1.806-.765,2.5,2.5,0,0,0-2.092.971,4.335,4.335,0,0,0-.756,2.72,3.721,3.721,0,0,0,.725,2.4,2.343,2.343,0,0,0,1.92.9,2.509,2.509,0,0,0,1.973-.861A3.21,3.21,0,0,0,68.516,181.31Z"/><path d="M82.628,176.081a2.606,2.606,0,0,0-.18-1.011,1.957,1.957,0,0,0-1.226-1.143,2.874,2.874,0,0,0-.914-.141,3.023,3.023,0,0,0-.826.114,4.016,4.016,0,0,0-.787.316,4.839,4.839,0,0,0-.738.483,5.333,5.333,0,0,0-.664.624v-1.547a4.309,4.309,0,0,1,1.358-.9,4.781,4.781,0,0,1,1.833-.312,4.424,4.424,0,0,1,1.433.224,3.285,3.285,0,0,1,1.143.655,3.027,3.027,0,0,1,.76,1.063,3.587,3.587,0,0,1,.277,1.45,4.973,4.973,0,0,1-.171,1.354,4.186,4.186,0,0,1-.519,1.143,5.513,5.513,0,0,1-.875,1.028,12.388,12.388,0,0,1-1.239,1q-.888.633-1.463,1.081a6.469,6.469,0,0,0-.914.839,2.436,2.436,0,0,0-.475.782,2.734,2.734,0,0,0-.136.9H84.58v1.292H76.8v-.624a5.2,5.2,0,0,1,.176-1.424,3.7,3.7,0,0,1,.58-1.169,6.487,6.487,0,0,1,1.059-1.107q.655-.554,1.6-1.248a10.141,10.141,0,0,0,1.147-.94,4.889,4.889,0,0,0,.743-.9,3.22,3.22,0,0,0,.4-.91A3.922,3.922,0,0,0,82.628,176.081Z"/><path d="M94.259,179.025a12.381,12.381,0,0,1-.286,2.8,6.533,6.533,0,0,1-.826,2.061,3.718,3.718,0,0,1-1.327,1.274,3.633,3.633,0,0,1-1.789.435,3.393,3.393,0,0,1-1.692-.417,3.546,3.546,0,0,1-1.252-1.217A6.17,6.17,0,0,1,86.314,182a12.146,12.146,0,0,1-.264-2.667,13.749,13.749,0,0,1,.277-2.918,6.674,6.674,0,0,1,.813-2.123A3.619,3.619,0,0,1,88.472,173a3.739,3.739,0,0,1,1.824-.435Q94.259,172.565,94.259,179.025Zm-1.477.141q0-5.379-2.558-5.379-2.7,0-2.7,5.476,0,5.106,2.646,5.106Q92.783,184.369,92.783,179.166Z"/><path d="M101.108,185.379H99.667V174.49a3.336,3.336,0,0,1-.488.382,7.951,7.951,0,0,1-.721.426q-.4.211-.844.4a6.132,6.132,0,0,1-.866.29v-1.459a8.379,8.379,0,0,0,1.006-.356q.532-.224,1.046-.5t.971-.58a7.71,7.71,0,0,0,.791-.593h.545Z"/><path d="M113.073,173.611q-.29.5-.7,1.248t-.866,1.679q-.457.932-.932,2t-.888,2.215q-.413,1.143-.725,2.316a17.229,17.229,0,0,0-.453,2.307h-1.547a17.526,17.526,0,0,1,.488-2.3q.33-1.173.747-2.3t.883-2.175q.466-1.046.905-1.925t.8-1.551q.365-.672.584-1.05h-6.319v-1.3h8.016Z"/><path d="M28.251,201.833a3.755,3.755,0,0,1-.633,2.323,2.022,2.022,0,0,1-1.693.829,2,2,0,0,1-.809-.141v-.973a1.368,1.368,0,0,0,.82.229q1.33,0,1.33-2.256v-5.4h.984Z"/><path d="M29.824,204.5v-1.16a2.253,2.253,0,0,0,.478.316,3.869,3.869,0,0,0,.586.237,4.664,4.664,0,0,0,.618.149,3.447,3.447,0,0,0,.574.053,2.249,2.249,0,0,0,1.356-.337,1.264,1.264,0,0,0,.3-1.562,1.683,1.683,0,0,0-.413-.46,4.1,4.1,0,0,0-.624-.4q-.36-.19-.776-.4-.439-.223-.82-.451a3.555,3.555,0,0,1-.662-.5,2.1,2.1,0,0,1-.442-.624,2.127,2.127,0,0,1,.091-1.816,2.161,2.161,0,0,1,.662-.7,3,3,0,0,1,.935-.41,4.279,4.279,0,0,1,1.069-.135,4.1,4.1,0,0,1,1.811.3v1.107a3.282,3.282,0,0,0-1.91-.516,3.142,3.142,0,0,0-.645.067,1.821,1.821,0,0,0-.574.22,1.272,1.272,0,0,0-.41.393,1.042,1.042,0,0,0-.158.586,1.206,1.206,0,0,0,.12.557,1.364,1.364,0,0,0,.354.428,3.531,3.531,0,0,0,.571.375q.337.182.776.4t.855.469a3.91,3.91,0,0,1,.709.545,2.422,2.422,0,0,1,.483.662,1.861,1.861,0,0,1,.179.832,2.11,2.11,0,0,1-.243,1.052,2,2,0,0,1-.656.7,2.866,2.866,0,0,1-.952.39,5.215,5.215,0,0,1-1.137.12,4.632,4.632,0,0,1-.492-.032q-.293-.032-.6-.094a4.877,4.877,0,0,1-.577-.152A1.8,1.8,0,0,1,29.824,204.5Z"/><path d="M40.085,196.442l-4.031,9.8h-.9l4.02-9.8Z"/><path d="M45.9,197.333H43.474v7.512H42.49v-7.512H40.07v-.891H45.9Z"/><path d="M46.423,204.5v-1.16a2.253,2.253,0,0,0,.478.316,3.869,3.869,0,0,0,.586.237,4.664,4.664,0,0,0,.618.149,3.447,3.447,0,0,0,.574.053,2.249,2.249,0,0,0,1.356-.337,1.264,1.264,0,0,0,.3-1.562,1.683,1.683,0,0,0-.413-.46,4.1,4.1,0,0,0-.624-.4q-.36-.19-.776-.4-.439-.223-.82-.451a3.555,3.555,0,0,1-.662-.5,2.1,2.1,0,0,1-.442-.624,2.127,2.127,0,0,1,.091-1.816,2.161,2.161,0,0,1,.662-.7,3,3,0,0,1,.935-.41,4.279,4.279,0,0,1,1.069-.135,4.1,4.1,0,0,1,1.811.3v1.107a3.282,3.282,0,0,0-1.91-.516,3.142,3.142,0,0,0-.645.067,1.821,1.821,0,0,0-.574.22,1.272,1.272,0,0,0-.41.393,1.042,1.042,0,0,0-.158.586,1.206,1.206,0,0,0,.12.557,1.364,1.364,0,0,0,.354.428,3.531,3.531,0,0,0,.571.375q.337.182.776.4t.855.469a3.91,3.91,0,0,1,.709.545,2.422,2.422,0,0,1,.483.662,1.861,1.861,0,0,1,.179.832,2.11,2.11,0,0,1-.243,1.052,2,2,0,0,1-.656.7,2.866,2.866,0,0,1-.952.39,5.215,5.215,0,0,1-1.137.12,4.632,4.632,0,0,1-.492-.032q-.293-.032-.6-.094a4.877,4.877,0,0,1-.577-.152A1.8,1.8,0,0,1,46.423,204.5Z"/><path d="M62.166,204.845H60.994l-1.406-2.355a5.13,5.13,0,0,0-.375-.56,2.138,2.138,0,0,0-.372-.378,1.289,1.289,0,0,0-.41-.214,1.687,1.687,0,0,0-.5-.067h-.809v3.574h-.984v-8.4H58.65a3.574,3.574,0,0,1,1.017.138,2.275,2.275,0,0,1,.809.419,1.947,1.947,0,0,1,.536.7,2.322,2.322,0,0,1,.193.981,2.363,2.363,0,0,1-.132.806,2.1,2.1,0,0,1-.375.653,2.273,2.273,0,0,1-.586.489,2.991,2.991,0,0,1-.771.313v.023a1.772,1.772,0,0,1,.366.214,2.015,2.015,0,0,1,.3.284,3.764,3.764,0,0,1,.278.372q.138.208.308.483Zm-5.039-7.512v3.047h1.336a2.026,2.026,0,0,0,.683-.111,1.58,1.58,0,0,0,.542-.319,1.448,1.448,0,0,0,.357-.51,1.707,1.707,0,0,0,.129-.677,1.317,1.317,0,0,0-.437-1.052,1.875,1.875,0,0,0-1.263-.378Z"/><path d="M67.494,202.085H63.257a2.244,2.244,0,0,0,.539,1.547,1.858,1.858,0,0,0,1.418.545,2.948,2.948,0,0,0,1.863-.668v.9a3.482,3.482,0,0,1-2.092.574,2.536,2.536,0,0,1-2-.817,3.346,3.346,0,0,1-.727-2.3,3.281,3.281,0,0,1,.794-2.282,2.546,2.546,0,0,1,1.972-.882,2.256,2.256,0,0,1,1.822.762,3.176,3.176,0,0,1,.645,2.115Zm-.984-.814a1.955,1.955,0,0,0-.4-1.295,1.368,1.368,0,0,0-1.1-.463,1.552,1.552,0,0,0-1.154.486,2.207,2.207,0,0,0-.586,1.271Z"/><path d="M71.743,196.806a1.28,1.28,0,0,0-.639-.158q-1.008,0-1.008,1.271v.926H71.5v.82H70.1v5.18h-.955v-5.18H68.116v-.82h1.025v-.973a2.021,2.021,0,0,1,.545-1.491,1.84,1.84,0,0,1,1.359-.548,1.883,1.883,0,0,1,.7.105Z"/><path d="M76.661,204.845H75.7v-.937h-.023a2.012,2.012,0,0,1-1.846,1.078,1.973,1.973,0,0,1-1.4-.475,1.644,1.644,0,0,1-.507-1.26q0-1.682,1.98-1.957l1.8-.252q0-1.529-1.236-1.529a2.954,2.954,0,0,0-1.957.738v-.984a3.718,3.718,0,0,1,2.039-.562q2.115,0,2.115,2.238ZM75.7,201.81l-1.447.2a2.35,2.35,0,0,0-1.008.331.955.955,0,0,0-.34.841.916.916,0,0,0,.313.718,1.211,1.211,0,0,0,.835.278,1.542,1.542,0,0,0,1.181-.5,1.79,1.79,0,0,0,.466-1.269Z"/><path d="M82.394,204.569a3.122,3.122,0,0,1-1.641.416,2.716,2.716,0,0,1-2.071-.835,3.026,3.026,0,0,1-.788-2.165,3.326,3.326,0,0,1,.85-2.382,2.972,2.972,0,0,1,2.268-.9,3.156,3.156,0,0,1,1.395.293v.984a2.443,2.443,0,0,0-1.43-.469,1.932,1.932,0,0,0-1.509.659,2.5,2.5,0,0,0-.589,1.731,2.382,2.382,0,0,0,.554,1.664,1.909,1.909,0,0,0,1.485.609,2.408,2.408,0,0,0,1.477-.521Z"/><path d="M86.462,204.786a1.853,1.853,0,0,1-.9.188q-1.576,0-1.576-1.758v-3.551H82.958v-.82h1.031V197.38l.961-.311v1.775h1.512v.82H84.95v3.381a1.4,1.4,0,0,0,.205.861.818.818,0,0,0,.68.258,1.01,1.01,0,0,0,.627-.2Z"/><path d="M90.085,204.985a2.783,2.783,0,0,1-2.124-.841,3.114,3.114,0,0,1-.794-2.229,3.244,3.244,0,0,1,.826-2.361,2.97,2.97,0,0,1,2.232-.85,2.691,2.691,0,0,1,2.095.826,3.276,3.276,0,0,1,.753,2.291,3.223,3.223,0,0,1-.812,2.3A2.844,2.844,0,0,1,90.085,204.985Zm.07-5.473a1.828,1.828,0,0,0-1.465.63,2.587,2.587,0,0,0-.539,1.737,2.447,2.447,0,0,0,.545,1.682,1.852,1.852,0,0,0,1.459.615,1.757,1.757,0,0,0,1.433-.6,2.619,2.619,0,0,0,.5-1.717,2.664,2.664,0,0,0-.5-1.734A1.749,1.749,0,0,0,90.155,199.513Z"/><path d="M97.569,199.817a1.175,1.175,0,0,0-.727-.193,1.226,1.226,0,0,0-1.028.58,2.682,2.682,0,0,0-.413,1.582v3.059H94.44v-6H95.4v1.236h.023a2.1,2.1,0,0,1,.627-.987,1.43,1.43,0,0,1,.943-.354,1.569,1.569,0,0,1,.574.082Z"/><path d="M98.937,197.321a.609.609,0,0,1-.439-.176.593.593,0,0,1-.182-.445.615.615,0,0,1,.621-.627.621.621,0,0,1,.448.179.626.626,0,0,1,0,.888A.615.615,0,0,1,98.937,197.321Zm.469,7.523h-.961v-6h.961Z"/><path d="M106.163,204.845H105.2v-3.422q0-1.91-1.395-1.91a1.513,1.513,0,0,0-1.192.542,2.009,2.009,0,0,0-.472,1.368v3.422h-.961v-6h.961v1h.023a2.166,2.166,0,0,1,1.969-1.137,1.836,1.836,0,0,1,1.506.636,2.832,2.832,0,0,1,.521,1.837Z"/><path d="M112.927,204.364q0,3.3-3.164,3.3a4.248,4.248,0,0,1-1.945-.422v-.961a4,4,0,0,0,1.934.563q2.215,0,2.215-2.355v-.656h-.023a2.428,2.428,0,0,1-3.864.349,3.2,3.2,0,0,1-.683-2.147,3.735,3.735,0,0,1,.735-2.432,2.457,2.457,0,0,1,2.013-.9,1.956,1.956,0,0,1,1.8.973h.023v-.832h.961Zm-.961-2.232v-.885a1.717,1.717,0,0,0-.483-1.225,1.591,1.591,0,0,0-1.2-.51,1.669,1.669,0,0,0-1.395.647,2.89,2.89,0,0,0-.5,1.813,2.481,2.481,0,0,0,.483,1.6,1.562,1.562,0,0,0,1.28.6,1.673,1.673,0,0,0,1.315-.574A2.14,2.14,0,0,0,111.966,202.132Z"/><path d="M466.129,226.651h-1.635l-1.336-3.533h-5.344l-1.257,3.533h-1.644l4.834-12.6h1.529Zm-3.454-4.86-1.978-5.37a5.142,5.142,0,0,1-.193-.844h-.035a4.708,4.708,0,0,1-.2.844l-1.96,5.37Z"/><path d="M469.015,225.351h-.035v5.44h-1.441v-13.14h1.441v1.582h.035a3.408,3.408,0,0,1,3.111-1.793,3.3,3.3,0,0,1,2.716,1.208,5.005,5.005,0,0,1,.976,3.239,5.578,5.578,0,0,1-1.1,3.617,3.658,3.658,0,0,1-3.006,1.358A3.011,3.011,0,0,1,469.015,225.351Zm-.035-3.63v1.257a2.676,2.676,0,0,0,.725,1.894,2.587,2.587,0,0,0,3.894-.224,4.6,4.6,0,0,0,.743-2.786,3.629,3.629,0,0,0-.694-2.355,2.3,2.3,0,0,0-1.881-.853,2.554,2.554,0,0,0-2.021.875A3.211,3.211,0,0,0,468.979,221.721Z"/><path d="M482.562,219.11a1.763,1.763,0,0,0-1.09-.29,1.839,1.839,0,0,0-1.542.87,4.023,4.023,0,0,0-.62,2.373v4.588h-1.441v-9h1.441v1.854h.035a3.143,3.143,0,0,1,.94-1.481,2.144,2.144,0,0,1,1.415-.532,2.353,2.353,0,0,1,.861.123Z"/><path d="M493.879,217.353a2.606,2.606,0,0,0-.18-1.011,1.957,1.957,0,0,0-1.226-1.143,2.874,2.874,0,0,0-.914-.141,3.023,3.023,0,0,0-.826.114,4.016,4.016,0,0,0-.787.316,4.839,4.839,0,0,0-.738.483,5.333,5.333,0,0,0-.664.624V215.05a4.309,4.309,0,0,1,1.358-.9,4.781,4.781,0,0,1,1.833-.312,4.424,4.424,0,0,1,1.433.224,3.285,3.285,0,0,1,1.143.655,3.027,3.027,0,0,1,.76,1.063,3.587,3.587,0,0,1,.277,1.45,4.973,4.973,0,0,1-.171,1.354,4.186,4.186,0,0,1-.519,1.143,5.513,5.513,0,0,1-.875,1.028,12.388,12.388,0,0,1-1.239,1q-.888.633-1.463,1.081a6.469,6.469,0,0,0-.914.839,2.436,2.436,0,0,0-.475.782,2.734,2.734,0,0,0-.136.9h6.275v1.292h-7.778v-.624a5.2,5.2,0,0,1,.176-1.424,3.7,3.7,0,0,1,.58-1.169,6.487,6.487,0,0,1,1.059-1.107q.655-.554,1.6-1.248a10.141,10.141,0,0,0,1.147-.94,4.889,4.889,0,0,0,.743-.9,3.22,3.22,0,0,0,.4-.91A3.922,3.922,0,0,0,493.879,217.353Z"/><path d="M505.51,220.3a12.381,12.381,0,0,1-.286,2.8,6.533,6.533,0,0,1-.826,2.061,3.718,3.718,0,0,1-1.327,1.274,3.633,3.633,0,0,1-1.789.435,3.393,3.393,0,0,1-1.692-.417,3.546,3.546,0,0,1-1.252-1.217,6.17,6.17,0,0,1-.773-1.964,12.146,12.146,0,0,1-.264-2.667,13.749,13.749,0,0,1,.277-2.918,6.674,6.674,0,0,1,.813-2.123,3.619,3.619,0,0,1,1.332-1.292,3.739,3.739,0,0,1,1.824-.435Q505.51,213.837,505.51,220.3Zm-1.477.141q0-5.379-2.558-5.379-2.7,0-2.7,5.476,0,5.106,2.646,5.106Q504.033,225.641,504.033,220.438Z"/><path d="M512.359,226.651h-1.441v-10.89a3.336,3.336,0,0,1-.488.382,7.951,7.951,0,0,1-.721.426q-.4.211-.844.4a6.132,6.132,0,0,1-.866.29V215.8a8.379,8.379,0,0,0,1.006-.356q.532-.224,1.046-.5t.971-.58a7.71,7.71,0,0,0,.791-.593h.545Z"/><path d="M524.324,214.883q-.29.5-.7,1.248t-.866,1.679q-.457.932-.932,2t-.888,2.215q-.413,1.143-.725,2.316a17.229,17.229,0,0,0-.453,2.307h-1.547a17.526,17.526,0,0,1,.488-2.3q.33-1.173.747-2.3t.883-2.175q.466-1.046.905-1.925t.8-1.551q.365-.672.584-1.05h-6.319v-1.3h8.016Z"/><path d="M455.43,245.777v-1.16a2.253,2.253,0,0,0,.478.316,3.869,3.869,0,0,0,.586.237,4.664,4.664,0,0,0,.618.149,3.447,3.447,0,0,0,.574.053,2.249,2.249,0,0,0,1.356-.337,1.264,1.264,0,0,0,.3-1.562,1.683,1.683,0,0,0-.413-.46,4.1,4.1,0,0,0-.624-.4q-.36-.19-.776-.4-.439-.223-.82-.451a3.555,3.555,0,0,1-.662-.5,2.1,2.1,0,0,1-.442-.624,2.127,2.127,0,0,1,.091-1.816,2.161,2.161,0,0,1,.662-.7,3,3,0,0,1,.935-.41,4.279,4.279,0,0,1,1.069-.135,4.1,4.1,0,0,1,1.811.3v1.107a3.282,3.282,0,0,0-1.91-.516,3.141,3.141,0,0,0-.645.067,1.821,1.821,0,0,0-.574.22,1.272,1.272,0,0,0-.41.393,1.042,1.042,0,0,0-.158.586,1.206,1.206,0,0,0,.12.557,1.364,1.364,0,0,0,.354.428,3.531,3.531,0,0,0,.571.375q.337.182.776.4t.855.469a3.91,3.91,0,0,1,.709.545,2.422,2.422,0,0,1,.483.662,1.861,1.861,0,0,1,.179.832,2.11,2.11,0,0,1-.243,1.052,2,2,0,0,1-.656.7,2.866,2.866,0,0,1-.952.39,5.215,5.215,0,0,1-1.137.12,4.632,4.632,0,0,1-.492-.032q-.293-.032-.6-.094a4.877,4.877,0,0,1-.577-.152A1.8,1.8,0,0,1,455.43,245.777Z"/><path d="M464.408,246.257a2.783,2.783,0,0,1-2.124-.841,3.114,3.114,0,0,1-.794-2.229,3.244,3.244,0,0,1,.826-2.361,2.97,2.97,0,0,1,2.232-.85,2.691,2.691,0,0,1,2.095.826,3.276,3.276,0,0,1,.753,2.291,3.223,3.223,0,0,1-.812,2.3A2.844,2.844,0,0,1,464.408,246.257Zm.07-5.473a1.828,1.828,0,0,0-1.465.63,2.587,2.587,0,0,0-.539,1.737,2.447,2.447,0,0,0,.545,1.682,1.852,1.852,0,0,0,1.459.615,1.757,1.757,0,0,0,1.433-.6,2.619,2.619,0,0,0,.5-1.717,2.664,2.664,0,0,0-.5-1.734A1.749,1.749,0,0,0,464.479,240.785Z"/><path d="M473.615,246.117h-.961v-.949h-.023a1.973,1.973,0,0,1-1.852,1.09q-2.145,0-2.145-2.555v-3.586h.955v3.434q0,1.9,1.453,1.9a1.47,1.47,0,0,0,1.157-.519,1.984,1.984,0,0,0,.454-1.356v-3.457h.961Z"/><path d="M478.516,241.089a1.175,1.175,0,0,0-.727-.193,1.226,1.226,0,0,0-1.028.58,2.682,2.682,0,0,0-.413,1.582v3.059h-.961v-6h.961v1.236h.023a2.1,2.1,0,0,1,.627-.987,1.43,1.43,0,0,1,.943-.354,1.569,1.569,0,0,1,.574.082Z"/><path d="M483.48,245.841a3.122,3.122,0,0,1-1.641.416,2.716,2.716,0,0,1-2.071-.835,3.026,3.026,0,0,1-.788-2.165,3.326,3.326,0,0,1,.85-2.382,2.972,2.972,0,0,1,2.268-.9,3.156,3.156,0,0,1,1.395.293v.984a2.443,2.443,0,0,0-1.43-.469,1.932,1.932,0,0,0-1.509.659,2.5,2.5,0,0,0-.589,1.731,2.382,2.382,0,0,0,.554,1.664,1.909,1.909,0,0,0,1.485.609,2.408,2.408,0,0,0,1.477-.521Z"/><path d="M489.588,243.357h-4.236a2.244,2.244,0,0,0,.539,1.547,1.858,1.858,0,0,0,1.418.545,2.948,2.948,0,0,0,1.863-.668v.9a3.482,3.482,0,0,1-2.092.574,2.536,2.536,0,0,1-2-.817,3.346,3.346,0,0,1-.727-2.3,3.281,3.281,0,0,1,.794-2.282,2.546,2.546,0,0,1,1.972-.882,2.256,2.256,0,0,1,1.822.762,3.176,3.176,0,0,1,.645,2.115Zm-.984-.814a1.955,1.955,0,0,0-.4-1.295,1.368,1.368,0,0,0-1.1-.463,1.552,1.552,0,0,0-1.154.486,2.207,2.207,0,0,0-.586,1.271Z"/><path d="M499.84,245.765a4.928,4.928,0,0,1-2.32.492,3.742,3.742,0,0,1-2.871-1.154,4.259,4.259,0,0,1-1.078-3.029,4.464,4.464,0,0,1,1.213-3.258,4.117,4.117,0,0,1,3.076-1.242,4.932,4.932,0,0,1,1.98.346v1.049a4.016,4.016,0,0,0-1.992-.5,3.057,3.057,0,0,0-2.347.967,3.642,3.642,0,0,0-.9,2.584,3.465,3.465,0,0,0,.841,2.446,2.861,2.861,0,0,0,2.206.911,4.139,4.139,0,0,0,2.191-.562Z"/><path d="M503.761,246.257a2.783,2.783,0,0,1-2.124-.841,3.114,3.114,0,0,1-.794-2.229,3.244,3.244,0,0,1,.826-2.361,2.97,2.97,0,0,1,2.232-.85A2.691,2.691,0,0,1,506,240.8a3.276,3.276,0,0,1,.753,2.291,3.223,3.223,0,0,1-.812,2.3A2.844,2.844,0,0,1,503.761,246.257Zm.07-5.473a1.828,1.828,0,0,0-1.465.63,2.587,2.587,0,0,0-.539,1.737,2.447,2.447,0,0,0,.545,1.682,1.852,1.852,0,0,0,1.459.615,1.757,1.757,0,0,0,1.433-.6,2.619,2.619,0,0,0,.5-1.717,2.664,2.664,0,0,0-.5-1.734A1.749,1.749,0,0,0,503.832,240.785Z"/><path d="M513.1,246.117h-.961v-3.422q0-1.91-1.395-1.91a1.513,1.513,0,0,0-1.192.542,2.009,2.009,0,0,0-.472,1.368v3.422h-.961v-6h.961v1h.023a2.166,2.166,0,0,1,1.969-1.137,1.836,1.836,0,0,1,1.506.636,2.832,2.832,0,0,1,.521,1.837Z"/><path d="M517.523,246.058a1.853,1.853,0,0,1-.9.188q-1.576,0-1.576-1.758v-3.551h-1.031v-.82h1.031v-1.465l.961-.311v1.775h1.512v.82h-1.512v3.381a1.4,1.4,0,0,0,.205.861.818.818,0,0,0,.68.258,1.01,1.01,0,0,0,.627-.2Z"/><path d="M521.767,241.089a1.175,1.175,0,0,0-.727-.193,1.226,1.226,0,0,0-1.028.58,2.682,2.682,0,0,0-.413,1.582v3.059h-.961v-6h.961v1.236h.023a2.1,2.1,0,0,1,.627-.987,1.43,1.43,0,0,1,.943-.354,1.569,1.569,0,0,1,.574.082Z"/><path d="M525.15,246.257a2.783,2.783,0,0,1-2.124-.841,3.114,3.114,0,0,1-.794-2.229,3.244,3.244,0,0,1,.826-2.361,2.97,2.97,0,0,1,2.232-.85,2.691,2.691,0,0,1,2.095.826,3.276,3.276,0,0,1,.753,2.291,3.223,3.223,0,0,1-.812,2.3A2.844,2.844,0,0,1,525.15,246.257Zm.07-5.473a1.828,1.828,0,0,0-1.465.63,2.587,2.587,0,0,0-.539,1.737,2.447,2.447,0,0,0,.545,1.682,1.852,1.852,0,0,0,1.459.615,1.757,1.757,0,0,0,1.433-.6,2.619,2.619,0,0,0,.5-1.717,2.664,2.664,0,0,0-.5-1.734A1.749,1.749,0,0,0,525.22,240.785Z"/><path d="M530.466,246.117h-.961v-8.883h.961Z"/><path d="M536.476,242.941v3.176h-.984v-8.4H537.8a3.047,3.047,0,0,1,2.089.656,2.343,2.343,0,0,1,.741,1.852,2.547,2.547,0,0,1-.823,1.957,3.145,3.145,0,0,1-2.224.762Zm0-4.336v3.445h1.031a2.306,2.306,0,0,0,1.556-.466,1.649,1.649,0,0,0,.536-1.315q0-1.664-1.969-1.664Z"/><path d="M545.044,241.089a1.175,1.175,0,0,0-.727-.193,1.226,1.226,0,0,0-1.028.58,2.682,2.682,0,0,0-.413,1.582v3.059h-.961v-6h.961v1.236h.023a2.1,2.1,0,0,1,.627-.987,1.43,1.43,0,0,1,.943-.354,1.569,1.569,0,0,1,.574.082Z"/><path d="M548.427,246.257a2.783,2.783,0,0,1-2.124-.841,3.114,3.114,0,0,1-.794-2.229,3.244,3.244,0,0,1,.826-2.361,2.97,2.97,0,0,1,2.232-.85,2.691,2.691,0,0,1,2.095.826,3.276,3.276,0,0,1,.753,2.291,3.223,3.223,0,0,1-.812,2.3A2.844,2.844,0,0,1,548.427,246.257Zm.07-5.473a1.828,1.828,0,0,0-1.465.63,2.587,2.587,0,0,0-.539,1.737,2.447,2.447,0,0,0,.545,1.682,1.852,1.852,0,0,0,1.459.615,1.757,1.757,0,0,0,1.433-.6,2.619,2.619,0,0,0,.5-1.717,2.664,2.664,0,0,0-.5-1.734A1.749,1.749,0,0,0,548.5,240.785Z"/><path d="M557.5,240.117l-2.391,6h-.943l-2.273-6h1.055l1.523,4.359a3.913,3.913,0,0,1,.211.838h.023a3.962,3.962,0,0,1,.188-.814l1.594-4.383Z"/><path d="M558.855,238.593a.609.609,0,0,1-.439-.176.593.593,0,0,1-.182-.445.615.615,0,0,1,.621-.627.621.621,0,0,1,.448.179.626.626,0,0,1,0,.888A.615.615,0,0,1,558.855,238.593Zm.469,7.523h-.961v-6h.961Z"/><path d="M566.222,246.117h-.961V245.1h-.023a2.218,2.218,0,0,1-2.062,1.16,2.241,2.241,0,0,1-1.808-.806,3.305,3.305,0,0,1-.677-2.194,3.6,3.6,0,0,1,.75-2.385,2.474,2.474,0,0,1,2-.9,1.923,1.923,0,0,1,1.8.973h.023v-3.715h.961Zm-.961-2.713v-.885a1.717,1.717,0,0,0-.48-1.23,1.612,1.612,0,0,0-1.219-.5,1.659,1.659,0,0,0-1.383.645,2.824,2.824,0,0,0-.5,1.781,2.54,2.54,0,0,0,.483,1.638,1.58,1.58,0,0,0,1.3.6,1.641,1.641,0,0,0,1.3-.58A2.161,2.161,0,0,0,565.261,243.4Z"/><path d="M572.822,243.357h-4.236a2.244,2.244,0,0,0,.539,1.547,1.858,1.858,0,0,0,1.418.545,2.948,2.948,0,0,0,1.863-.668v.9a3.482,3.482,0,0,1-2.092.574,2.536,2.536,0,0,1-2-.817,3.346,3.346,0,0,1-.727-2.3,3.281,3.281,0,0,1,.794-2.282,2.546,2.546,0,0,1,1.972-.882,2.256,2.256,0,0,1,1.822.762,3.176,3.176,0,0,1,.645,2.115Zm-.984-.814a1.955,1.955,0,0,0-.4-1.295,1.368,1.368,0,0,0-1.1-.463,1.552,1.552,0,0,0-1.154.486,2.207,2.207,0,0,0-.586,1.271Z"/><path d="M577.236,241.089a1.175,1.175,0,0,0-.727-.193,1.226,1.226,0,0,0-1.028.58,2.682,2.682,0,0,0-.413,1.582v3.059h-.961v-6h.961v1.236h.023a2.1,2.1,0,0,1,.627-.987,1.43,1.43,0,0,1,.943-.354,1.569,1.569,0,0,1,.574.082Z"/><path d="M577.748,245.9v-1.031a2.844,2.844,0,0,0,1.729.58q1.266,0,1.266-.844a.732.732,0,0,0-.108-.407,1.08,1.08,0,0,0-.293-.3,2.255,2.255,0,0,0-.434-.231q-.249-.1-.536-.214a6.9,6.9,0,0,1-.7-.319,2.115,2.115,0,0,1-.5-.363,1.352,1.352,0,0,1-.3-.46,1.627,1.627,0,0,1-.1-.6,1.434,1.434,0,0,1,.193-.747,1.715,1.715,0,0,1,.516-.545,2.4,2.4,0,0,1,.735-.331,3.262,3.262,0,0,1,.853-.111,3.442,3.442,0,0,1,1.395.27v.973a2.718,2.718,0,0,0-1.523-.434,1.781,1.781,0,0,0-.486.062,1.191,1.191,0,0,0-.372.173.8.8,0,0,0-.24.267.7.7,0,0,0-.085.343.822.822,0,0,0,.085.393.864.864,0,0,0,.249.281,1.9,1.9,0,0,0,.4.223q.234.1.533.217a7.421,7.421,0,0,1,.715.313,2.452,2.452,0,0,1,.539.363,1.42,1.42,0,0,1,.343.466,1.5,1.5,0,0,1,.12.627,1.478,1.478,0,0,1-.2.773,1.682,1.682,0,0,1-.524.545,2.4,2.4,0,0,1-.756.322,3.732,3.732,0,0,1-.9.105A3.4,3.4,0,0,1,577.748,245.9Z"/><path d="M409.777,350.57a5.633,5.633,0,0,1-.949,3.485,3.033,3.033,0,0,1-2.54,1.244,3,3,0,0,1-1.213-.211v-1.459a2.052,2.052,0,0,0,1.23.343q2,0,2-3.384v-8.1h1.477Z"/><path d="M418.974,355.087h-1.441v-1.406H417.5a3.018,3.018,0,0,1-2.769,1.617,2.959,2.959,0,0,1-2.1-.712,2.466,2.466,0,0,1-.76-1.89q0-2.522,2.971-2.936l2.7-.378q0-2.294-1.854-2.294a4.431,4.431,0,0,0-2.936,1.107V346.72a5.577,5.577,0,0,1,3.059-.844q3.173,0,3.173,3.357Zm-1.441-4.553-2.171.3a3.525,3.525,0,0,0-1.512.5,1.432,1.432,0,0,0-.51,1.261,1.374,1.374,0,0,0,.47,1.077,1.817,1.817,0,0,0,1.252.417,2.314,2.314,0,0,0,1.771-.751,2.685,2.685,0,0,0,.7-1.9Z"/><path d="M428.908,355.087h-1.441v-5.133q0-2.865-2.092-2.865a2.269,2.269,0,0,0-1.789.813,3.013,3.013,0,0,0-.708,2.052v5.133h-1.441v-9h1.441v1.494h.035a3.248,3.248,0,0,1,2.953-1.705,2.753,2.753,0,0,1,2.259.954,4.248,4.248,0,0,1,.782,2.755Z"/><path d="M441.377,345.789a2.606,2.606,0,0,0-.18-1.011,1.957,1.957,0,0,0-1.226-1.143,2.874,2.874,0,0,0-.914-.141,3.023,3.023,0,0,0-.826.114,4.016,4.016,0,0,0-.787.316,4.839,4.839,0,0,0-.738.483,5.333,5.333,0,0,0-.664.624v-1.547a4.309,4.309,0,0,1,1.358-.9,4.781,4.781,0,0,1,1.833-.312,4.424,4.424,0,0,1,1.433.224,3.285,3.285,0,0,1,1.143.655,3.027,3.027,0,0,1,.76,1.063,3.587,3.587,0,0,1,.277,1.45,4.973,4.973,0,0,1-.171,1.354,4.186,4.186,0,0,1-.519,1.143,5.513,5.513,0,0,1-.875,1.028,12.388,12.388,0,0,1-1.239,1q-.888.633-1.463,1.081a6.469,6.469,0,0,0-.914.839,2.436,2.436,0,0,0-.475.782,2.734,2.734,0,0,0-.136.9h6.275v1.292H435.55v-.624a5.2,5.2,0,0,1,.176-1.424,3.7,3.7,0,0,1,.58-1.169,6.487,6.487,0,0,1,1.059-1.107q.655-.554,1.6-1.248a10.141,10.141,0,0,0,1.147-.94,4.889,4.889,0,0,0,.743-.9,3.22,3.22,0,0,0,.4-.91A3.922,3.922,0,0,0,441.377,345.789Z"/><path d="M453.008,348.733a12.381,12.381,0,0,1-.286,2.8,6.533,6.533,0,0,1-.826,2.061,3.718,3.718,0,0,1-1.327,1.274,3.633,3.633,0,0,1-1.789.435,3.393,3.393,0,0,1-1.692-.417,3.546,3.546,0,0,1-1.252-1.217,6.17,6.17,0,0,1-.773-1.964,12.146,12.146,0,0,1-.264-2.667,13.749,13.749,0,0,1,.277-2.918,6.674,6.674,0,0,1,.813-2.123,3.619,3.619,0,0,1,1.332-1.292,3.739,3.739,0,0,1,1.824-.435Q453.008,342.273,453.008,348.733Zm-1.477.141q0-5.379-2.558-5.379-2.7,0-2.7,5.476,0,5.106,2.646,5.106Q451.531,354.077,451.531,348.874Z"/><path d="M459.857,355.087h-1.441V344.2a3.336,3.336,0,0,1-.488.382,7.951,7.951,0,0,1-.721.426q-.4.211-.844.4a6.132,6.132,0,0,1-.866.29v-1.459a8.379,8.379,0,0,0,1.006-.356q.532-.224,1.046-.5t.971-.58a7.71,7.71,0,0,0,.791-.593h.545Z"/><path d="M471.822,343.319q-.29.5-.7,1.248t-.866,1.679q-.457.932-.932,2t-.888,2.215q-.413,1.143-.725,2.316a17.229,17.229,0,0,0-.453,2.307h-1.547a17.526,17.526,0,0,1,.488-2.3q.33-1.173.747-2.3t.883-2.175q.466-1.046.905-1.925t.8-1.551q.365-.672.584-1.05h-6.319v-1.3h8.016Z"/><path d="M406.985,374.553H406v-8.4h.984Z"/><path d="M413.878,374.553h-.961v-3.422q0-1.91-1.395-1.91a1.513,1.513,0,0,0-1.192.542,2.009,2.009,0,0,0-.472,1.368v3.422H408.9v-6h.961v1h.023a2.166,2.166,0,0,1,1.969-1.137,1.836,1.836,0,0,1,1.506.636,2.832,2.832,0,0,1,.521,1.837Z"/><path d="M418.3,374.494a1.853,1.853,0,0,1-.9.188q-1.576,0-1.576-1.758v-3.551H414.8v-.82h1.031v-1.465l.961-.311v1.775H418.3v.82h-1.512v3.381a1.4,1.4,0,0,0,.205.861.818.818,0,0,0,.68.258,1.01,1.01,0,0,0,.627-.2Z"/><path d="M424.241,371.793H420a2.244,2.244,0,0,0,.539,1.547,1.858,1.858,0,0,0,1.418.545,2.948,2.948,0,0,0,1.863-.668v.9a3.482,3.482,0,0,1-2.092.574,2.536,2.536,0,0,1-2-.817,3.346,3.346,0,0,1-.727-2.3,3.281,3.281,0,0,1,.794-2.282,2.546,2.546,0,0,1,1.972-.882,2.256,2.256,0,0,1,1.822.762,3.176,3.176,0,0,1,.645,2.115Zm-.984-.814a1.955,1.955,0,0,0-.4-1.295,1.368,1.368,0,0,0-1.1-.463,1.552,1.552,0,0,0-1.154.486,2.207,2.207,0,0,0-.586,1.271Z"/><path d="M428.655,369.525a1.175,1.175,0,0,0-.727-.193,1.226,1.226,0,0,0-1.028.58,2.682,2.682,0,0,0-.413,1.582v3.059h-.961v-6h.961v1.236h.023a2.1,2.1,0,0,1,.627-.987,1.43,1.43,0,0,1,.943-.354,1.569,1.569,0,0,1,.574.082Z"/><path d="M433.825,374.553h-.961v-.937h-.023A2.012,2.012,0,0,1,431,374.693a1.973,1.973,0,0,1-1.4-.475,1.644,1.644,0,0,1-.507-1.26q0-1.682,1.98-1.957l1.8-.252q0-1.529-1.236-1.529a2.954,2.954,0,0,0-1.957.738v-.984a3.718,3.718,0,0,1,2.039-.562q2.115,0,2.115,2.238Zm-.961-3.035-1.447.2a2.35,2.35,0,0,0-1.008.331.955.955,0,0,0-.34.841.916.916,0,0,0,.313.718,1.211,1.211,0,0,0,.835.278,1.542,1.542,0,0,0,1.181-.5,1.79,1.79,0,0,0,.466-1.269Z"/><path d="M439.558,374.277a3.122,3.122,0,0,1-1.641.416,2.716,2.716,0,0,1-2.071-.835,3.026,3.026,0,0,1-.788-2.165,3.326,3.326,0,0,1,.85-2.382,2.972,2.972,0,0,1,2.268-.9,3.156,3.156,0,0,1,1.395.293v.984a2.443,2.443,0,0,0-1.43-.469,1.932,1.932,0,0,0-1.509.659,2.5,2.5,0,0,0-.589,1.731,2.382,2.382,0,0,0,.554,1.664,1.909,1.909,0,0,0,1.485.609,2.408,2.408,0,0,0,1.477-.521Z"/><path d="M443.626,374.494a1.853,1.853,0,0,1-.9.188q-1.576,0-1.576-1.758v-3.551h-1.031v-.82h1.031v-1.465l.961-.311v1.775h1.512v.82h-1.512v3.381a1.4,1.4,0,0,0,.205.861.818.818,0,0,0,.68.258,1.01,1.01,0,0,0,.627-.2Z"/><path d="M445.233,367.029a.609.609,0,0,1-.439-.176.593.593,0,0,1-.182-.445.615.615,0,0,1,.621-.627.621.621,0,0,1,.448.179.626.626,0,0,1,0,.888A.615.615,0,0,1,445.233,367.029Zm.469,7.523h-.961v-6h.961Z"/><path d="M452.2,368.553l-2.391,6h-.943l-2.273-6h1.055l1.523,4.359a3.913,3.913,0,0,1,.211.838h.023a3.962,3.962,0,0,1,.188-.814l1.594-4.383Z"/><path d="M457.881,371.793h-4.236a2.244,2.244,0,0,0,.539,1.547,1.858,1.858,0,0,0,1.418.545,2.948,2.948,0,0,0,1.863-.668v.9a3.482,3.482,0,0,1-2.092.574,2.536,2.536,0,0,1-2-.817,3.346,3.346,0,0,1-.727-2.3,3.281,3.281,0,0,1,.794-2.282,2.546,2.546,0,0,1,1.972-.882,2.256,2.256,0,0,1,1.822.762,3.176,3.176,0,0,1,.645,2.115Zm-.984-.814a1.955,1.955,0,0,0-.4-1.295,1.368,1.368,0,0,0-1.1-.463,1.552,1.552,0,0,0-1.154.486,2.207,2.207,0,0,0-.586,1.271Z"/><path d="M463.4,371.377v3.176h-.984v-8.4h2.309a3.047,3.047,0,0,1,2.089.656,2.343,2.343,0,0,1,.741,1.852,2.547,2.547,0,0,1-.823,1.957,3.145,3.145,0,0,1-2.224.762Zm0-4.336v3.445h1.031a2.306,2.306,0,0,0,1.556-.466,1.649,1.649,0,0,0,.536-1.315q0-1.664-1.969-1.664Z"/><path d="M469.8,374.553h-.961V365.67h.961Z"/><path d="M475.872,374.553h-.961v-.937h-.023a2.012,2.012,0,0,1-1.846,1.078,1.973,1.973,0,0,1-1.4-.475,1.644,1.644,0,0,1-.507-1.26q0-1.682,1.98-1.957l1.8-.252q0-1.529-1.236-1.529a2.954,2.954,0,0,0-1.957.738v-.984a3.718,3.718,0,0,1,2.039-.562q2.115,0,2.115,2.238Zm-.961-3.035-1.447.2a2.35,2.35,0,0,0-1.008.331.955.955,0,0,0-.34.841.916.916,0,0,0,.313.718,1.211,1.211,0,0,0,.835.278,1.542,1.542,0,0,0,1.181-.5,1.79,1.79,0,0,0,.466-1.269Z"/><path d="M482.29,368.553l-2.76,6.961q-.738,1.863-2.074,1.863a2.2,2.2,0,0,1-.627-.076v-.861a1.781,1.781,0,0,0,.568.105,1.178,1.178,0,0,0,1.09-.867l.48-1.137-2.344-5.988h1.066l1.623,4.617q.029.088.123.457h.035q.029-.141.117-.445l1.705-4.629Z"/><path d="M488.274,374.072q0,3.3-3.164,3.3a4.248,4.248,0,0,1-1.945-.422v-.961a4,4,0,0,0,1.934.563q2.215,0,2.215-2.355v-.656h-.023a2.428,2.428,0,0,1-3.864.349,3.2,3.2,0,0,1-.683-2.147,3.735,3.735,0,0,1,.735-2.432,2.457,2.457,0,0,1,2.013-.9,1.956,1.956,0,0,1,1.8.973h.023v-.832h.961Zm-.961-2.232v-.885a1.717,1.717,0,0,0-.483-1.225,1.591,1.591,0,0,0-1.2-.51,1.669,1.669,0,0,0-1.395.647,2.89,2.89,0,0,0-.5,1.813,2.481,2.481,0,0,0,.483,1.6,1.562,1.562,0,0,0,1.28.6,1.673,1.673,0,0,0,1.315-.574A2.14,2.14,0,0,0,487.313,371.84Z"/><path d="M493.18,369.525a1.175,1.175,0,0,0-.727-.193,1.226,1.226,0,0,0-1.028.58,2.682,2.682,0,0,0-.413,1.582v3.059h-.961v-6h.961v1.236h.023a2.1,2.1,0,0,1,.627-.987,1.43,1.43,0,0,1,.943-.354,1.569,1.569,0,0,1,.574.082Z"/><path d="M496.563,374.693a2.783,2.783,0,0,1-2.124-.841,3.114,3.114,0,0,1-.794-2.229,3.244,3.244,0,0,1,.826-2.361,2.97,2.97,0,0,1,2.232-.85,2.691,2.691,0,0,1,2.095.826,3.276,3.276,0,0,1,.753,2.291,3.223,3.223,0,0,1-.812,2.3A2.844,2.844,0,0,1,496.563,374.693Zm.07-5.473a1.828,1.828,0,0,0-1.465.63,2.587,2.587,0,0,0-.539,1.737,2.447,2.447,0,0,0,.545,1.682,1.852,1.852,0,0,0,1.459.615,1.757,1.757,0,0,0,1.433-.6,2.619,2.619,0,0,0,.5-1.717,2.664,2.664,0,0,0-.5-1.734A1.749,1.749,0,0,0,496.633,369.221Z"/><path d="M505.77,374.553h-.961V373.6h-.023a1.973,1.973,0,0,1-1.852,1.09q-2.145,0-2.145-2.555v-3.586h.955v3.434q0,1.9,1.453,1.9a1.47,1.47,0,0,0,1.157-.519,1.984,1.984,0,0,0,.454-1.356v-3.457h.961Z"/><path d="M512.522,374.553h-.961v-3.422q0-1.91-1.395-1.91a1.513,1.513,0,0,0-1.192.542,2.009,2.009,0,0,0-.472,1.368v3.422h-.961v-6h.961v1h.023a2.166,2.166,0,0,1,1.969-1.137,1.836,1.836,0,0,1,1.506.636,2.832,2.832,0,0,1,.521,1.837Z"/><path d="M519.286,374.553h-.961v-1.02H518.3a2.218,2.218,0,0,1-2.062,1.16,2.241,2.241,0,0,1-1.808-.806,3.305,3.305,0,0,1-.677-2.194,3.6,3.6,0,0,1,.75-2.385,2.474,2.474,0,0,1,2-.9,1.923,1.923,0,0,1,1.8.973h.023V365.67h.961Zm-.961-2.713v-.885a1.717,1.717,0,0,0-.48-1.23,1.612,1.612,0,0,0-1.219-.5,1.659,1.659,0,0,0-1.383.645,2.824,2.824,0,0,0-.5,1.781,2.54,2.54,0,0,0,.483,1.638,1.58,1.58,0,0,0,1.3.6,1.641,1.641,0,0,0,1.3-.58A2.161,2.161,0,0,0,518.325,371.84Z"/><path d="M96.859,355.223a5.532,5.532,0,0,1-4.293-1.767,6.552,6.552,0,0,1-1.613-4.6,6.943,6.943,0,0,1,1.644-4.852A5.74,5.74,0,0,1,97.07,342.2a5.408,5.408,0,0,1,4.206,1.758,6.576,6.576,0,0,1,1.6,4.6,6.965,6.965,0,0,1-1.635,4.878A5.634,5.634,0,0,1,96.859,355.223Zm.105-11.689a4.063,4.063,0,0,0-3.226,1.433,6.373,6.373,0,0,0-.031,7.51,3.941,3.941,0,0,0,3.151,1.419,4.138,4.138,0,0,0,3.27-1.354,5.532,5.532,0,0,0,1.2-3.788,5.78,5.78,0,0,0-1.16-3.858A3.978,3.978,0,0,0,96.964,343.533Z"/><path d="M111.039,354.6a4.684,4.684,0,0,1-2.461.624,4.074,4.074,0,0,1-3.107-1.252,4.539,4.539,0,0,1-1.182-3.248,4.99,4.99,0,0,1,1.274-3.573,4.458,4.458,0,0,1,3.4-1.349,4.735,4.735,0,0,1,2.092.439v1.477a3.665,3.665,0,0,0-2.145-.7,2.9,2.9,0,0,0-2.263.989,3.752,3.752,0,0,0-.883,2.6,3.573,3.573,0,0,0,.831,2.5,2.863,2.863,0,0,0,2.228.914,3.613,3.613,0,0,0,2.215-.782Z"/><path d="M117.141,354.924a2.779,2.779,0,0,1-1.345.281q-2.364,0-2.364-2.637v-5.326h-1.547v-1.23h1.547v-2.2l1.441-.466v2.663h2.268v1.23h-2.268v5.071a2.1,2.1,0,0,0,.308,1.292,1.228,1.228,0,0,0,1.02.387,1.515,1.515,0,0,0,.94-.3Z"/><path d="M128.819,345.713a2.606,2.606,0,0,0-.18-1.011,1.957,1.957,0,0,0-1.226-1.143,2.874,2.874,0,0,0-.914-.141,3.023,3.023,0,0,0-.826.114,4.016,4.016,0,0,0-.787.316,4.839,4.839,0,0,0-.738.483,5.333,5.333,0,0,0-.664.624V343.41a4.309,4.309,0,0,1,1.358-.9,4.781,4.781,0,0,1,1.833-.312,4.424,4.424,0,0,1,1.433.224,3.285,3.285,0,0,1,1.143.655,3.027,3.027,0,0,1,.76,1.063,3.587,3.587,0,0,1,.277,1.45,4.973,4.973,0,0,1-.171,1.354,4.186,4.186,0,0,1-.519,1.143,5.513,5.513,0,0,1-.875,1.028,12.388,12.388,0,0,1-1.239,1q-.888.633-1.463,1.081a6.469,6.469,0,0,0-.914.839,2.436,2.436,0,0,0-.475.782,2.734,2.734,0,0,0-.136.9h6.275v1.292h-7.778v-.624a5.2,5.2,0,0,1,.176-1.424,3.7,3.7,0,0,1,.58-1.169,6.487,6.487,0,0,1,1.059-1.107q.655-.554,1.6-1.248a10.141,10.141,0,0,0,1.147-.94,4.889,4.889,0,0,0,.743-.9,3.22,3.22,0,0,0,.4-.91A3.922,3.922,0,0,0,128.819,345.713Z"/><path d="M140.45,348.657a12.381,12.381,0,0,1-.286,2.8,6.533,6.533,0,0,1-.826,2.061,3.718,3.718,0,0,1-1.327,1.274,3.633,3.633,0,0,1-1.789.435,3.393,3.393,0,0,1-1.692-.417,3.546,3.546,0,0,1-1.252-1.217,6.17,6.17,0,0,1-.773-1.964,12.146,12.146,0,0,1-.264-2.667,13.749,13.749,0,0,1,.277-2.918,6.674,6.674,0,0,1,.813-2.123,3.619,3.619,0,0,1,1.332-1.292,3.739,3.739,0,0,1,1.824-.435Q140.45,342.2,140.45,348.657Zm-1.477.141q0-5.379-2.558-5.379-2.7,0-2.7,5.476,0,5.106,2.646,5.106Q138.973,354,138.973,348.8Z"/><path d="M147.3,355.012h-1.441v-10.89a3.336,3.336,0,0,1-.488.382,7.951,7.951,0,0,1-.721.426q-.4.211-.844.4a6.132,6.132,0,0,1-.866.29v-1.459a8.379,8.379,0,0,0,1.006-.356q.532-.224,1.046-.5t.971-.58a7.71,7.71,0,0,0,.791-.593h.545Z"/><path d="M159.369,351.013a4.669,4.669,0,0,1-.3,1.7,4.078,4.078,0,0,1-.826,1.336,3.691,3.691,0,0,1-1.257.875,3.98,3.98,0,0,1-1.582.312,3.488,3.488,0,0,1-2.975-1.534,5.459,5.459,0,0,1-.8-1.815,9.833,9.833,0,0,1-.272-2.417,11.358,11.358,0,0,1,.365-2.984,7.249,7.249,0,0,1,1.037-2.294,4.781,4.781,0,0,1,1.622-1.472,4.345,4.345,0,0,1,2.118-.519,5.1,5.1,0,0,1,2.092.36v1.362a4.442,4.442,0,0,0-2.057-.5,3.065,3.065,0,0,0-1.521.378,3.492,3.492,0,0,0-1.16,1.068,5.209,5.209,0,0,0-.743,1.666,8.45,8.45,0,0,0-.259,2.171h.035a3.027,3.027,0,0,1,2.874-1.573,3.783,3.783,0,0,1,1.49.281,3.216,3.216,0,0,1,1.134.8,3.581,3.581,0,0,1,.725,1.226A4.667,4.667,0,0,1,159.369,351.013Zm-1.477.185a3.922,3.922,0,0,0-.167-1.187,2.574,2.574,0,0,0-.479-.9,2.065,2.065,0,0,0-.769-.567,2.588,2.588,0,0,0-1.037-.2,2.428,2.428,0,0,0-.993.2,2.473,2.473,0,0,0-.791.549,2.572,2.572,0,0,0-.712,1.789,3.909,3.909,0,0,0,.185,1.217,3.144,3.144,0,0,0,.519.989,2.466,2.466,0,0,0,.8.664,2.173,2.173,0,0,0,1.024.242,2.345,2.345,0,0,0,.993-.207,2.216,2.216,0,0,0,.765-.576,2.665,2.665,0,0,0,.492-.883A3.5,3.5,0,0,0,157.893,351.2Z"/><path d="M38.157,374.477h-.984v-3.832H32.825v3.832h-.984v-8.4h.984v3.686h4.348v-3.686h.984Z"/><path d="M42.571,374.618a2.783,2.783,0,0,1-2.124-.841,3.114,3.114,0,0,1-.794-2.229,3.244,3.244,0,0,1,.826-2.361,2.97,2.97,0,0,1,2.232-.85,2.691,2.691,0,0,1,2.095.826,3.276,3.276,0,0,1,.753,2.291,3.223,3.223,0,0,1-.812,2.3A2.844,2.844,0,0,1,42.571,374.618Zm.07-5.473a1.828,1.828,0,0,0-1.465.63,2.587,2.587,0,0,0-.539,1.737,2.447,2.447,0,0,0,.545,1.682,1.852,1.852,0,0,0,1.459.615,1.757,1.757,0,0,0,1.433-.6,2.619,2.619,0,0,0,.5-1.717,2.664,2.664,0,0,0-.5-1.734A1.749,1.749,0,0,0,42.642,369.145Z"/><path d="M50.056,369.45a1.175,1.175,0,0,0-.727-.193,1.226,1.226,0,0,0-1.028.58,2.682,2.682,0,0,0-.413,1.582v3.059h-.961v-6h.961v1.236h.023a2.1,2.1,0,0,1,.627-.987,1.43,1.43,0,0,1,.943-.354,1.569,1.569,0,0,1,.574.082Z"/><path d="M51.423,366.954a.609.609,0,0,1-.439-.176.593.593,0,0,1-.182-.445.615.615,0,0,1,.621-.627.621.621,0,0,1,.448.179.626.626,0,0,1,0,.888A.615.615,0,0,1,51.423,366.954Zm.469,7.523h-.961v-6h.961Z"/><path d="M57.853,368.752l-3.551,4.9h3.516v.82H52.89v-.3L56.44,369.3H53.224v-.82h4.629Z"/><path d="M61.435,374.618a2.783,2.783,0,0,1-2.124-.841,3.114,3.114,0,0,1-.794-2.229,3.244,3.244,0,0,1,.826-2.361,2.97,2.97,0,0,1,2.232-.85,2.691,2.691,0,0,1,2.095.826,3.276,3.276,0,0,1,.753,2.291,3.223,3.223,0,0,1-.812,2.3A2.844,2.844,0,0,1,61.435,374.618Zm.07-5.473a1.828,1.828,0,0,0-1.465.63,2.587,2.587,0,0,0-.539,1.737,2.447,2.447,0,0,0,.545,1.682,1.852,1.852,0,0,0,1.459.615,1.757,1.757,0,0,0,1.433-.6,2.619,2.619,0,0,0,.5-1.717,2.664,2.664,0,0,0-.5-1.734A1.749,1.749,0,0,0,61.5,369.145Z"/><path d="M70.771,374.477H69.81v-3.422q0-1.91-1.395-1.91a1.513,1.513,0,0,0-1.192.542,2.009,2.009,0,0,0-.472,1.368v3.422H65.79v-6h.961v1h.023a2.166,2.166,0,0,1,1.969-1.137,1.836,1.836,0,0,1,1.506.636,2.832,2.832,0,0,1,.521,1.837Z"/><path d="M75.2,374.418a1.853,1.853,0,0,1-.9.188q-1.576,0-1.576-1.758V369.3H71.692v-.82h1.031v-1.465l.961-.311v1.775H75.2v.82H73.685v3.381a1.4,1.4,0,0,0,.205.861.818.818,0,0,0,.68.258,1.01,1.01,0,0,0,.627-.2Z"/><path d="M80.606,374.477h-.961v-.937h-.023a2.012,2.012,0,0,1-1.846,1.078,1.973,1.973,0,0,1-1.4-.475,1.644,1.644,0,0,1-.507-1.26q0-1.682,1.98-1.957l1.8-.252q0-1.529-1.236-1.529a2.954,2.954,0,0,0-1.957.738V368.9a3.718,3.718,0,0,1,2.039-.562q2.115,0,2.115,2.238Zm-.961-3.035-1.447.2a2.35,2.35,0,0,0-1.008.331.955.955,0,0,0-.34.841.916.916,0,0,0,.313.718,1.211,1.211,0,0,0,.835.278,1.542,1.542,0,0,0,1.181-.5,1.79,1.79,0,0,0,.466-1.269Z"/><path d="M83.209,374.477h-.961v-8.883h.961Z"/><path d="M92.688,374.477H88.235v-8.4H92.5v.891H89.219v2.795h3.035v.885H89.219v2.941h3.469Z"/><path d="M99.129,374.477h-.961v-1.02h-.023a2.218,2.218,0,0,1-2.062,1.16,2.241,2.241,0,0,1-1.808-.806,3.305,3.305,0,0,1-.677-2.194,3.6,3.6,0,0,1,.75-2.385,2.474,2.474,0,0,1,2-.9,1.923,1.923,0,0,1,1.8.973h.023v-3.715h.961Zm-.961-2.713v-.885a1.717,1.717,0,0,0-.48-1.23,1.612,1.612,0,0,0-1.219-.5,1.659,1.659,0,0,0-1.383.645,2.824,2.824,0,0,0-.5,1.781,2.54,2.54,0,0,0,.483,1.638,1.58,1.58,0,0,0,1.3.6,1.641,1.641,0,0,0,1.3-.58A2.161,2.161,0,0,0,98.168,371.764Z"/><path d="M101.4,366.954a.609.609,0,0,1-.439-.176.593.593,0,0,1-.182-.445.615.615,0,0,1,.621-.627.621.621,0,0,1,.448.179.626.626,0,0,1,0,.888A.615.615,0,0,1,101.4,366.954Zm.469,7.523h-.961v-6h.961Z"/><path d="M106.428,374.418a1.853,1.853,0,0,1-.9.188q-1.576,0-1.576-1.758V369.3h-1.031v-.82h1.031v-1.465l.961-.311v1.775h1.512v.82h-1.512v3.381a1.4,1.4,0,0,0,.205.861.818.818,0,0,0,.68.258,1.01,1.01,0,0,0,.627-.2Z"/><path d="M110.051,374.618a2.783,2.783,0,0,1-2.124-.841,3.114,3.114,0,0,1-.794-2.229,3.244,3.244,0,0,1,.826-2.361,2.97,2.97,0,0,1,2.232-.85,2.691,2.691,0,0,1,2.095.826,3.276,3.276,0,0,1,.753,2.291,3.223,3.223,0,0,1-.812,2.3A2.844,2.844,0,0,1,110.051,374.618Zm.07-5.473a1.828,1.828,0,0,0-1.465.63,2.587,2.587,0,0,0-.539,1.737,2.447,2.447,0,0,0,.545,1.682,1.852,1.852,0,0,0,1.459.615,1.757,1.757,0,0,0,1.433-.6,2.619,2.619,0,0,0,.5-1.717,2.664,2.664,0,0,0-.5-1.734A1.749,1.749,0,0,0,110.122,369.145Z"/><path d="M117.536,369.45a1.175,1.175,0,0,0-.727-.193,1.226,1.226,0,0,0-1.028.58,2.682,2.682,0,0,0-.413,1.582v3.059h-.961v-6h.961v1.236h.023a2.1,2.1,0,0,1,.627-.987,1.43,1.43,0,0,1,.943-.354,1.569,1.569,0,0,1,.574.082Z"/><path d="M126.018,374.477h-4.359v-8.4h.984v7.512h3.375Z"/><path d="M131.305,374.477h-.961v-.937h-.023a2.012,2.012,0,0,1-1.846,1.078,1.973,1.973,0,0,1-1.4-.475,1.644,1.644,0,0,1-.507-1.26q0-1.682,1.98-1.957l1.8-.252q0-1.529-1.236-1.529a2.954,2.954,0,0,0-1.957.738V368.9a3.718,3.718,0,0,1,2.039-.562q2.115,0,2.115,2.238Zm-.961-3.035-1.447.2a2.35,2.35,0,0,0-1.008.331.955.955,0,0,0-.34.841.916.916,0,0,0,.313.718,1.211,1.211,0,0,0,.835.278,1.542,1.542,0,0,0,1.181-.5,1.79,1.79,0,0,0,.466-1.269Z"/><path d="M137.723,368.477l-2.76,6.961q-.738,1.863-2.074,1.863a2.2,2.2,0,0,1-.627-.076v-.861a1.781,1.781,0,0,0,.568.105,1.178,1.178,0,0,0,1.09-.867l.48-1.137-2.344-5.988h1.066l1.623,4.617q.029.088.123.457h.035q.029-.141.117-.445l1.705-4.629Z"/><path d="M141.094,374.618a2.783,2.783,0,0,1-2.124-.841,3.114,3.114,0,0,1-.794-2.229,3.244,3.244,0,0,1,.826-2.361,2.97,2.97,0,0,1,2.232-.85,2.691,2.691,0,0,1,2.095.826,3.276,3.276,0,0,1,.753,2.291,3.223,3.223,0,0,1-.812,2.3A2.844,2.844,0,0,1,141.094,374.618Zm.07-5.473a1.828,1.828,0,0,0-1.465.63,2.587,2.587,0,0,0-.539,1.737,2.447,2.447,0,0,0,.545,1.682,1.852,1.852,0,0,0,1.459.615,1.757,1.757,0,0,0,1.433-.6,2.619,2.619,0,0,0,.5-1.717,2.664,2.664,0,0,0-.5-1.734A1.749,1.749,0,0,0,141.165,369.145Z"/><path d="M150.3,374.477h-.961v-.949h-.023a1.973,1.973,0,0,1-1.852,1.09q-2.145,0-2.145-2.555v-3.586h.955v3.434q0,1.9,1.453,1.9a1.47,1.47,0,0,0,1.157-.519,1.984,1.984,0,0,0,.454-1.356v-3.457h.961Z"/><path d="M154.856,374.418a1.853,1.853,0,0,1-.9.188q-1.576,0-1.576-1.758V369.3h-1.031v-.82h1.031v-1.465l.961-.311v1.775h1.512v.82h-1.512v3.381a1.4,1.4,0,0,0,.205.861.818.818,0,0,0,.68.258,1.01,1.01,0,0,0,.627-.2Z"/><path d="M155.607,374.26v-1.031a2.844,2.844,0,0,0,1.729.58q1.266,0,1.266-.844a.732.732,0,0,0-.108-.407,1.08,1.08,0,0,0-.293-.3,2.255,2.255,0,0,0-.434-.231q-.249-.1-.536-.214a6.9,6.9,0,0,1-.7-.319,2.115,2.115,0,0,1-.5-.363,1.352,1.352,0,0,1-.3-.46,1.627,1.627,0,0,1-.1-.6,1.434,1.434,0,0,1,.193-.747,1.715,1.715,0,0,1,.516-.545,2.4,2.4,0,0,1,.735-.331,3.262,3.262,0,0,1,.853-.111,3.442,3.442,0,0,1,1.395.27v.973a2.718,2.718,0,0,0-1.523-.434,1.781,1.781,0,0,0-.486.062,1.191,1.191,0,0,0-.372.173.8.8,0,0,0-.24.267.7.7,0,0,0-.085.343.822.822,0,0,0,.085.393.864.864,0,0,0,.249.281,1.9,1.9,0,0,0,.4.223q.234.1.533.217a7.421,7.421,0,0,1,.715.313,2.452,2.452,0,0,1,.539.363,1.42,1.42,0,0,1,.343.466,1.5,1.5,0,0,1,.12.627,1.478,1.478,0,0,1-.2.773,1.682,1.682,0,0,1-.524.545,2.4,2.4,0,0,1-.756.322,3.732,3.732,0,0,1-.9.105A3.4,3.4,0,0,1,155.607,374.26Z"/><path class="j" d="M320.191,69.36h82.834a2.229,2.229,0,0,0,2.257-1.96,2.154,2.154,0,0,0-2.145-2.346H320.3a2.229,2.229,0,0,0-2.257,1.96A2.154,2.154,0,0,0,320.191,69.36Z"/><path class="ai" d="M374.946,22h-9.881V61.4h11.143V23.261A1.261,1.261,0,0,0,374.946,22Z"/><path class="l" d="M325.836,22h43.5a2.854,2.854,0,0,1,2.854,2.854V61.4a0,0,0,0,1,0,0H322.831a0,0,0,0,1,0,0V25.005A3,3,0,0,1,325.836,22Z"/><path class="ai" d="M376.911,36.617a1.368,1.368,0,0,1,1.368-1.371h7.815a2.225,2.225,0,0,1,2.548,1.664c.52,1.2,3.847,8.527,3.847,8.527s4.679,1.716,7.851,3.12c1.007.446,2.08,3.431,2.08,3.431V58.8s-17.053,3.535-17.313,3.483-8.145-.156-8.145-.156Z"/><rect class="q" x="397.96" y="58.175" width="5.04" height="4.575" rx="1.501" ry="1.501"/><rect class="av" x="351.883" y="61.259" width="45.5" height="1.491"/><path class="q" d="M342.2,58.175a.574.574,0,0,1-.482-.27,7.046,7.046,0,0,0-11.876,0,.574.574,0,0,1-.482.27h-6.686a.569.569,0,0,0-.569.569v3.438a.569.569,0,0,0,.569.569h50.842a.473.473,0,0,0,.51-.51V58.8a.575.575,0,0,0-.51-.628Z"/><circle cx="335.725" cy="61.814" r="5.882"/><circle class="g" cx="335.725" cy="61.814" r="3.796"/><circle class="aw" cx="335.725" cy="61.814" r="3.068"/><path class="ax" d="M335.725,58.746a3.068,3.068,0,0,0-3.068,3.068h6.136A3.068,3.068,0,0,0,335.725,58.746Z"/><circle class="an" cx="335.725" cy="61.814" r="1.28"/><path class="ay" d="M373.789,36.617a1.368,1.368,0,0,1,1.368-1.371h7.815a2.225,2.225,0,0,1,2.548,1.664c.52,1.2,3.847,8.527,3.847,8.527s4.679,1.716,7.851,3.12c1.007.446,2.08,3.431,2.08,3.431V58.8s-17.053,3.535-17.313,3.483-8.145-.156-8.145-.156Z"/><rect class="q" x="394.839" y="58.175" width="9.04" height="4.575" rx="1.501" ry="1.501"/><path class="q" d="M396.334,62.75a6.985,6.985,0,1,0-13.831,0Z"/><path class="b" d="M377.851,36.962h5.255a.751.751,0,0,1,.687.448l3.794,8.61a.751.751,0,0,1,.064.3V47.85a.751.751,0,0,1-.758.751l-9-.089a.751.751,0,0,1-.744-.748L377.1,37.716A.751.751,0,0,1,377.851,36.962Z"/><path class="g" d="M399.3,52.924h-1.928a1.035,1.035,0,0,0-1.035,1.035v1.673a1.035,1.035,0,0,0,1.035,1.035H399.3Z"/><circle cx="389.471" cy="61.814" r="5.882"/><circle class="g" cx="389.471" cy="61.814" r="3.796"/><circle class="aw" cx="389.471" cy="61.814" r="3.068"/><path class="ax" d="M389.471,58.746a3.068,3.068,0,0,0-3.068,3.068h6.136A3.068,3.068,0,0,0,389.471,58.746Z"/><circle class="an" cx="389.471" cy="61.814" r="1.28"/><path class="g" d="M386.2,42.86l-2.4-5.45a.751.751,0,0,0-.687-.448h-5.255a.751.751,0,0,0-.751.754l.023,5.144Z"/><path d="M91.2,58H89.389L82.9,47.954a4.2,4.2,0,0,1-.4-.791h-.053a12.976,12.976,0,0,1,.07,1.731V58H81.04V45.4h1.916l6.311,9.888q.4.615.51.844h.035a13.335,13.335,0,0,1-.088-1.854V45.4H91.2Z"/><path d="M97.821,58.211a4.175,4.175,0,0,1-3.186-1.261,4.672,4.672,0,0,1-1.191-3.344,4.867,4.867,0,0,1,1.239-3.542,4.455,4.455,0,0,1,3.349-1.274,4.037,4.037,0,0,1,3.142,1.239,4.914,4.914,0,0,1,1.129,3.437,4.835,4.835,0,0,1-1.217,3.45A4.265,4.265,0,0,1,97.821,58.211ZM97.926,50a2.742,2.742,0,0,0-2.2.945,3.88,3.88,0,0,0-.809,2.606,3.67,3.67,0,0,0,.817,2.522A2.778,2.778,0,0,0,97.926,57a2.635,2.635,0,0,0,2.149-.905,3.928,3.928,0,0,0,.751-2.575,4,4,0,0,0-.751-2.6A2.623,2.623,0,0,0,97.926,50Z"/><path d="M111.429,49l-3.586,9h-1.415l-3.41-9H104.6l2.285,6.539A5.869,5.869,0,0,1,107.2,56.8h.035a5.943,5.943,0,0,1,.281-1.222L109.909,49Z"/><path d="M122.729,48.7a2.606,2.606,0,0,0-.18-1.011,1.957,1.957,0,0,0-1.226-1.143,2.874,2.874,0,0,0-.914-.141,3.023,3.023,0,0,0-.826.114,4.016,4.016,0,0,0-.787.316,4.839,4.839,0,0,0-.738.483,5.333,5.333,0,0,0-.664.624V46.4a4.309,4.309,0,0,1,1.358-.9,4.781,4.781,0,0,1,1.833-.312,4.424,4.424,0,0,1,1.433.224,3.285,3.285,0,0,1,1.143.655,3.027,3.027,0,0,1,.76,1.063,3.587,3.587,0,0,1,.277,1.45,4.973,4.973,0,0,1-.171,1.354,4.186,4.186,0,0,1-.519,1.143,5.513,5.513,0,0,1-.875,1.028,12.388,12.388,0,0,1-1.239,1q-.888.633-1.463,1.081a6.469,6.469,0,0,0-.914.839,2.436,2.436,0,0,0-.475.782,2.734,2.734,0,0,0-.136.9h6.275V58H116.9v-.624a5.2,5.2,0,0,1,.176-1.424,3.7,3.7,0,0,1,.58-1.169,6.487,6.487,0,0,1,1.059-1.107q.655-.554,1.6-1.248a10.141,10.141,0,0,0,1.147-.94,4.889,4.889,0,0,0,.743-.9,3.22,3.22,0,0,0,.4-.91A3.922,3.922,0,0,0,122.729,48.7Z"/><path d="M134.36,51.646a12.381,12.381,0,0,1-.286,2.8,6.533,6.533,0,0,1-.826,2.061,3.718,3.718,0,0,1-1.327,1.274,3.633,3.633,0,0,1-1.789.435,3.393,3.393,0,0,1-1.692-.417,3.546,3.546,0,0,1-1.252-1.217,6.17,6.17,0,0,1-.773-1.964,12.146,12.146,0,0,1-.264-2.667,13.749,13.749,0,0,1,.277-2.918,6.674,6.674,0,0,1,.813-2.123,3.619,3.619,0,0,1,1.332-1.292,3.739,3.739,0,0,1,1.824-.435Q134.36,45.186,134.36,51.646Zm-1.477.141q0-5.379-2.558-5.379-2.7,0-2.7,5.476,0,5.106,2.646,5.106Q132.883,56.989,132.883,51.786Z"/><path d="M141.209,58h-1.441V47.11a3.336,3.336,0,0,1-.488.382,7.951,7.951,0,0,1-.721.426q-.4.211-.844.4a6.132,6.132,0,0,1-.866.29V47.146a8.379,8.379,0,0,0,1.006-.356q.532-.224,1.046-.5t.971-.58a7.71,7.71,0,0,0,.791-.593h.545Z"/><path d="M153.174,46.231q-.29.5-.7,1.248t-.866,1.679q-.457.932-.932,2t-.888,2.215q-.413,1.143-.725,2.316A17.229,17.229,0,0,0,148.612,58h-1.547a17.526,17.526,0,0,1,.488-2.3q.33-1.173.747-2.3t.883-2.175q.466-1.046.905-1.925t.8-1.551q.365-.672.584-1.05h-6.319V45.4h8.016Z"/><path d="M43.471,77.465h-.979V71.829q0-.668.082-1.635h-.023a5.226,5.226,0,0,1-.252.814l-2.871,6.457h-.48l-2.865-6.41a5.022,5.022,0,0,1-.252-.861h-.023q.047.5.047,1.646v5.625H34.9v-8.4h1.3l2.578,5.859a7.5,7.5,0,0,1,.387,1.008h.035q.252-.691.4-1.031l2.631-5.836h1.23Z"/><path d="M50.235,77.465h-.961v-.949H49.25a1.973,1.973,0,0,1-1.852,1.09q-2.145,0-2.145-2.555V71.465h.955V74.9q0,1.9,1.453,1.9a1.47,1.47,0,0,0,1.157-.519,1.984,1.984,0,0,0,.454-1.356V71.465h.961Z"/><path d="M52.967,77.465h-.961V68.583h.961Z"/><path d="M57.528,77.407a1.853,1.853,0,0,1-.9.188q-1.576,0-1.576-1.758V72.286H54.024v-.82h1.031V70l.961-.311v1.775h1.512v.82H56.016v3.381a1.4,1.4,0,0,0,.205.861.818.818,0,0,0,.68.258,1.01,1.01,0,0,0,.627-.2Z"/><path d="M59.135,69.942a.609.609,0,0,1-.439-.176.593.593,0,0,1-.182-.445.615.615,0,0,1,.621-.627.621.621,0,0,1,.448.179.626.626,0,0,1,0,.888A.615.615,0,0,1,59.135,69.942Zm.469,7.523h-.961v-6H59.6Z"/><path d="M64.452,74.5h-3.2v-.756h3.2Z"/><path d="M72.165,77.465H70.993L69.586,75.11a5.13,5.13,0,0,0-.375-.56,2.138,2.138,0,0,0-.372-.378,1.289,1.289,0,0,0-.41-.214,1.687,1.687,0,0,0-.5-.067h-.809v3.574h-.984v-8.4h2.508a3.574,3.574,0,0,1,1.017.138,2.275,2.275,0,0,1,.809.419,1.947,1.947,0,0,1,.536.7,2.322,2.322,0,0,1,.193.981,2.363,2.363,0,0,1-.132.806,2.1,2.1,0,0,1-.375.653,2.273,2.273,0,0,1-.586.489,2.991,2.991,0,0,1-.771.313v.023a1.772,1.772,0,0,1,.366.214,2.015,2.015,0,0,1,.3.284,3.764,3.764,0,0,1,.278.372q.138.208.308.483Zm-5.039-7.512V73h1.336a2.026,2.026,0,0,0,.683-.111,1.58,1.58,0,0,0,.542-.319,1.448,1.448,0,0,0,.357-.51,1.707,1.707,0,0,0,.129-.677,1.317,1.317,0,0,0-.437-1.052,1.875,1.875,0,0,0-1.263-.378Z"/><path d="M75.178,77.606a2.783,2.783,0,0,1-2.124-.841,3.114,3.114,0,0,1-.794-2.229,3.244,3.244,0,0,1,.826-2.361,2.97,2.97,0,0,1,2.232-.85,2.691,2.691,0,0,1,2.095.826,3.276,3.276,0,0,1,.753,2.291,3.223,3.223,0,0,1-.812,2.3A2.844,2.844,0,0,1,75.178,77.606Zm.07-5.473a1.828,1.828,0,0,0-1.465.63,2.587,2.587,0,0,0-.539,1.737,2.447,2.447,0,0,0,.545,1.682,1.852,1.852,0,0,0,1.459.615,1.757,1.757,0,0,0,1.433-.6,2.619,2.619,0,0,0,.5-1.717,2.664,2.664,0,0,0-.5-1.734A1.749,1.749,0,0,0,75.249,72.133Z"/><path d="M82.041,77.606a2.783,2.783,0,0,1-2.124-.841,3.114,3.114,0,0,1-.794-2.229,3.244,3.244,0,0,1,.826-2.361,2.97,2.97,0,0,1,2.232-.85,2.691,2.691,0,0,1,2.095.826,3.276,3.276,0,0,1,.753,2.291,3.223,3.223,0,0,1-.812,2.3A2.844,2.844,0,0,1,82.041,77.606Zm.07-5.473a1.828,1.828,0,0,0-1.465.63,2.587,2.587,0,0,0-.539,1.737,2.447,2.447,0,0,0,.545,1.682,1.852,1.852,0,0,0,1.459.615,1.757,1.757,0,0,0,1.433-.6,2.619,2.619,0,0,0,.5-1.717,2.664,2.664,0,0,0-.5-1.734A1.749,1.749,0,0,0,82.111,72.133Z"/><path d="M89.18,77.407a1.853,1.853,0,0,1-.9.188q-1.576,0-1.576-1.758V72.286H85.676v-.82h1.031V70l.961-.311v1.775H89.18v.82H87.668v3.381a1.4,1.4,0,0,0,.205.861.818.818,0,0,0,.68.258,1.01,1.01,0,0,0,.627-.2Z"/><path d="M103.5,69.063l-2.373,8.4H99.977l-1.729-6.141a3.844,3.844,0,0,1-.135-.855H98.09a4.34,4.34,0,0,1-.152.844L96.2,77.465H95.055l-2.461-8.4h1.084l1.787,6.445a4.23,4.23,0,0,1,.141.844h.029a4.981,4.981,0,0,1,.182-.844l1.857-6.445h.943l1.781,6.492a4.749,4.749,0,0,1,.141.785h.023a4.707,4.707,0,0,1,.158-.809l1.717-6.469Z"/><path d="M106.494,77.606a2.783,2.783,0,0,1-2.124-.841,3.114,3.114,0,0,1-.794-2.229,3.244,3.244,0,0,1,.826-2.361,2.97,2.97,0,0,1,2.232-.85,2.691,2.691,0,0,1,2.095.826,3.276,3.276,0,0,1,.753,2.291,3.223,3.223,0,0,1-.812,2.3A2.844,2.844,0,0,1,106.494,77.606Zm.07-5.473a1.828,1.828,0,0,0-1.465.63,2.587,2.587,0,0,0-.539,1.737,2.447,2.447,0,0,0,.545,1.682,1.852,1.852,0,0,0,1.459.615,1.757,1.757,0,0,0,1.433-.6,2.619,2.619,0,0,0,.5-1.717,2.664,2.664,0,0,0-.5-1.734A1.749,1.749,0,0,0,106.564,72.133Z"/><path d="M113.979,72.438a1.175,1.175,0,0,0-.727-.193,1.226,1.226,0,0,0-1.028.58,2.682,2.682,0,0,0-.413,1.582v3.059h-.961v-6h.961V72.7h.023a2.1,2.1,0,0,1,.627-.987,1.43,1.43,0,0,1,.943-.354,1.569,1.569,0,0,1,.574.082Z"/><path d="M119.834,77.465h-1.348l-2.648-2.883h-.023v2.883h-.961V68.583h.961v5.631h.023l2.52-2.748h1.26l-2.783,2.895Z"/><path d="M120.287,77.249V76.217a2.844,2.844,0,0,0,1.729.58q1.266,0,1.266-.844a.732.732,0,0,0-.108-.407,1.08,1.08,0,0,0-.293-.3,2.255,2.255,0,0,0-.434-.231q-.249-.1-.536-.214a6.9,6.9,0,0,1-.7-.319,2.115,2.115,0,0,1-.5-.363,1.352,1.352,0,0,1-.3-.46,1.627,1.627,0,0,1-.1-.6,1.434,1.434,0,0,1,.193-.747,1.715,1.715,0,0,1,.516-.545,2.4,2.4,0,0,1,.735-.331,3.262,3.262,0,0,1,.853-.111,3.442,3.442,0,0,1,1.395.27v.973a2.718,2.718,0,0,0-1.523-.434,1.781,1.781,0,0,0-.486.062,1.191,1.191,0,0,0-.372.173.8.8,0,0,0-.24.267.7.7,0,0,0-.085.343.822.822,0,0,0,.085.393.864.864,0,0,0,.249.281,1.9,1.9,0,0,0,.4.223q.234.1.533.217a7.421,7.421,0,0,1,.715.313,2.452,2.452,0,0,1,.539.363,1.42,1.42,0,0,1,.343.466,1.5,1.5,0,0,1,.12.627,1.478,1.478,0,0,1-.2.773,1.682,1.682,0,0,1-.524.545,2.4,2.4,0,0,1-.756.322,3.732,3.732,0,0,1-.9.105A3.4,3.4,0,0,1,120.287,77.249Z"/><path d="M126.559,76.6h-.023v3.627h-.961v-8.76h.961V72.52h.023a2.272,2.272,0,0,1,2.074-1.2,2.2,2.2,0,0,1,1.811.806,3.337,3.337,0,0,1,.65,2.159,3.719,3.719,0,0,1-.732,2.411,2.439,2.439,0,0,1-2,.905A2.007,2.007,0,0,1,126.559,76.6Zm-.023-2.42v.838a1.784,1.784,0,0,0,.483,1.263,1.725,1.725,0,0,0,2.6-.149,3.064,3.064,0,0,0,.5-1.857,2.419,2.419,0,0,0-.463-1.57,1.532,1.532,0,0,0-1.254-.568,1.7,1.7,0,0,0-1.348.583A2.141,2.141,0,0,0,126.535,74.178Z"/><path d="M136.756,77.465h-.961v-.937h-.023a2.012,2.012,0,0,1-1.846,1.078,1.973,1.973,0,0,1-1.4-.475,1.644,1.644,0,0,1-.507-1.26q0-1.682,1.98-1.957l1.8-.252q0-1.529-1.236-1.529a2.954,2.954,0,0,0-1.957.738v-.984a3.718,3.718,0,0,1,2.039-.562q2.115,0,2.115,2.238Zm-.961-3.035-1.447.2a2.35,2.35,0,0,0-1.008.331.955.955,0,0,0-.34.841.916.916,0,0,0,.313.718,1.211,1.211,0,0,0,.835.278,1.542,1.542,0,0,0,1.181-.5,1.79,1.79,0,0,0,.466-1.269Z"/><path d="M142.488,77.19a3.122,3.122,0,0,1-1.641.416,2.716,2.716,0,0,1-2.071-.835,3.026,3.026,0,0,1-.788-2.165,3.326,3.326,0,0,1,.85-2.382,2.972,2.972,0,0,1,2.268-.9,3.156,3.156,0,0,1,1.395.293V72.6a2.443,2.443,0,0,0-1.43-.469,1.932,1.932,0,0,0-1.509.659,2.5,2.5,0,0,0-.589,1.731,2.382,2.382,0,0,0,.554,1.664,1.909,1.909,0,0,0,1.485.609,2.408,2.408,0,0,0,1.477-.521Z"/><path d="M148.6,74.706h-4.236a2.244,2.244,0,0,0,.539,1.547,1.858,1.858,0,0,0,1.418.545,2.948,2.948,0,0,0,1.863-.668v.9a3.482,3.482,0,0,1-2.092.574,2.536,2.536,0,0,1-2-.817,3.346,3.346,0,0,1-.727-2.3,3.281,3.281,0,0,1,.794-2.282,2.546,2.546,0,0,1,1.972-.882,2.256,2.256,0,0,1,1.822.762A3.176,3.176,0,0,1,148.6,74.2Zm-.984-.814a1.955,1.955,0,0,0-.4-1.295,1.368,1.368,0,0,0-1.1-.463,1.552,1.552,0,0,0-1.154.486,2.207,2.207,0,0,0-.586,1.271Z"/><path d="M149.518,77.249V76.217a2.844,2.844,0,0,0,1.729.58q1.266,0,1.266-.844a.732.732,0,0,0-.108-.407,1.08,1.08,0,0,0-.293-.3,2.255,2.255,0,0,0-.434-.231q-.249-.1-.536-.214a6.9,6.9,0,0,1-.7-.319,2.115,2.115,0,0,1-.5-.363,1.352,1.352,0,0,1-.3-.46,1.627,1.627,0,0,1-.1-.6,1.434,1.434,0,0,1,.193-.747,1.715,1.715,0,0,1,.516-.545,2.4,2.4,0,0,1,.735-.331,3.262,3.262,0,0,1,.853-.111,3.442,3.442,0,0,1,1.395.27v.973a2.718,2.718,0,0,0-1.523-.434,1.781,1.781,0,0,0-.486.062,1.191,1.191,0,0,0-.372.173.8.8,0,0,0-.24.267.7.7,0,0,0-.085.343.822.822,0,0,0,.085.393.864.864,0,0,0,.249.281,1.9,1.9,0,0,0,.4.223q.234.1.533.217a7.421,7.421,0,0,1,.715.313,2.452,2.452,0,0,1,.539.363,1.42,1.42,0,0,1,.343.466,1.5,1.5,0,0,1,.12.627,1.478,1.478,0,0,1-.2.773,1.682,1.682,0,0,1-.524.545,2.4,2.4,0,0,1-.756.322,3.732,3.732,0,0,1-.9.105A3.4,3.4,0,0,1,149.518,77.249Z"/><polygon class="az" points="175.637 71.161 176.664 70.134 203.365 68.08 205.96 71.647 191.042 90.109 175.637 71.161"/><circle class="l" cx="191.042" cy="55.756" r="21.785"/><path class="g" d="M186.055,44.346a3.261,3.261,0,0,1,.908.111,3.38,3.38,0,0,1,.68.275,3.191,3.191,0,0,1,.533.363,5.677,5.677,0,0,0,.475.363,2.716,2.716,0,0,0,.516.275,1.7,1.7,0,0,0,.639.111H201.43a1.454,1.454,0,0,1,.586.117,1.528,1.528,0,0,1,.8.8,1.454,1.454,0,0,1,.117.586v7.5h-1.5v-7.5H189.8a1.7,1.7,0,0,0-.639.111,2.716,2.716,0,0,0-.516.275,5.677,5.677,0,0,0-.475.363,3.191,3.191,0,0,1-.533.363,3.38,3.38,0,0,1-.68.275,3.261,3.261,0,0,1-.908.111H180.43v13.5h7.5v1.5h-9v-18a1.454,1.454,0,0,1,.117-.586,1.528,1.528,0,0,1,.8-.8,1.454,1.454,0,0,1,.586-.117Zm0,3a2.043,2.043,0,0,0,.492-.053,1.535,1.535,0,0,0,.387-.152,2.7,2.7,0,0,0,.346-.234q.17-.135.369-.311-.2-.176-.369-.311a2.7,2.7,0,0,0-.346-.234,1.535,1.535,0,0,0-.387-.152,2.043,2.043,0,0,0-.492-.053H180.43v1.5Zm7.875,9h9v7.5h-4.5v3h-9v-7.5h4.5Zm3,7.5h-3v-3h-3v4.5h6Zm-1.5-6v1.5h3v3h3v-4.5Zm1.5,3h-1.5v1.5h1.5Z"/><polygon class="ba" points="73.648 297.651 73.382 297.385 66.455 296.852 65.782 297.777 69.652 302.567 73.648 297.651"/><circle class="c" cx="69.652" cy="293.655" r="5.652"/><polygon class="ba" points="438.648 43.651 438.382 43.385 431.455 42.852 430.782 43.777 434.652 48.567 438.648 43.651"/><circle class="c" cx="434.652" cy="39.655" r="5.652"/><polygon class="ba" points="358.648 297.651 358.382 297.385 351.455 296.852 350.782 297.777 354.652 302.567 358.648 297.651"/><circle class="c" cx="354.652" cy="293.655" r="5.652"/><polygon class="ba" points="318.648 233.651 318.382 233.385 311.455 232.852 310.782 233.777 314.652 238.567 318.648 233.651"/><circle class="c" cx="314.652" cy="229.655" r="5.652"/><polygon class="ba" points="215.648 233.651 215.382 233.385 208.455 232.852 207.782 233.777 211.652 238.567 215.648 233.651"/><circle class="c" cx="211.652" cy="229.655" r="5.652"/><polygon class="ba" points="215.648 170.651 215.382 170.385 208.455 169.852 207.782 170.777 211.652 175.567 215.648 170.651"/><circle class="c" cx="211.652" cy="166.655" r="5.652"/><polygon class="ba" points="279.648 170.651 279.382 170.385 272.455 169.852 271.782 170.777 275.652 175.567 279.648 170.651"/><circle class="c" cx="275.652" cy="166.655" r="5.652"/><polygon class="ba" points="357.648 105.651 357.382 105.385 350.455 104.852 349.782 105.777 353.652 110.567 357.648 105.651"/><circle class="c" cx="353.652" cy="101.655" r="5.652"/><polygon class="ba" points="264.648 43.651 264.382 43.385 257.455 42.852 256.782 43.777 260.652 48.567 264.648 43.651"/><circle class="c" cx="260.652" cy="39.655" r="5.652"/><polygon class="ba" points="299.648 43.651 299.382 43.385 292.455 42.852 291.782 43.777 295.652 48.567 299.648 43.651"/><circle class="c" cx="295.652" cy="39.655" r="5.652"/><polygon class="ba" points="371.648 233.651 371.382 233.385 364.455 232.852 363.782 233.777 367.652 238.567 371.648 233.651"/><circle class="c" cx="367.652" cy="229.655" r="5.652"/><polygon class="ba" points="270.648 297.651 270.382 297.385 263.455 296.852 262.782 297.777 266.652 302.567 270.648 297.651"/><circle class="c" cx="266.652" cy="293.655" r="5.652"/></svg>