<svg width="94" height="37" viewBox="0 0 94 37" xmlns="http://www.w3.org/2000/svg"><g fill="none" fill-rule="evenodd"><path d="M65.21 27.865s-.43-1.546 1.17-4.52c1.6-2.974 2.85-1.348 2.85-1.348s1.364 1.507-.196 3.767-3.823 2.1-3.823 2.1zm-12.288 2.14c-1.833 4.877-6.28 2.895-6.28 2.895s-.507-1.744.936-6.62c1.443-4.878 4.837-2.975 4.837-2.975s2.34 1.824.507 6.7zM49.607 9.588s2.77-7.334 3.432-3.766c.663 3.57-5.813 14.195-5.813 14.195.078-2.38 2.38-10.428 2.38-10.428zM10.01 27.865c.118-4.718 3.16-6.78 4.214-5.75 1.054 1.032.664 3.252-1.326 4.64-1.99 1.387-2.887 1.11-2.887 1.11zm83.912-.783c-.156-1.586-1.56-.996-1.56-.996S90.1 27.868 88.11 27.67c-1.99-.2-1.366-4.72-1.366-4.72s.43-4.143-.74-4.49c-1.17-.348-2.615 1.08-2.615 1.08s-1.795 2.02-2.653 4.598l-.234.08s.273-4.52-.04-5.55c-.234-.517-2.38-.477-2.73.435-.35.912-2.068 7.255-2.185 9.912 0 0-3.355 2.894-6.28 3.37-2.926.475-3.628-1.388-3.628-1.388s7.958-2.26 7.685-8.722c-.273-6.463-6.417-4.074-7.113-3.542-.673.513-4.264 2.715-5.31 8.81-.037.21-.1 1.115-.1 1.115s-3.08 2.1-4.798 2.656c0 0 4.798-8.207-1.053-11.934-2.652-1.625-4.758 1.784-4.758 1.784s7.92-8.96 6.163-16.533c-.836-3.605-2.61-3.992-4.238-3.41-2.47.993-3.408 2.46-3.408 2.46s-3.2 4.718-3.94 11.736c-.742 7.017-1.834 15.502-1.834 15.502s-1.522 1.506-2.926 1.586c-1.404.08-.78-4.243-.78-4.243s1.092-6.58 1.014-7.69c-.078-1.11-.156-1.705-1.443-2.102-1.287-.396-2.69 1.27-2.69 1.27s-3.707 5.708-4.02 6.58l-.194.357-.195-.237s2.615-7.77.118-7.89c-2.497-.12-4.135 2.775-4.135 2.775s-2.848 4.837-2.965 5.392l-.195-.238s1.17-5.63.936-7.017c-.235-1.388-1.522-1.11-1.522-1.11s-1.638-.2-2.068.872c-.43 1.07-1.99 8.167-2.184 10.427 0 0-4.096 2.973-6.788 3.012-2.692.04-2.42-1.735-2.42-1.735s9.87-3.434 7.18-10.214c-1.21-1.744-2.614-2.292-4.604-2.252-1.99.04-4.46 1.273-6.058 4.92-.763 1.742-1.042 3.392-1.198 4.642 0 0-1.728.358-2.664-.435-.936-.793-1.418 0-1.418 0S.11 29.67 1.71 30.304c1.598.634 4.095.93 4.095.93h-.002c.23 1.11.897 2.996 2.844 4.5 2.926 2.26 8.543-.208 8.543-.208l2.3-1.313s.08 2.146 1.756 2.46c1.678.313 2.38-.005 5.306-7.22 1.716-3.688 1.833-3.49 1.833-3.49l.195-.04s-1.326 7.057-.82 8.96c.508 1.903 2.732 1.704 2.732 1.704s1.21.238 2.184-3.25C33.65 29.846 35.524 26 35.524 26h.234s-.82 7.217.43 9.517c1.247 2.3 4.485.773 4.485.773s2.263-1.16 2.614-1.517c0 0 2.686 2.323 6.473 1.902 8.468-1.693 11.48-3.98 11.48-3.98s1.454 3.745 5.96 4.092c5.15.396 7.958-2.895 7.958-2.895s-.04 2.14 1.756 2.894c1.794.753 3.003-3.48 3.003-3.48l3.004-8.415h.274s.156 5.473 3.12 6.345c2.966.872 6.828-2.042 6.828-2.042s.936-.525.78-2.11z" fill="#fff"/></g></svg>